<svg width="258" height="71" viewBox="0 0 258 71" fill="none" xmlns="http://www.w3.org/2000/svg">
<g clip-path="url(#clip0_1_2-043892)">
<path d="M70.26 20.15L50.72 0.599994C50.5301 0.406167 50.3027 0.253041 50.0517 0.149891C49.8007 0.0467406 49.5313 -0.00425141 49.26 1.87697e-05H21.62C21.3475 -0.0021854 21.0772 0.0497053 20.8249 0.152698C20.5725 0.255691 20.3431 0.407714 20.15 0.599994L0.610016 20.15C0.417127 20.3412 0.263928 20.5685 0.159241 20.8191C0.0545536 21.0697 0.000428731 21.3385 0 21.61V49.25C0.000428731 49.5216 0.0545536 49.7903 0.159241 50.0409C0.263928 50.2915 0.417127 50.5189 0.610016 50.71L20.15 70.26C20.3431 70.4523 20.5725 70.6043 20.8249 70.7073C21.0772 70.8103 21.3475 70.8622 21.62 70.86H49.26C49.5313 70.8643 49.8007 70.8133 50.0517 70.7101C50.3027 70.607 50.5301 70.4538 50.72 70.26L70.26 50.71C70.4529 50.5189 70.6061 50.2915 70.7108 50.0409C70.8155 49.7903 70.8696 49.5216 70.87 49.25V21.61C70.8696 21.3385 70.8155 21.0697 70.7108 20.8191C70.6061 20.5685 70.4529 20.3412 70.26 20.15ZM61.64 26.81L53.94 8.12001L67.12 21.36L61.64 26.81ZM51.02 65.5V41.83L60.55 32.3L67.48 49.04L51.02 65.5ZM62.94 29.92L67.77 25.09V41.59L62.94 29.92ZM51.03 37.43V9.36L59.27 29.24L51.03 37.43ZM45.03 8.12001L20.85 66.5L3.76001 49.36L45.03 8.12001ZM3.10001 45.65V22.36L42.83 5.90001L3.10001 45.65ZM8.17001 16.91L22.04 3.05001H41.64L8.17001 16.91ZM47.9 44.91V67.72L25.14 67.67L47.9 44.91ZM25.82 62.59L47.94 9.36V40.59L25.82 62.59Z" fill="url(#paint0_linear_1_2-753621)"/>
<path d="M98.82 48.27L110.82 35.74L111.29 35.26H110.62H108.16H108.03L107.95 35.34L96.21 47.51V35.54V35.26H95.93H93.95H93.67V35.54V61.04V61.33H93.95H95.93H96.21V61.04V48.97L109.08 61.24L109.16 61.33H109.28H111.78H112.5L111.98 60.83L98.82 48.27Z" fill="#702381"/>
<path d="M127.94 34.92C126.136 34.8859 124.344 35.2125 122.668 35.8805C120.992 36.5485 119.466 37.5445 118.18 38.81C116.914 40.0419 115.908 41.5151 115.22 43.1425C114.533 44.7699 114.179 46.5184 114.179 48.285C114.179 50.0515 114.533 51.8001 115.22 53.4275C115.908 55.0549 116.914 56.5281 118.18 57.76C120.823 60.255 124.32 61.6449 127.955 61.6449C131.59 61.6449 135.087 60.255 137.73 57.76C139.008 56.5295 140.024 55.0539 140.718 53.4216C141.412 51.7893 141.77 50.0338 141.77 48.26C141.77 46.4862 141.412 44.7307 140.718 43.0984C140.024 41.466 139.008 39.9905 137.73 38.76C136.434 37.503 134.901 36.5163 133.221 35.857C131.54 35.1978 129.745 34.8793 127.94 34.92ZM139.04 48.3C139.065 49.7455 138.795 51.1808 138.246 52.5185C137.698 53.8561 136.882 55.0679 135.85 56.08C134.825 57.11 133.602 57.9219 132.254 58.4667C130.907 59.0115 129.463 59.2779 128.01 59.25C126.55 59.2772 125.099 59.0106 123.743 58.4661C122.388 57.9215 121.156 57.1101 120.12 56.08C119.095 55.0581 118.282 53.844 117.727 52.5072C117.172 51.1705 116.886 49.7373 116.886 48.29C116.886 46.8426 117.172 45.4095 117.727 44.0727C118.282 42.736 119.095 41.5219 120.12 40.5C121.154 39.468 122.386 38.6554 123.742 38.1107C125.098 37.566 126.549 37.3005 128.01 37.33C129.46 37.3112 130.899 37.5829 132.242 38.129C133.585 38.6751 134.805 39.4847 135.83 40.5099C136.855 41.5351 137.665 42.7552 138.211 44.0983C138.757 45.4414 139.029 46.8802 139.01 48.33L139.04 48.3Z" fill="#702381"/>
<path d="M172.12 35.25H171.83V57.05L153 35.36L152.92 35.26H150.83V61.36H153.38V39.56L172.25 61.26L172.34 61.36H174.34V35.25H172.08H172.12Z" fill="#702381"/>
<path d="M188.28 59.1V49.36H199.94V47.13H188.28V37.5H200.21V35.28H185.73V61.36H200.51V59.14H188.28V59.1Z" fill="#702381"/>
<path d="M215.66 48.27L227.66 35.74L228.13 35.25H224.87L224.79 35.34L213.05 47.51V35.25H210.5V61.36H213.05V48.97L225.94 61.24L226.03 61.32H229.37L228.85 60.83L215.66 48.27Z" fill="#702381"/>
<path d="M256.8 35.25H235.39V37.47H244.94V61.36H247.5V37.47H257.06V35.25H256.8Z" fill="#702381"/>
<path d="M109.2 9.43001V26.78H108.1L94.94 11.62V26.78H93.59V9.43001H94.73L107.88 24.59V9.43001H109.2Z" fill="black"/>
<path d="M126.09 9.43001V10.55H117.94V17.49H125.85V18.62H117.94V25.62H126.26V26.74H116.6V9.43001H126.09Z" fill="black"/>
<path d="M143.6 12.36L137.78 27H137.42L130.42 9.48H131.8L137.54 23.87L143.36 9.48H143.78L149.57 23.87L155.33 9.48H156.71L149.71 27H149.39L143.6 12.36Z" fill="black"/>
<path d="M170.99 9.43001V10.55H163.41V17.14H170.25V18.26H163.41V26.78H162.07V9.43001H170.99Z" fill="black"/>
<path d="M185.08 9.21001C186.285 9.1832 187.483 9.39865 188.603 9.84355C189.723 10.2885 190.742 10.9538 191.6 11.8C192.447 12.6171 193.121 13.5965 193.581 14.6798C194.041 15.7631 194.279 16.928 194.279 18.105C194.279 19.282 194.041 20.4469 193.581 21.5302C193.121 22.6134 192.447 23.5929 191.6 24.41C189.841 26.0667 187.516 26.9892 185.1 26.9892C182.684 26.9892 180.359 26.0667 178.6 24.41C177.758 23.59 177.089 22.6097 176.631 21.5268C176.174 20.4439 175.939 19.2804 175.939 18.105C175.939 16.9296 176.174 15.7661 176.631 14.6832C177.089 13.6003 177.758 12.62 178.6 11.8C179.453 10.9586 180.466 10.2961 181.579 9.85139C182.692 9.40664 183.882 9.18857 185.08 9.21001ZM185.13 25.76C186.145 25.7816 187.153 25.5958 188.094 25.2141C189.034 24.8324 189.887 24.2627 190.6 23.54C192.024 22.0892 192.821 20.1376 192.821 18.105C192.821 16.0723 192.024 14.1208 190.6 12.67C189.887 11.9473 189.034 11.3776 188.094 10.9959C187.153 10.6142 186.145 10.4284 185.13 10.45C184.109 10.4282 183.095 10.6137 182.147 10.9953C181.2 11.3769 180.341 11.9466 179.62 12.67C178.179 14.1119 177.37 16.0668 177.37 18.105C177.37 20.1432 178.179 22.0981 179.62 23.54C180.341 24.2634 181.2 24.8331 182.147 25.2147C183.095 25.5963 184.109 25.7818 185.13 25.76Z" fill="black"/>
<path d="M226.88 17.49L233.46 9.43001H234.82V26.78H233.47V11.36L226.87 19.46L220.25 11.36V26.74H218.94V9.43001H220.28L226.88 17.49Z" fill="black"/>
<path d="M244.96 19.73L245.69 18.13L244.96 19.73Z" fill="black"/>
<path d="M245.7 18.11L245.69 18.13L245.7 18.11Z" fill="black"/>
<path d="M244.96 19.73L245.69 18.13L245.7 18.11L248.68 11.56L251.56 17.85L253.52 22.13L255.67 26.84H257.08L249.06 9.37H248.33L240.31 26.84H241.72L243.86 22.13L244.96 19.73Z" fill="black"/>
<path d="M210.17 20.78C209.618 19.7307 208.827 18.8262 207.86 18.14C210.073 17.3333 211.177 15.9267 211.17 13.92C211.197 13.2957 211.077 12.6738 210.82 12.1042C210.563 11.5346 210.176 11.0331 209.69 10.64C208.448 9.75886 206.94 9.33166 205.42 9.43002H200.94V26.78H202.29V10.55H205.12C206.315 10.472 207.502 10.7882 208.5 11.45C208.886 11.7359 209.196 12.1127 209.402 12.5471C209.608 12.9815 209.703 13.4599 209.68 13.94C209.702 14.4207 209.608 14.8998 209.406 15.3366C209.205 15.7735 208.901 16.1553 208.52 16.45C207.532 17.1088 206.354 17.4218 205.17 17.34H204.52V18.61C205.397 18.631 206.266 18.7792 207.1 19.05C208.048 19.9121 208.845 20.9259 209.46 22.05L212.46 26.81H214.05L210.17 20.78Z" fill="black"/>
</g>
<defs>
<linearGradient id="paint0_linear_1_2-753621" x1="2.64" y1="16.49" x2="68.24" y2="54.37" gradientUnits="userSpaceOnUse">
<stop stop-color="#004F9F"/>
<stop offset="0.21" stop-color="#12489A"/>
<stop offset="0.63" stop-color="#42348E"/>
<stop offset="1" stop-color="#702283"/>
</linearGradient>
<clipPath id="clip0_1_2-043892">
<rect width="257.08" height="70.87" fill="white"/>
</clipPath>
</defs>
</svg>