<?xml version="1.0" encoding="UTF-8"?>
<svg width="24px" height="24px" viewBox="0 0 24 24" version="1.1" xmlns="http://www.w3.org/2000/svg" xmlns:xlink="http://www.w3.org/1999/xlink">
    <title>D9172DD3-871C-4637-A990-71F340AA5A1C</title>
    <g id="Symbols" stroke="none" stroke-width="1" fill="none" fill-rule="evenodd" stroke-linecap="round" stroke-linejoin="round">
        <g id="Icons/general/viewpoints-24px" stroke="#2A2A2A" stroke-width="1.875">
            <g id="Group" transform="translate(4.000000, 4.000000)">
                <path d="M7.22196782,10.5871615 L10.8913687,6.84499328 C12.1012768,5.62448345 14.2381746,5.89239376 15.1678491,6.84499328 C16.0975236,7.7975928 16.4438146,9.95969734 15.1678491,11.175274 L9.6214482,16.5185765 C9.14465743,16.9866543 8.17271113,17.3137789 7.47393568,16.5185765 C6.77516022,15.7233741 7.21101692,14.7908046 7.68780768,14.3227269 L12.4113763,9.6734385" id="raw" transform="translate(11.554404, 11.513502) rotate(-180.000000) translate(-11.554404, -11.513502) "></path>
                <g id="raw">
                    <path d="M3.16337688,13.6781497 L1.3329987,13.6781497 C0.596803847,13.6781497 0,13.0595723 0,12.2965184 L0,3.45407821 C0,2.69102432 0.596803847,2.07244692 1.3329987,2.07244692 L3.9989961,2.07244692 L5.33199481,0 L9.33099091,0 L10.6639896,2.07244692 L13.329987,2.07244692" id="Path"></path>
                    <path d="M9.53394341,5.30664156 C8.97812348,4.71828503 8.19682609,4.35213854 7.33149286,4.35213854 C5.64437965,4.35213854 4.27670417,5.74393768 4.27670417,7.46080892 C4.27670417,8.30704054 4.60897032,9.0742984 5.1479822,9.63484813" id="Path"></path>
                </g>
            </g>
        </g>
    </g>
</svg>