<?xml version="1.0" encoding="UTF-8"?>
<svg width="24px" height="24px" viewBox="0 0 24 24" version="1.1" xmlns="http://www.w3.org/2000/svg" xmlns:xlink="http://www.w3.org/1999/xlink">
    <title>31343155-6270-469A-9334-5129C727F4A4</title>
    <g id="Symbols" stroke="none" stroke-width="1" fill="none" fill-rule="evenodd">
        <g id="Icons/general/archive-24px" fill="currentColor">
            <path d="M21,3.5 C21.5128358,3.5 21.9355072,3.88604019 21.9932723,4.38337887 L22,4.5 L22,8.5 C22,9.01283584 21.6139598,9.43550716 21.1166211,9.49327227 L21,9.5 L20.5,9.5 L20.5,20 C20.5,20.5128358 20.1139598,20.9355072 19.6166211,20.9932723 L19.5,21 L4.5,21 C3.98716416,21 3.56449284,20.6139598 3.50672773,20.1166211 L3.5,20 L3.5,9.5 L3,9.5 C2.48716416,9.5 2.06449284,9.11395981 2.00672773,8.61662113 L2,8.5 L2,4.5 C2,3.98716416 2.38604019,3.56449284 2.88337887,3.50672773 L3,3.5 L21,3.5 Z M18.5,9.5 L5.5,9.5 L5.5,19 L18.5,19 L18.5,9.5 Z M14.25,11.75 C14.8022847,11.75 15.25,12.1977153 15.25,12.75 C15.25,13.2628358 14.8639598,13.6855072 14.3666211,13.7432723 L14.25,13.75 L9.75,13.75 C9.19771525,13.75 8.75,13.3022847 8.75,12.75 C8.75,12.2371642 9.13604019,11.8144928 9.63337887,11.7567277 L9.75,11.75 L14.25,11.75 Z M20,5.5 L4,5.5 L4,7.5 L20,7.5 L20,5.5 Z" id="Shape"></path>
        </g>
    </g>
</svg>
