<?xml version="1.0" encoding="UTF-8"?>
<svg width="16px" height="16px" viewBox="0 0 16 16" version="1.1" xmlns="http://www.w3.org/2000/svg" xmlns:xlink="http://www.w3.org/1999/xlink">
    <title>BE1BEDBC-A02E-415D-B07F-32F4BC1A9591</title>
    <g id="Symbols" stroke="none" stroke-width="1" fill="none" fill-rule="evenodd">
        <g id="Icons/general/arrow-up-16px" fill="#2A2A2A">
            <path d="M8.02486653,2.25040978 L8,2.25 C8.03839224,2.25 8.07611073,2.25288471 8.11295053,2.25844919 C8.12451811,2.26025385 8.13622779,2.26230949 8.14789267,2.26464433 C8.17289581,2.26958796 8.19719212,2.27576118 8.22098366,2.28308617 C8.23264346,2.28671273 8.24469294,2.29074464 8.25665398,2.29509073 C8.27995161,2.30357499 8.30202019,2.31287686 8.32352179,2.32317314 C8.33512287,2.32866533 8.34745994,2.33496828 8.35965102,2.34163501 C8.38366677,2.35487024 8.40639019,2.36897543 8.42826335,2.38421622 C8.43400509,2.38813751 8.44013473,2.39254279 8.44621165,2.39705176 C8.45385686,2.40285492 8.45608469,2.40455735 8.45830264,2.40627192 L8.53033009,2.46966991 L12.5303301,6.46966991 C12.8232233,6.76256313 12.8232233,7.23743687 12.5303301,7.53033009 C12.2640635,7.79659665 11.8473998,7.8208027 11.5537883,7.60294824 L11.4696699,7.53033009 L8.749,4.81 L8.75,13 C8.75,13.4142136 8.41421356,13.75 8,13.75 C7.62030423,13.75 7.30650904,13.4678461 7.25684662,13.1017706 L7.25,13 L7.249,4.812 L4.53033009,7.53033009 C4.26406352,7.79659665 3.84739984,7.8208027 3.55378835,7.60294824 L3.46966991,7.53033009 C3.20340335,7.26406352 3.1791973,6.84739984 3.39705176,6.55378835 L3.46966991,6.46966991 L7.46966991,2.46966991 L7.54169736,2.40627192 C7.54581642,2.40308771 7.54996953,2.39994541 7.55415605,2.39684567 L7.46966991,2.46966991 C7.50672319,2.43261664 7.54668892,2.40025089 7.58883021,2.37257267 C7.60898514,2.35940783 7.62997247,2.34702767 7.65158175,2.33567096 C7.66070362,2.33083742 7.66943437,2.32648082 7.67822959,2.32230508 C7.70660552,2.30880073 7.73676262,2.2967322 7.76780866,2.28663399 C7.77310765,2.28496585 7.77747119,2.28359992 7.78184446,2.2822748 C7.85032314,2.26135317 7.92383573,2.25 8,2.25 C8.01216748,2.25007136 8.01851808,2.25020048 8.02486653,2.25040978 Z" id="Combined-Shape"></path>
        </g>
    </g>
</svg>