<?xml version="1.0" encoding="UTF-8"?>
<svg width="16px" height="16px" viewBox="0 0 16 16" version="1.1" xmlns="http://www.w3.org/2000/svg" xmlns:xlink="http://www.w3.org/1999/xlink">
    <title>512130D0-A96A-4E29-B6D6-6C9152638A0C</title>
    <g id="Symbols" stroke="none" stroke-width="1" fill="none" fill-rule="evenodd">
        <g id="Icons/general/arrow-down-16px" fill="#2A2A2A">
            <path d="M8,13.75 L8.05705743,13.7478621 L8.05705743,13.7478621 L8.14789267,13.7353557 L8.14789267,13.7353557 L8.18489252,13.7270278 L8.18489252,13.7270278 L8.2907614,13.6915476 L8.2907614,13.6915476 L8.35965102,13.658365 L8.35965102,13.658365 L8.45830264,13.5937281 L8.45830264,13.5937281 L8.53033009,13.5303301 L12.5303301,9.53033009 C12.8232233,9.23743687 12.8232233,8.76256313 12.5303301,8.46966991 C12.2640635,8.20340335 11.8473998,8.1791973 11.5537883,8.39705176 L11.4696699,8.46966991 L8.749,11.19 L8.75,3 C8.75,2.58578644 8.41421356,2.25 8,2.25 C7.62030423,2.25 7.30650904,2.53215388 7.25684662,2.89822944 L7.25,3 L7.249,11.188 L4.53033009,8.46966991 C4.26406352,8.20340335 3.84739984,8.1791973 3.55378835,8.39705176 L3.46966991,8.46966991 C3.20340335,8.73593648 3.1791973,9.15260016 3.39705176,9.44621165 L3.46966991,9.53033009 L7.46966991,13.5303301 C7.50672319,13.5673834 7.54668892,13.5997491 7.58883021,13.6274273 L7.67822959,13.6776949 L7.67822959,13.6776949 L7.78184446,13.7177252 L7.78184446,13.7177252 C7.85032314,13.7386468 7.92383573,13.75 8,13.75 Z" id="Path"></path>
        </g>
    </g>
</svg>