<svg width="16" height="16" viewBox="0 0 16 16" fill="none" xmlns="http://www.w3.org/2000/svg">
<path fill-rule="evenodd" clip-rule="evenodd" d="M9.13634 9.13634C8.87007 9.4026 8.84586 9.81927 9.06372 10.1129L9.13634 10.197C9.4026 10.4633 9.81927 10.4875 10.1129 10.2696L10.197 10.197L13.5303 6.86366L13.5937 6.79164C13.5962 6.78847 13.5986 6.78528 13.601 6.78207L13.5303 6.86366C13.5674 6.82661 13.5997 6.78664 13.6274 6.7445C13.6411 6.72361 13.6539 6.70184 13.6656 6.6794C13.6693 6.67222 13.6729 6.66516 13.6763 6.65805C13.6901 6.62921 13.7023 6.59914 13.7125 6.56819C13.7143 6.56261 13.7159 6.55755 13.7174 6.55247C13.7386 6.48358 13.75 6.40979 13.75 6.33333C13.75 6.29494 13.7471 6.25722 13.7416 6.22038C13.7398 6.20908 13.7378 6.19763 13.7355 6.18622C13.7304 6.16038 13.724 6.13507 13.7163 6.11031C13.7132 6.10052 13.7101 6.09111 13.7067 6.08176C13.6974 6.05553 13.6866 6.02977 13.6744 6.00479C13.67 5.99572 13.6654 5.98672 13.6606 5.9778C13.6462 5.95116 13.6301 5.92526 13.6126 5.90047C13.6095 5.89611 13.6063 5.8916 13.6029 5.88712C13.5779 5.85396 13.555 5.82763 13.5303 5.803L10.197 2.46967C9.9041 2.17678 9.42923 2.17678 9.13634 2.46967C8.87007 2.73594 8.84586 3.1526 9.06372 3.44621L9.13634 3.53033L11.19 5.583L5 5.58333C3.17593 5.58333 1.68571 7.01275 1.58839 8.81254L1.58333 9V13.6667C1.58333 14.0809 1.91912 14.4167 2.33333 14.4167C2.71303 14.4167 3.02682 14.1345 3.07649 13.7684L3.08333 13.6667V9C3.08333 7.99186 3.86167 7.16551 4.85021 7.0891L5 7.08333L11.19 7.083L9.13634 9.13634Z" fill="black"/>
</svg>