<?xml version="1.0" encoding="UTF-8"?>
<svg width="16px" height="16px" viewBox="0 0 16 16" version="1.1" xmlns="http://www.w3.org/2000/svg" xmlns:xlink="http://www.w3.org/1999/xlink">
    <title>642EFF8B-B28A-4D0A-8D0F-6C4B703BB511</title>
    <g id="Symbols" stroke="none" stroke-width="1" fill="currentColor" fill-rule="evenodd">
        <g id="Icons/general/attachment" fill="#2A2A2A">
            <path d="M8.10463962,2.4834082 C9.35845733,1.30090133 11.3741221,1.30090135 12.6279398,2.48340823 C13.8593385,3.64477125 13.9049459,5.51880294 12.7644974,6.73320561 L12.6276436,6.87032357 L6.94844149,12.2206993 C6.17706194,12.9482067 4.94358391,12.9482067 4.17220436,12.2206993 C3.41779394,11.5091959 3.37808813,10.361645 4.05345085,9.60389889 L4.17263237,9.48135879 L8.10506762,5.7784028 C8.40662749,5.49444061 8.88128689,5.50870635 9.16524908,5.81026622 C9.42339652,6.08441155 9.4350746,6.50161435 9.20849805,6.78854874 L9.13338566,6.87044767 L5.20137842,10.5730003 C5.03282423,10.731968 5.03282423,10.9704934 5.20137842,11.1294611 C5.37068806,11.2891413 5.64519367,11.3091013 5.84100076,11.1891541 L5.91956368,11.1291819 L11.5987657,5.77880616 C12.2497581,5.16483897 12.2497581,4.18861358 11.5987657,3.5746464 C10.9625917,2.97465476 9.93918679,2.93936113 9.25745621,3.4687655 L9.13381368,3.57464638 L3.46048872,8.92530134 C2.32705824,9.99426804 2.32705824,11.7081934 3.46048872,12.7771601 C4.5705962,13.8241303 6.35747108,13.867754 7.52397585,12.9080314 L7.67250387,12.7771601 L13.3458288,7.42650512 C13.6471659,7.14230655 14.1218364,7.15620007 14.4060349,7.45753717 C14.6643973,7.73147999 14.6764025,8.14867351 14.450051,8.43578548 L14.3750029,8.51774329 L8.70167793,13.8683983 C6.96542208,15.5059047 4.1675705,15.5059047 2.43131465,13.8683983 C0.725153709,12.2592751 0.671836179,9.66358406 2.27136206,7.99280042 L2.43131465,7.83406317 L8.10463962,2.4834082 Z" id="raw-copy"></path>
        </g>
    </g>
</svg>