<?xml version="1.0" encoding="UTF-8"?>
<svg width="16px" height="16px" viewBox="0 0 16 16" version="1.1" xmlns="http://www.w3.org/2000/svg" xmlns:xlink="http://www.w3.org/1999/xlink">
    <title>5EBD67AA-160C-44FF-8942-AF77B32E083D</title>
    <g id="Symbols" stroke="none" stroke-width="1" fill="none" fill-rule="evenodd">
        <g id="Icons/general/bookmark" fill="#2A2A2A">
            <path d="M12,2 C12.5522847,2 13,2.44771525 13,3 L13,12.9722561 C13,13.5245409 12.5522847,13.9722561 12,13.9722561 C11.7798732,13.9722561 11.565897,13.8996236 11.3912558,13.7656227 L8.00054253,11.163954 L4.60866103,13.7659544 C4.17046154,14.1021086 3.54272384,14.0193845 3.20656963,13.581185 C3.07260888,13.4065582 3,13.1926149 3,12.972524 L3,3 C3,2.44771525 3.44771525,2 4,2 L12,2 Z M11.5,3.5 L4.5,3.5 L4.5,11.957 L8.00064161,9.27335292 L11.5,11.958 L11.5,3.5 Z" id="raw-copy"></path>
        </g>
    </g>
</svg>