<svg width="24" height="24" viewBox="0 0 24 24" fill="none" xmlns="http://www.w3.org/2000/svg">
<path fill-rule="evenodd" clip-rule="evenodd" d="M21 18.8333C21 19.7538 20.2674 20.5 19.3636 20.5H4.63636C3.73262 20.5 3 19.7538 3 18.8333V8.16667C3 7.24619 3.73262 6.5 4.63636 6.5H7.90909L9.54545 4H14.4545L16.0909 6.5H19.3636C20.2674 6.5 21 7.24619 21 8.16667V18.8333Z" stroke="#2A2A2A" stroke-width="1.5" stroke-linecap="round" stroke-linejoin="round"/>
<path d="M12 16.75C14.0711 16.75 15.75 15.0711 15.75 13C15.75 10.9289 14.0711 9.25 12 9.25C9.92893 9.25 8.25 10.9289 8.25 13C8.25 15.0711 9.92893 16.75 12 16.75Z" stroke="#2A2A2A" stroke-width="1.5" stroke-linecap="round" stroke-linejoin="round"/>
</svg>