<?xml version="1.0" encoding="UTF-8"?>
<svg width="24px" height="24px" viewBox="0 0 24 24" version="1.1" xmlns="http://www.w3.org/2000/svg" xmlns:xlink="http://www.w3.org/1999/xlink">
    <title>18ADE1E1-5B2B-4A4A-BA8C-BF10EFCB6A20</title>
    <g id="Symbols" stroke="none" stroke-width="1" fill="none" fill-rule="evenodd">
        <g id="Icons/general/check-circle-24px" fill="currentColor">
            <path d="M12,3.25 C13.3947325,3.25 14.7441883,3.57717696 15.9613247,4.19613133 C16.3305398,4.38388946 16.4776397,4.83540545 16.2898816,5.2046205 C16.1021234,5.57383556 15.6506074,5.72093546 15.2813924,5.53317732 C14.2737055,5.02073502 13.1570469,4.75 12,4.75 C7.99593556,4.75 4.75,7.99593556 4.75,12 C4.75,16.0040644 7.99593556,19.25 12,19.25 C16.0040644,19.25 19.25,16.0040644 19.25,12 C19.25,11.6260768 19.2217559,11.2559805 19.1659353,10.8917502 C19.103187,10.482317 19.3842307,10.0995383 19.7936639,10.0367901 C20.203097,9.97404183 20.5858757,10.2550855 20.648624,10.6645187 C20.7159588,11.1038793 20.75,11.5499376 20.75,12 C20.75,16.8324916 16.8324916,20.75 12,20.75 C7.16750844,20.75 3.25,16.8324916 3.25,12 C3.25,7.16750844 7.16750844,3.25 12,3.25 Z M20.5303301,5.46966991 C20.7965966,5.73593648 20.8208027,6.15260016 20.6029482,6.44621165 L20.5303301,6.53033009 L11.8140025,15.2466577 L8.46966991,11.9023251 C8.1767767,11.6094319 8.1767767,11.1345581 8.46966991,10.8416649 C8.73593648,10.5753984 9.15260016,10.5511923 9.44621165,10.7690468 L9.53033009,10.8416649 L11.814,13.125 L19.4696699,5.46966991 C19.7625631,5.1767767 20.2374369,5.1767767 20.5303301,5.46966991 Z" id="Combined-Shape"></path>
        </g>
    </g>
</svg>