<svg width="10" height="10" viewBox="0 0 10 10" fill="none" xmlns="http://www.w3.org/2000/svg">
<g clip-path="url(#clip0_1385_21114-941920)">
<path d="M5 10C7.76142 10 10 7.76142 10 5C10 2.23858 7.76142 0 5 0C2.23858 0 0 2.23858 0 5C0 7.76142 2.23858 10 5 10Z" fill="red"/>
<path fill-rule="evenodd" clip-rule="evenodd" d="M4.99092 1.14404C5.44167 1.14404 5.81418 1.47899 5.87314 1.91357L5.88126 2.03438V5.0461L7.76333 5.98651C8.16649 6.18809 8.34988 6.65427 8.20826 7.06933L8.1615 7.18103C7.95993 7.58418 7.49374 7.76757 7.07868 7.62596L6.96699 7.5792L4.59275 6.39208C4.32882 6.26012 4.14996 6.00758 4.10936 5.72059L4.10059 5.59574V2.03438C4.10059 1.54266 4.4992 1.14404 4.99092 1.14404Z" fill="white"/>
</g>
<defs>
<clipPath id="clip0_1385_21114-941920">
<rect width="10" height="10" fill="white"/>
</clipPath>
</defs>
</svg>