<?xml version="1.0" encoding="UTF-8"?>
<svg width="24px" height="24px" viewBox="0 0 24 24" version="1.1" xmlns="http://www.w3.org/2000/svg" xmlns:xlink="http://www.w3.org/1999/xlink">
    <title>6105911C-AF61-4583-8B43-3DA4AA58A3BB</title>
    <g id="Symbols" stroke="none" stroke-width="1" fill="none" fill-rule="evenodd">
        <g id="Icons/general/close-circle-24px" fill="currentColor">
            <path d="M12,3 C16.9705627,3 21,7.02943725 21,12 C21,16.9705627 16.9705627,21 12,21 C7.02943725,21 3,16.9705627 3,12 C3,7.02943725 7.02943725,3 12,3 Z M12,4.5 C7.85786438,4.5 4.5,7.85786438 4.5,12 C4.5,16.1421356 7.85786438,19.5 12,19.5 C16.1421356,19.5 19.5,16.1421356 19.5,12 C19.5,7.85786438 16.1421356,4.5 12,4.5 Z M14.5104076,8.5 L15.5710678,9.56066017 L13.0961941,12.0355339 L15.5710678,14.5104076 L14.5104076,15.5710678 L12.0355339,13.0961941 L9.56066017,15.5710678 L8.5,14.5104076 L10.9748737,12.0355339 L8.5,9.56066017 L9.56066017,8.5 L12.0355339,10.9748737 L14.5104076,8.5 Z" id="Shape"></path>
        </g>
    </g>
</svg>