<?xml version="1.0" encoding="UTF-8"?>
<svg width="20px" height="14px" viewBox="0 0 20 14" version="1.1" xmlns="http://www.w3.org/2000/svg" xmlns:xlink="http://www.w3.org/1999/xlink">
    <title>7D24D936-735A-46DC-B19A-71C6671D78D2</title>
    <g id="Mobile" stroke="none" stroke-width="1" fill="none" fill-rule="evenodd">
        <g id="Issues-/-Select" transform="translate(-28.000000, -35.000000)" fill="currentColor">
            <g id="Zoom" transform="translate(28.000000, 35.000000)">
                <path d="M7.28571429,0 C10.1557806,0 12.6224201,1.72727547 13.7028237,4.19901727 L15.1,4.2 C17.8061953,4.2 20,6.39380473 20,9.1 C20,11.8061953 17.8061953,14 15.1,14 L5.6,14 C2.5072054,14 0,11.4927946 0,8.4 L0,7 C0,3.13400675 3.13400675,0 7,0 L7.28571429,0 Z M7.28571429,2 L7,2 C4.3112453,2 2.11818189,4.12230671 2.00461951,6.78311038 L2,7 L2,8.4 C2,10.3240888 3.50946661,11.8956228 5.40880777,11.9950099 L5.6,12 L15.1,12 C16.7016258,12 18,10.7016258 18,9.1 C18,7.55557515 16.7927107,6.29312782 15.2691357,6.20492249 L15.0985933,6.19999951 L12.3939134,6.19809712 L11.8702413,5.00004288 C11.1105624,3.26205331 9.42855594,2.09264309 7.51625191,2.00525945 L7.28571429,2 Z" id="Raw"></path>
            </g>
        </g>
    </g>
</svg>