<?xml version="1.0" encoding="UTF-8"?>
<svg width="20px" height="17px" viewBox="0 0 20 17" version="1.1" xmlns="http://www.w3.org/2000/svg" xmlns:xlink="http://www.w3.org/1999/xlink">
    <title>B8D6F212-B4DB-45F4-81B4-5C1C12162000</title>
    <g id="Mobile" stroke="none" stroke-width="1" fill="none" fill-rule="evenodd">
        <g id="Issues" transform="translate(-28.000000, -34.000000)" fill="currentColor">
            <g id="Zoom" transform="translate(28.500000, 34.000000)">
                <path d="M9.36337395,7.00888067 C9.87620979,7.00888067 10.2988811,7.39492086 10.3566462,7.89225955 L10.363374,8.00888067 L10.363,13.54 L11.379731,12.4981664 C11.7651883,12.10264 12.3983006,12.0944773 12.7938271,12.4799346 C13.1589284,12.8357413 13.1939682,13.4025677 12.894026,13.7987586 L12.8120588,13.8940306 L10.0795379,16.6979321 C9.71722653,17.069708 9.13779388,17.0983061 8.74207926,16.7837265 L8.64721003,16.6979321 L5.91468905,13.8940306 C5.52923179,13.4985042 5.53739444,12.8653918 5.93292085,12.4799346 C6.29802215,12.1241279 6.86556355,12.1037133 7.25388983,12.4137702 L7.34701689,12.4981664 L8.363,13.541 L8.36337395,8.00888067 C8.36337395,7.45659592 8.8110892,7.00888067 9.36337395,7.00888067 Z M7.07142857,0 C9.64896628,0 11.9677972,1.42226189 13.2084898,3.63539671 L13.263,3.738 L13.75,3.73801802 C16.5827148,3.73801802 18.882417,6.02512657 18.9956317,8.87846376 L19,9.09903905 C19,10.5538929 18.4283807,11.9197844 17.4315317,12.9211225 C17.0418857,13.3125232 16.4087223,13.3139456 16.0173217,12.9242996 C15.625921,12.5346537 15.6244986,11.9014903 16.0141446,11.5100896 C16.6402556,10.8811591 17,10.0215453 17,9.09903905 C17,7.30131388 15.6380884,5.84183507 13.9343244,5.74331885 L13.7505166,5.73801789 L11.9768983,5.73893411 L11.7177997,5.13026166 C10.9137588,3.2414151 9.10069541,2 7.07142857,2 C4.34807666,2 2.11707992,4.2176225 2.00446033,7.00853386 L2,7.23003004 L2,8.47603605 C2,9.29703373 2.23991664,10.0779359 2.68109563,10.7373732 C2.98819662,11.196402 2.86503482,11.8174729 2.40600604,12.1245739 C1.94697725,12.4316749 1.32590635,12.3085131 1.01880536,11.8494843 C0.413707524,10.9450349 0.0618762168,9.88861924 0.00743973388,8.7796966 L0,8.47603605 L0,7.23003004 C0,3.24268369 3.16013282,0 7.07142857,0 Z" id="Combined-Shape"></path>
            </g>
        </g>
    </g>
</svg>