<?xml version="1.0" encoding="UTF-8"?>
<svg width="16px" height="16px" viewBox="0 0 16 16" version="1.1" xmlns="http://www.w3.org/2000/svg" xmlns:xlink="http://www.w3.org/1999/xlink">
    <title>452E9F39-FDD7-47B2-886E-A2B3064E3D1B</title>
    <g id="Symbols" stroke="none" stroke-width="1" fill="currentColor" fill-rule="evenodd">
        <g id="Icons/general/cloud-off-16px" fill="currentColor">
            <path d="M2.50517886,7.8079648 L2.5,8 L2.5,9 C2.5,10.3254834 3.53153594,11.4100387 4.83562431,11.4946823 L5,11.5 L9.439,11.5 L3.49487163,5.555753 C2.9210055,6.14382276 2.55248121,6.93318672 2.50517886,7.8079648 Z M6,3 C8.05049747,3 9.81270639,4.23431003 10.5841577,6.00046106 L11.5,6 C13.4329966,6 15,7.56700338 15,9.5 C15,10.4511417 14.6205992,11.3136697 14.004881,11.9445005 L12.9443057,10.8834712 C13.2885097,10.524228 13.5,10.0368121 13.5,9.5 C13.5,8.4456382 12.6841222,7.58183488 11.6499191,7.50548557 L11.5007551,7.5 L9.6027191,7.50095534 L9.20956765,6.60087934 C8.73885311,5.52323137 7.7616343,4.75770056 6.61440429,4.55399183 L5.13548076,3.07446587 C5.41630169,3.025518 5.70517082,3 6,3 Z M1.06057901,3.12123918 C0.767685786,2.82834596 0.767685786,2.35347222 1.06057901,2.06057901 C1.32684557,1.79431244 1.74350925,1.77010639 2.03712074,1.98796085 L2.12123918,2.06057901 L13.939421,13.8787608 C14.2323142,14.171654 14.2323142,14.6465278 13.939421,14.939421 C13.6731544,15.2056876 13.2564907,15.2298936 12.9628793,15.0120391 L12.8787608,14.939421 L10.939,13 L5,13 C2.790861,13 1,11.209139 1,9 L1,8 C1,6.63471785 1.54720569,5.39724245 2.43426102,4.49492981 L1.06057901,3.12123918 Z" id="Shape"></path>
        </g>
    </g>
</svg>