<?xml version="1.0" encoding="UTF-8"?>
<svg width="16px" height="16px" viewBox="0 0 16 16" version="1.1" xmlns="http://www.w3.org/2000/svg" xmlns:xlink="http://www.w3.org/1999/xlink">
    <title>37899A5D-3D88-4B43-AC8A-EC08E8A86EC6</title>
    <g id="Symbols" stroke="none" stroke-width="1" fill="none" fill-rule="evenodd">
        <g id="Icons/general/download" fill="currentColor">
            <path d="M13.3,8.95 C13.6796958,8.95 13.993491,9.23215388 14.0431534,9.59822944 L14.05,9.7 L14.05,12.1 C14.05,13.1280028 13.2545192,13.970211 12.2455308,14.0446514 L12.1,14.05 L3.7,14.05 C2.67199725,14.05 1.82978901,13.2545192 1.75534859,12.2455308 L1.75,12.1 L1.75,9.7 C1.75,9.28578644 2.08578644,8.95 2.5,8.95 C2.87969577,8.95 3.19349096,9.23215388 3.24315338,9.59822944 L3.25,9.7 L3.25,12.1 C3.25,12.3209139 3.40918764,12.5046475 3.61911193,12.5427499 L3.7,12.55 L12.1,12.55 C12.3209139,12.55 12.5046475,12.3908124 12.5427499,12.1808881 L12.55,12.1 L12.55,9.7 C12.55,9.28578644 12.8857864,8.95 13.3,8.95 Z M7.79822944,1.75684662 L7.9,1.75 C8.27969577,1.75 8.59349096,2.03215388 8.64315338,2.39822944 L8.65,2.5 L8.65,7.889 L10.3696699,6.16966991 C10.6359365,5.90340335 11.0526002,5.8791973 11.3462117,6.09705176 L11.4303301,6.16966991 C11.6965966,6.43593648 11.7208027,6.85260016 11.5029482,7.14621165 L11.4303301,7.23033009 L8.43033009,10.2303301 L8.39217855,10.2659302 L8.32005004,10.3215034 L8.22517151,10.3760696 L8.13866466,10.4111871 L8.036298,10.4375819 L7.95141886,10.4482462 L7.84846457,10.4482462 L7.72863298,10.4302653 L7.66071635,10.4110197 L7.60186136,10.3883984 L7.53095468,10.3531392 L7.47967093,10.3212371 L7.44838075,10.2988352 C7.42057056,10.2778288 7.39426976,10.2549299 7.36966991,10.2303301 L4.36966991,7.23033009 C4.0767767,6.93743687 4.0767767,6.46256313 4.36966991,6.16966991 C4.63593648,5.90340335 5.05260016,5.8791973 5.34621165,6.09705176 L5.43033009,6.16966991 L7.15,7.889 L7.15,2.5 C7.15,2.12030423 7.43215388,1.80650904 7.79822944,1.75684662 L7.9,1.75 L7.79822944,1.75684662 Z" id="Shape"></path>
        </g>
    </g>
</svg>