<?xml version="1.0" encoding="UTF-8"?>
<svg width="24px" height="24px" viewBox="0 0 24 24" version="1.1" xmlns="http://www.w3.org/2000/svg" xmlns:xlink="http://www.w3.org/1999/xlink">
    <title>266D5C76-8E7C-4E8A-AA15-C7FD92FB275C</title>
    <g id="Symbols" stroke="none" stroke-width="1" fill="none" fill-rule="evenodd">
        <g id="Icons/general/edit-24px" fill="#2A2A2A">
            <path d="M9,3.74234113 C9,2.08548688 10.3431458,0.742341131 12,0.742341131 C13.6568542,0.742341131 15,2.08548688 15,3.74234113 L15,7.49234113 L14.999,7.49134113 L14.999,18.7423411 L12.6708204,23.4007003 C12.4855785,23.7711842 12.0350737,23.9213525 11.6645898,23.7361105 C11.5194443,23.6635378 11.4017524,23.5458459 11.3291796,23.4007003 L9,18.7423411 L9,3.74234113 Z M12.999,7.49134113 L10.999,7.49134113 L11,18.2713411 L11.999,20.2683411 L13,18.2653411 L12.999,7.49134113 Z M12,2.74234113 C11.4871642,2.74234113 11.0644928,3.12838132 11.0067277,3.62572001 L11,3.74234113 L11,5.24234113 L13,5.24234113 L13,3.74234113 C13,3.22950529 12.6139598,2.80683397 12.1166211,2.74906886 L12,2.74234113 Z" id="Combined-Shape" transform="translate(12.000000, 12.278898) rotate(-315.000000) translate(-12.000000, -12.278898) "></path>
        </g>
    </g>
</svg>