<?xml version="1.0" encoding="UTF-8"?>
<svg width="85px" height="52px" viewBox="0 0 85 52" version="1.1" xmlns="http://www.w3.org/2000/svg" xmlns:xlink="http://www.w3.org/1999/xlink">
    <title>172411D7-97C5-4744-B071-4D48F3D5CA15</title>
    <defs>
        <linearGradient x1="64.2281242%" y1="77.3200614%" x2="3.86183474%" y2="-19.7618408%" id="linearGradient-1">
            <stop stop-color="#808080" offset="1.196%"></stop>
            <stop stop-color="#F7F7F7" offset="99.972%"></stop>
        </linearGradient>
        <linearGradient x1="-20.4378371%" y1="5.40113677%" x2="86.612572%" y2="66.793391%" id="linearGradient-2">
            <stop stop-color="#FFFFFF" offset="0%"></stop>
            <stop stop-color="#BABABA" offset="100%"></stop>
        </linearGradient>
        <linearGradient x1="107.42439%" y1="98.1190248%" x2="-80.6384286%" y2="-59.4690654%" id="linearGradient-3">
            <stop stop-color="#808080" offset="28.281%"></stop>
            <stop stop-color="#F7F7F7" offset="88.02%"></stop>
        </linearGradient>
        <linearGradient x1="60.2228881%" y1="81.562454%" x2="-119.18961%" y2="-271.050219%" id="linearGradient-4">
            <stop stop-color="#808080" offset="28.281%"></stop>
            <stop stop-color="#F7F7F7" offset="88.02%"></stop>
        </linearGradient>
        <linearGradient x1="76.2257251%" y1="122.671147%" x2="-35.1090659%" y2="-185.845746%" id="linearGradient-5">
            <stop stop-color="#808080" offset="28.281%"></stop>
            <stop stop-color="#F7F7F7" offset="88.02%"></stop>
        </linearGradient>
        <linearGradient x1="8.16693425%" y1="21.6777787%" x2="78.1533211%" y2="69.0606365%" id="linearGradient-6">
            <stop stop-color="#F7F7F7" offset="0%"></stop>
            <stop stop-color="#BABABA" offset="100%"></stop>
        </linearGradient>
        <linearGradient x1="86.9867454%" y1="68.8980545%" x2="23.6543153%" y2="27.7617155%" id="linearGradient-7">
            <stop stop-color="#808080" offset="28.281%"></stop>
            <stop stop-color="#F7F7F7" offset="88.02%"></stop>
        </linearGradient>
        <linearGradient x1="38.3329294%" y1="36.1629271%" x2="65.7780769%" y2="59.8000944%" id="linearGradient-8">
            <stop stop-color="#FFFFFF" offset="0%"></stop>
            <stop stop-color="#BABABA" offset="100%"></stop>
        </linearGradient>
    </defs>
    <g id="Mobile" stroke="none" stroke-width="1" fill="none" fill-rule="evenodd">
        <g id="Hub-/-Expired" transform="translate(-166.000000, -273.000000)">
            <g id="Group-2" transform="translate(63.000000, 273.000000)">
                <g id="Empty-viewer" transform="translate(103.078125, 0.000000)">
                    <ellipse id="Oval" fill="#EEEEEE" fill-rule="nonzero" cx="42.265625" cy="29.34375" rx="42.265625" ry="22.03125"></ellipse>
                    <g id="Empty-locked" transform="translate(11.000000, 0.000000)">
                        <g id="Group" transform="translate(35.390177, 0.000000)">
                            <polygon id="Path" fill="#C1C1C1" fill-rule="nonzero" points="3.98757639 6.07581456 3.93715249 8.58266586 0.0586007466 6.25419452 1.99923943 4.88298363"></polygon>
                            <polygon id="Path" fill="#979797" fill-rule="nonzero" points="3.93715249 8.58266586 3.87855174 14.7074986 0 12.3790273 0.0586007466 6.25419452"></polygon>
                            <path d="M29.7833525,3.97188411 L30.4023263,4.51339668 C30.5710964,4.66104354 30.7498423,4.79759273 30.9087594,4.9564326 C35.1819803,8.69474567 34.3723497,13.7444375 28.5688861,16.8998838 L27.6374068,14.9276822 C32.9595811,12.0349582 33.702148,7.40015646 29.7833525,3.97188411 Z" id="Path"></path>
                            <path d="M24.9839513,5.78033018 C20.1841079,3.26807699 14.4790688,3.1669368 9.59305125,5.50747692 L3.93769761,8.58239352 L3.87855174,14.7072944 L9.53390538,11.6323778 C14.4199258,9.29187251 20.1249443,9.39301243 24.9247918,11.905231 C26.6479336,12.7100795 27.8065506,14.3766471 27.9599289,16.2710059 L28.0191429,10.1461731 C27.8658109,8.25176521 26.707157,6.58514861 24.9839513,5.78033018 Z" id="Path" fill="url(#linearGradient-1)" fill-rule="nonzero"></path>
                            <path d="M28.0451181,2.71845846 C22.2663213,-0.752053167 12.675764,-0.923434103 6.67313958,2.34147759 L1.99962101,4.88257512 L3.98795797,6.07637285 L3.93769761,8.58239352 L9.59305125,5.50747692 C14.4790688,3.1669368 20.1841079,3.26807699 24.9839513,5.78033018 C28.4071889,7.83548528 28.8872244,10.8622801 26.5536337,13.182132 C26.2719004,13.3729578 25.9725323,13.5578738 25.6489744,13.7338981 L20.9754695,16.2749956 L22.9638064,17.4687116 L27.6373114,14.9276958 C33.6422798,11.6638734 33.8173325,6.18250212 28.0451181,2.71845846 Z" id="Path" fill="url(#linearGradient-2)" fill-rule="nonzero"></path>
                            <polygon id="Path" fill="#979797" fill-rule="nonzero" points="22.9128919 19.9744736 22.8542912 26.0993063 18.9757394 23.770835 19.0343402 17.6460022"></polygon>
                            <path d="M28.019252,15.9324652 L22.9135461,19.9747459 L22.8542912,26.0997148 L28.5096448,23.0247982 C31.8407157,21.213588 33.526591,18.778361 33.5503039,16.3252007 L33.6095724,10.2002181 C32.4851058,12.875727 31.3503228,14.121323 28.019252,15.9324652 Z" id="Path" fill="url(#linearGradient-3)" fill-rule="nonzero"></path>
                            <polygon id="Path" fill="#C1C1C1" fill-rule="nonzero" points="22.9633158 17.4689839 22.9128919 19.9744736 19.0343402 17.6460022 20.9749789 16.2747913"></polygon>
                            <path d="M30.9088139,4.95637813 L29.7833116,3.97188411 C33.7021343,7.40018369 32.9595947,12.0349855 27.6373659,14.927723 L22.963861,17.4687116 L22.9135461,19.9747459 L28.5688997,16.8998021 C34.3723088,13.7443694 35.1819803,8.69475929 30.9088139,4.95637813 Z" id="Path" fill="#818181" fill-rule="nonzero"></path>
                        </g>
                        <g id="Group" transform="translate(0.059115, 3.186070)">
                            <path d="M39.9128223,15.6303907 L39.8535946,21.7553188 C39.7886743,20.9706983 39.3076657,20.2811082 38.593406,19.9486702 C36.6067387,18.9059877 34.2436873,18.8630412 32.220384,19.8328457 C31.4572803,20.1439937 30.9258242,20.8475052 30.8355121,21.6660608 L30.8947398,15.5411327 C30.9850576,14.7225794 31.5165117,14.0190705 32.2796117,13.7079176 C34.3029164,12.7380976 36.6659791,12.7810443 38.6526473,13.8237421 C39.3669017,14.1561839 39.8479046,14.8457732 39.9128223,15.6303907" id="Path" fill="url(#linearGradient-4)" fill-rule="nonzero"></path>
                            <path d="M40.291424,16.0841703 L39.1465698,17.0469864 C40.3085817,16.0698863 40.1529763,14.7245201 38.6525928,13.8237421 C36.6659245,12.7810443 34.3028619,12.7380976 32.2795572,13.7079176 C31.1573801,14.3180725 30.7119736,15.1829974 30.9622805,16.0005087 L29.4941547,14.266138 C29.3073682,13.6573449 29.8883196,12.5291392 31.3481051,11.735716 C33.9828784,10.4720216 37.0604978,10.5274106 39.6480151,11.8850922 C41.6023636,13.0585873 41.8050268,14.811259 40.2914376,16.0841703" id="Path" fill="#B3B3B3" fill-rule="nonzero"></path>
                            <polygon id="Path" fill="url(#linearGradient-5)" fill-rule="nonzero" points="30.9618989 15.9999913 30.9032982 22.1248241 19.9981081 27.0432091 20.0567088 20.9183764"></polygon>
                            <polygon id="Path" fill="#B3B3B3" fill-rule="nonzero" points="29.4941547 14.2665738 30.9618989 15.9999913 20.0567088 20.9183764 18.053381 19.4246143"></polygon>
                            <path d="M1.7806078,14.4091416 L1.89508367,14.3128708 L1.95232161,14.2647491 L2.06679749,14.168492 L2.12403543,14.1203566 L2.41022512,13.8796799 C2.58185717,13.7353419 2.76601342,13.6055875 2.92527117,13.4464753 C0.578256757,15.4205832 0.891116604,18.1478223 3.919317,19.9651601 L2.92390836,21.9038099 C-0.558488702,19.8131967 -0.918270031,16.6792513 1.7806078,14.4091416 Z" id="Path"></path>
                            <path d="M63.8999613,13.713732 L63.8407337,19.838701 C67.1718045,18.0274907 68.8576799,15.5922637 68.8813927,13.1391034 L68.940634,7.01414809 C68.9169075,9.467322 67.2310322,11.9026171 63.8999613,13.713732 Z" id="Path" fill="#B3B3B3" fill-rule="nonzero"></path>
                            <path d="M57.4548876,13.5398592 C60.938593,15.6305541 60.8285599,18.9256134 57.2093233,20.8926815 L36.6114061,32.0920975 C32.5280818,34.0519197 27.7580915,33.9688987 23.7455577,31.8681694 L3.91918072,19.965201 C0.435420845,17.8744652 0.545440339,14.5794876 4.1647451,12.6123787 L24.7626214,1.41290817 C28.8459486,-0.54690098 33.6159326,-0.463880133 37.6284698,1.6368363 L57.4548876,13.5398592 Z M25.3989164,23.8350931 L34.9751915,17.5563906 C36.5368913,17.6608589 38.0975811,17.3384049 39.4897385,16.6236403 C41.8263138,15.3529895 41.8970572,13.2355239 39.6480014,11.885065 C37.0604842,10.5273833 33.9828647,10.4719944 31.3480915,11.7356888 C29.888306,12.529112 29.3073546,13.6573177 29.494141,14.2661108 L18.0532174,19.4250228 L25.3989164,23.8350931" id="Shape" fill="url(#linearGradient-6)" fill-rule="nonzero"></path>
                        </g>
                        <path d="M58.1999039,26.0509395 L37.602014,37.2503828 C32.9071994,39.5040451 27.4226565,39.4085822 22.8092504,36.9929029 L2.98288703,25.0898527 C1.32438374,24.3164581 0.208389466,22.7137519 0.0592276383,20.8911151 L0,27.0159479 C0.149121501,28.8386197 1.26513117,30.4413666 2.92367302,31.2147536 L22.7500091,43.1177357 C27.3634081,45.5334472 32.8479683,45.6289054 37.5427727,43.375202 L58.1406081,32.1757587 C60.258589,31.0241866 61.3315278,29.4782723 61.3465732,27.9205113 L61.4058008,21.7955288 C60.8289154,23.5246857 59.7033779,25.0186902 58.1999039,26.0509395 L58.1999039,26.0509395 Z" id="Path" fill="url(#linearGradient-7)" fill-rule="nonzero"></path>
                        <path d="M59.6901481,18.4679526 L58.5644687,17.4832543 C60.927169,19.5498748 60.4755072,22.3356524 57.2684382,24.0787243 L36.6705483,35.2781676 C32.5871947,37.237965 27.8171919,37.154924 23.8046454,35.054185 L3.97829566,23.151271 C0.950136152,21.3338923 0.637235421,18.6067213 2.98422258,16.6325998 L1.83976363,17.5953069 C-0.859236854,19.8653758 -0.499319245,22.9993076 2.98288703,25.0899889 L22.8092367,36.9930391 C27.4226429,39.4087184 32.9071858,39.5041813 37.6020004,37.250519 L58.1999039,26.0509395 C61.887826,24.0457308 62.4071104,20.8444912 59.6901481,18.4679526 Z" id="Path" fill="url(#linearGradient-8)" fill-rule="nonzero"></path>
                    </g>
                </g>
            </g>
        </g>
    </g>
</svg>