<?xml version="1.0" encoding="UTF-8"?>
<svg width="96px" height="96px" viewBox="0 0 96 96" version="1.1" xmlns="http://www.w3.org/2000/svg" xmlns:xlink="http://www.w3.org/1999/xlink">
    <title>2381678C-9C01-4F4D-8318-5F0B7067E5FE</title>
    <defs>
        <linearGradient x1="66.4985447%" y1="89.352397%" x2="8.87811211%" y2="-30.9852792%" id="linearGradient-1">
            <stop stop-color="#808080" offset="38.508%"></stop>
            <stop stop-color="#F7F7F7" offset="95.272%"></stop>
        </linearGradient>
        <linearGradient x1="50.0001829%" y1="69.2486758%" x2="50.0001829%" y2="-68.8691977%" id="linearGradient-2">
            <stop stop-color="#808080" offset="23.198%"></stop>
            <stop stop-color="#F7F7F7" offset="89.321%"></stop>
        </linearGradient>
        <linearGradient x1="-15.014306%" y1="15.9412204%" x2="116.842022%" y2="66.7841473%" id="linearGradient-3">
            <stop stop-color="#FFFFFF" offset="0%"></stop>
            <stop stop-color="#BABABA" offset="99.972%"></stop>
        </linearGradient>
        <linearGradient x1="-4.54420566%" y1="-26.0488425%" x2="175.117799%" y2="188.037296%" id="linearGradient-4">
            <stop stop-color="#808080" offset="1.196%"></stop>
            <stop stop-color="#F7F7F7" offset="99.972%"></stop>
        </linearGradient>
    </defs>
    <g id="Mobile" stroke="none" stroke-width="1" fill="none" fill-rule="evenodd">
        <g id="Issues-/-Empty" transform="translate(-161.000000, -234.000000)">
            <g id="Group-2" transform="translate(63.000000, 234.000000)">
                <g id="Empty-issues" transform="translate(98.000000, 0.000000)">
                    <g transform="translate(4.500000, 28.500000)" fill-rule="nonzero">
                        <ellipse id="Oval" fill="#F5F5F5" cx="43.5" cy="27.947025" rx="43.500045" ry="22.66434"></ellipse>
                        <path d="M60.257415,9.91635 C60.2563159,9.85837505 60.2504601,9.80058492 60.239775,9.743595 C60.2306653,9.69973802 60.2188884,9.65647766 60.20451,9.614055 L60.19812,9.590745 L60.19347,9.57357 C60.1721039,9.51459018 60.1462534,9.45733284 60.116145,9.4023 C60.09672,9.366615 60.07092,9.331935 60.04743,9.296835 L60.0198,9.25443 L59.998305,9.22143 C59.9437954,9.15044354 59.8838767,9.08377971 59.819085,9.022035 C59.80821,9.01167 59.792085,9.0027 59.78082,8.99241 C59.73171,8.94753 59.671125,8.906205 59.61432,8.86341 C59.562045,8.824005 59.519475,8.781765 59.460645,8.74434 C59.427205,8.7231 59.392705,8.702215 59.357145,8.681685 C59.1369837,8.55647777 58.9037154,8.45587255 58.66155,8.381685 C58.60935,8.365335 58.552755,8.356455 58.499325,8.342025 C58.453515,8.32965 58.408875,8.319525 58.36233,8.3085 C58.28457,8.290155 58.209975,8.26617 58.130235,8.25174 C58.004235,8.228835 57.876,8.210745 57.746625,8.19756 C57.635355,8.18619 57.523355,8.17839 57.410625,8.17416 L57.40341,8.17407 L57.399585,8.17407 C57.29985,8.17060101 57.19986,8.16957 57.09996,8.17167 C56.99964,8.17374 56.899565,8.17866 56.799735,8.18643 C56.699905,8.1942 56.60083,8.204825 56.50251,8.218305 C56.456295,8.224695 56.41116,8.233815 56.36535,8.24145 L56.321295,8.24895 C56.28096,8.256 56.23989,8.2614 56.199975,8.26944 C56.091105,8.29144 55.98426,8.317055 55.87944,8.346285 C55.75323,8.38155 55.63044,8.422125 55.512255,8.46801 C55.463955,8.48676 55.416455,8.50634 55.369755,8.52675 L55.06689,8.68875 L47.01081,13.370355 C46.5182075,13.5926406 46.183142,14.0625905 46.133565,14.600745 L46.115895,20.827995 C46.1654729,20.2898372 46.5005372,19.8198832 46.99314,19.59759 L55.049175,14.916 L55.352175,14.754105 C55.6574336,14.6239525 55.9771039,14.5306104 56.304435,14.47605 L56.346825,14.46891 C56.6884272,14.4122048 57.0348199,14.3895936 57.380895,14.40141 L57.38646,14.40141 C57.7094503,14.414908 58.0303518,14.4599014 58.3446,14.53575 C58.390575,14.546625 58.436625,14.55708 58.481775,14.569275 C58.7810602,14.6452536 59.0693338,14.7593995 59.339505,14.908905 C59.4282482,14.9635005 59.5134209,15.0236976 59.594505,15.08913 C59.65218,15.13245 59.71392,15.17463 59.763615,15.220065 C59.8516894,15.2989121 59.9315382,15.3864905 60.001935,15.481455 L60.03006,15.524595 C60.0925693,15.615348 60.1430782,15.7138047 60.18033,15.817515 L60.18705,15.84207 C60.2211892,15.9458983 60.2389668,16.0544059 60.239745,16.1637 L60.257415,9.936375 L60.257415,9.91635 Z" id="Path" fill="url(#linearGradient-1)"></path>
                        <path d="M44.910405,24.652575 C44.924325,24.671865 44.93556,24.691575 44.948565,24.711075 C45.0329629,24.833851 45.1011518,24.9670122 45.15144,25.107255 L45.160155,25.13955 C45.2064023,25.2800565 45.2305105,25.4269022 45.231615,25.57482 L45.24948,19.280895 L45.249315,19.25355 C45.2479147,19.1751662 45.2399468,19.0970377 45.225495,19.019985 C45.213272,18.9612654 45.1974726,18.9033475 45.178185,18.846555 L45.16905,18.812835 L45.162765,18.78978 C45.1338676,18.7098884 45.0988746,18.6323352 45.058095,18.557805 C45.032175,18.510255 44.997705,18.46395 44.966505,18.41724 C44.953425,18.39762 44.94228,18.377985 44.92827,18.35853 C44.91753,18.343605 44.910075,18.328095 44.89875,18.313245 C44.8251514,18.217332 44.7441968,18.1272949 44.65662,18.04395 C44.64237,18.030285 44.621235,18.01863 44.606385,18.00504 C44.54022,17.944485 44.458785,17.88897 44.3823,17.831265 C44.3118,17.778015 44.254155,17.720895 44.174805,17.670495 C44.129945,17.642075 44.08371,17.614075 44.0361,17.586495 C43.768705,17.4380991 43.4873791,17.3163294 43.196175,17.22294 C43.16079,17.21094 43.132095,17.19099 43.09629,17.179665 C43.027185,17.157945 42.952125,17.14629 42.88143,17.127 C42.76191,17.094375 42.64293,17.064 42.519705,17.03835 C42.46746,17.027535 42.41874,17.010165 42.365895,17.00061 C42.245385,16.978725 42.122175,16.96413 41.9994,16.94886 C41.96535,16.944675 41.93247,16.93836 41.898255,16.93461 L41.85708,16.92882 C41.70908,16.91373 41.56019,16.90336 41.41041,16.89771 C41.3418,16.89519 41.27304,16.896615 41.204355,16.89603 C41.16996,16.895775 41.136075,16.894935 41.101695,16.89519 C41.06706,16.895445 41.032335,16.8936 40.9977,16.89435 C40.8646,16.89713 40.73187,16.90367 40.59951,16.91397 C40.53963,16.91859 40.480575,16.926885 40.42101,16.933095 C40.388295,16.93653 40.355925,16.93956 40.3233,16.94349 C40.28439,16.94811 40.244895,16.950795 40.206135,16.956075 C40.070355,16.974695 39.93606,16.997395 39.80325,17.024175 C39.75855,17.033175 39.71577,17.04573 39.67158,17.055675 C39.630225,17.06499 39.5898,17.074965 39.54879,17.08512 C39.49179,17.099205 39.433485,17.11062 39.37746,17.126205 C39.22851,17.16789 39.08496,17.217465 38.943705,17.270205 L38.89431,17.28657 L38.882475,17.2905 C38.6684785,17.3729547 38.4612101,17.4719073 38.26254,17.586465 C37.5928764,17.8881471 37.1367985,18.5262026 37.06812,19.257465 L37.05033,25.551375 C37.1188956,24.820066 37.5750172,24.1819574 38.244765,23.880375 C38.4473632,23.7637781 38.6588621,23.6633804 38.877285,23.58012 L38.921985,23.565285 C39.1214837,23.4913294 39.3251181,23.4290491 39.531855,23.37876 C39.572025,23.36886 39.61212,23.358885 39.65271,23.34975 C39.868234,23.3010409 40.086129,23.2634909 40.305525,23.23725 C40.337985,23.233305 40.37061,23.2302 40.40322,23.226855 C40.62807,23.203455 40.855605,23.190375 41.08347,23.18895 C41.118105,23.188695 41.15265,23.18961 41.1873,23.189865 C41.41944,23.1918 41.651325,23.20353 41.8803,23.228355 C41.91444,23.232045 41.94756,23.238345 41.981445,23.24262 C42.15774,23.26443 42.33033,23.29662 42.50142,23.33202 C42.62478,23.357595 42.74514,23.388465 42.864735,23.42109 C42.970905,23.45009 43.075205,23.481875 43.177635,23.516445 C43.4690452,23.6099554 43.7505866,23.7318081 44.01822,23.880255 C44.1390736,23.954476 44.254996,24.0364424 44.36526,24.12564 C44.440995,24.18285 44.522265,24.238275 44.58801,24.298335 C44.7072245,24.4051617 44.815247,24.5238544 44.910405,24.652575 L44.910405,24.652575 Z" id="Path" fill="url(#linearGradient-2)"></path>
                        <path d="M64.938615,0.641595 C66.3686694,0.391866087 67.8311856,0.391866087 69.26124,0.641595 C70.3525265,0.815850485 71.4050701,1.17906015 72.37158,1.714905 C74.258415,2.804415 75.07584,4.44606 74.26368,6.02544 L59.474385,34.58592 C59.041449,35.3500512 58.4002955,35.9754322 57.62562,36.389205 C54.311511,38.0757114 50.390739,38.0757114 47.07663,36.389205 L12.59643,16.48209 C11.8179216,16.0653177 11.1678365,15.4440933 10.716165,14.6853 C9.516255,12.40206 11.7312,9.99549 15.669165,9.29496 L64.938615,0.641595 Z M58.88499,11.43531 C59.3760742,11.2657227 59.7045076,10.8020755 59.7015948,10.2825421 C59.6986431,9.76300871 59.3649972,9.30309835 58.87203,9.139065 C57.7252615,8.56396964 56.3860451,8.51195428 55.198125,8.99637 L54.91902,9.145545 L47.496285,13.45917 C47.0098002,13.6295242 46.6851307,14.0899527 46.6880101,14.6053938 C46.6909279,15.120835 47.0207551,15.5775829 47.509125,15.742455 C48.6494597,16.3255285 49.9879266,16.3800407 51.1719,15.89163 L51.462255,15.748935 L58.88499,11.43531 M38.523765,20.96418 C40.1847565,21.8074625 42.1484585,21.8074625 43.80945,20.96418 C45.260505,20.12091 45.241605,18.752235 43.781055,17.908995 C42.1279503,17.0657438 40.1708697,17.0657438 38.517765,17.908995 C37.8651279,18.1337227 37.4275394,18.748481 37.4288919,19.4387243 C37.4302506,20.1289676 37.8702503,20.7420025 38.523765,20.964165" id="Shape" fill="url(#linearGradient-3)"></path>
                        <path d="M74.57652,4.7952 L74.57652,4.79436 C74.57652,4.998195 74.103435,5.077095 74.05176,5.282685 C73.9971912,5.49643813 73.9183382,5.70324375 73.81674,5.899065 L59.38554,34.031715 C58.9526114,34.7958466 58.3114624,35.4212283 57.53679,35.835 C57.1678128,36.047258 56.7826092,36.2299689 56.38479,36.38142 C56.354595,36.39312 56.321565,36.40107 56.29113,36.412455 C55.9300847,36.5457221 55.561683,36.6581423 55.187745,36.74916 C55.11411,36.76728 55.04064,36.78555 54.966255,36.802305 C54.5726256,36.8909004 54.1747135,36.9592601 53.774085,37.007115 C53.714085,37.014225 53.65383,37.02027 53.593575,37.026465 C53.182095,37.069275 52.765965,37.0929 52.348905,37.095465 C52.286505,37.095915 52.224195,37.09446 52.16181,37.093965 C51.736575,37.09044 51.3114,37.068885 50.891745,37.02354 C50.83035,37.016895 50.77056,37.005345 50.709405,36.997785 C50.385615,36.95787 50.068635,36.89907 49.754475,36.83409 C49.52955,36.787455 49.310205,36.731175 49.092225,36.671775 C48.83985,36.602895 48.589005,36.53163 48.348405,36.445545 C48.243735,36.408045 48.139065,36.370845 48.037005,36.330045 C47.6759059,36.1902485 47.3252579,36.0248272 46.98774,35.835045 L12.703275,16.31166 C12.57438,16.23726 12.460845,16.1553 12.34203,16.07586 C12.0704978,15.8994647 11.8146534,15.7000235 11.57733,15.479745 L11.55417,15.454245 C11.4045701,15.3097794 11.2654999,15.1547936 11.138025,14.990475 C11.0208937,14.8402804 10.9155784,14.6812343 10.823025,14.514765 C10.7309645,14.3356228 10.657892,14.1473437 10.605,13.953 C10.592475,13.908975 10.57917,13.864935 10.569075,13.821 C10.524735,13.62849 10.389585,13.606635 10.390125,13.416105 L10.37388,19.15395 C10.37388,19.1697 10.37388,19.18545 10.37388,19.20135 C10.376554,19.3427481 10.3908244,19.4836955 10.41684,19.6227 C10.4235,19.658175 10.43772,19.6938 10.445895,19.7292 C10.45599,19.77324 10.46937,19.817115 10.481895,19.8612 C10.498785,19.920615 10.50912,19.980015 10.53045,20.039415 C10.577243,20.1689502 10.6328273,20.2951388 10.696815,20.4171 L10.699815,20.42292 C10.7875132,20.5821803 10.8869744,20.7346737 10.99737,20.87913 L11.0148,20.89854 C11.1409129,21.0607789 11.278314,21.213919 11.42598,21.35682 L11.453115,21.38709 L11.454345,21.38808 C11.69155,21.6082534 11.9472915,21.8075711 12.21873,21.98382 C12.25299,22.006755 12.277065,22.034205 12.312165,22.056675 C12.398935,22.112345 12.488235,22.16668 12.580065,22.21968 L47.060265,42.126825 C47.3977435,42.3166334 47.7483685,42.4820556 48.109455,42.621825 C48.21198,42.66273 48.316035,42.699735 48.42123,42.737325 C48.53859,42.779325 48.650055,42.828825 48.7704,42.86676 C48.89724,42.90675 49.03509,42.92808 49.1649,42.96348 C49.383255,43.02303 49.60077,43.07898 49.82616,43.12572 C49.92105,43.14537 50.009655,43.176855 50.10561,43.19421 C50.32839,43.234515 50.555925,43.26171 50.782995,43.289715 C50.843925,43.297215 50.902995,43.308675 50.964195,43.315215 C50.988735,43.317885 51.01251,43.32294 51.03714,43.32546 C51.308475,43.35321 51.581955,43.37217 51.85614,43.38246 C51.982065,43.3872 52.108215,43.38453 52.234365,43.385595 C52.297065,43.38606 52.358865,43.387515 52.421535,43.387095 C52.485375,43.38672 52.54914,43.390005 52.612965,43.3890082 C52.857015,43.38358 53.10035,43.37158 53.34297,43.3527 C53.451675,43.34421 53.558715,43.329225 53.66682,43.31799 C53.726925,43.31172 53.786175,43.3059 53.84604,43.29879 C53.91852,43.290225 53.991915,43.28529 54.06393,43.27548 C54.31257,43.24148 54.558345,43.19998 54.801255,43.15098 C54.881775,43.13469 54.958755,43.11198 55.038585,43.0941 C55.113585,43.07727 55.186665,43.059 55.260825,43.04073 C55.366725,43.014585 55.475325,42.99348 55.579425,42.96435 C55.847925,42.88935 56.106645,42.79989 56.361015,42.705015 C56.392665,42.69324 56.42646,42.6849 56.457885,42.672825 L56.482125,42.6648 C56.8712471,42.5149636 57.2481112,42.3350548 57.6093,42.126705 C58.3839938,41.712942 59.0251486,41.087539 59.45805,40.323375 L74.24739,11.76291 C74.4483466,11.3834261 74.5556161,10.9613784 74.560245,10.531995 L74.57652,4.79436 L74.57652,4.7952 Z" id="Path" fill="url(#linearGradient-4)"></path>
                    </g>
                    <rect id="Rectangle" x="0" y="0" width="96" height="96"></rect>
                </g>
            </g>
        </g>
    </g>
</svg>