<?xml version="1.0" encoding="UTF-8"?>
<svg width="96px" height="96px" viewBox="0 0 96 96" version="1.1" xmlns="http://www.w3.org/2000/svg" xmlns:xlink="http://www.w3.org/1999/xlink">
    <title>B9175FC4-0871-47FA-87A9-9B8F2B48EB14</title>
    <defs>
        <linearGradient id="linearGradient-1" x1="12.9490888%" x2="275.53142%"
                        y1="-5.84454163%" y2="365.415726%"
        >
            <stop offset="1.196%" stop-color="#808080"/>
            <stop offset="99.972%" stop-color="#F7F7F7"/>
        </linearGradient>
        <linearGradient id="linearGradient-2" x1="-13.4098965%" x2="120.050479%"
                        y1="34.546782%" y2="67.0727024%"
        >
            <stop offset="0%" stop-color="#FFFFFF"/>
            <stop offset="100%" stop-color="#BABABA"/>
        </linearGradient>
        <linearGradient id="linearGradient-3" x1="235.242508%" x2="-56.1666978%"
                        y1="93.9788439%" y2="28.0261866%"
        >
            <stop offset="28.281%" stop-color="#808080"/>
            <stop offset="88.02%" stop-color="#F7F7F7"/>
        </linearGradient>
    </defs>
    <g id="Empty-States" stroke="none" stroke-width="1" fill="none" fill-rule="evenodd">
    <g transform="translate(-591.000000, -423.000000)">
        <g transform="translate(591.000000, 423.000000)">
            <g fill-rule="nonzero" transform="translate(5.000000, 29.000000)">
                <ellipse cx="43.4500754" cy="28.1756973" fill="#F5F5F5"
                         rx="43.4500754" ry="22.6383146"
                />
                <path d="M74.1477688,15.1759231 L74.0998965,19.8766446 C74.0523142,24.5478308 70.76,28.9294965 65.3020885,31.688735 L65.3499608,26.9880135 C70.8078165,24.228775 74.1001531,19.8470981 74.1477688,15.1759231" fill="#8B8B8B" />
                <path d="M66.4297646,32.5483396 C66.0913439,32.6156599 65.7409039,32.588189 65.4171069,32.4689577 L57.4711069,29.5276885 L57.4233462,34.2284212 L65.3692346,37.1696904 C65.6930394,37.2888933 66.0434786,37.3163371 66.3818923,37.2489942 C66.6286039,37.2042154 66.8596997,37.096884 67.053075,36.9372665 C67.2178697,36.8068487 67.3180832,36.611434 67.3278277,36.4015027 L67.3756888,31.7007365 C67.3714615,32.1066473 66.9624723,32.4411846 66.4297646,32.5483396 Z" fill="url(#linearGradient-1)" />
                <path d="M45.8458546,0.611911154 C57.4451519,-1.72026885 69.6918854,2.81925731 73.2024023,10.7381423 C75.9518254,16.9401269 72.5189838,23.3636938 65.3499608,26.9880135 L67.3148,31.420195 C67.5479154,31.9459873 67.0813388,32.4173488 66.4297423,32.5483396 C66.0913247,32.6156712 65.7408846,32.5882118 65.4170846,32.4689912 L57.4711404,29.5277219 L41.8873658,32.6610046 C30.2880685,34.9931846 18.0446923,30.4612096 14.5308292,22.5347735 C11.0203123,14.6159331 17.5670623,6.29770692 29.1663596,3.96552692 L45.8458546,0.611911154 Z" fill="url(#linearGradient-2)" />
                <path d="M41.8873546,32.6610046 C30.2880796,34.99314 18.0446923,30.4612096 14.5308181,22.5347958 C14.0551957,21.4759308 13.7521158,20.3477644 13.6330785,19.1931035 C13.596531,18.825589 13.5800992,18.4563516 13.5838565,18.0870435 L13.5838565,18.0882704 L13.5837896,18.0870435 L13.5357733,22.7877427 C13.5276494,24.3212344 13.8506911,25.8384225 14.4829569,27.2355285 C17.9967865,35.1619535 30.2402185,39.6939508 41.8394935,37.3617485 L57.4233462,34.2284212 L57.4712073,29.5276662 L41.8873546,32.6610046 Z" fill="url(#linearGradient-3)" />
            </g>
            <rect height="96" id="Rectangle" width="96"
                  x="0" y="0"
            />
        </g>
    </g>
    </g>
</svg>
