<svg width="78" height="44" viewBox="0 0 78 44" fill="none" xmlns="http://www.w3.org/2000/svg">
<g clip-path="url(#clip0_1376_21097-000011)">
<path d="M39 43.9998C60.5391 43.9998 78 35.0233 78 23.9503C78 12.8773 60.5391 3.90088 39 3.90088C17.4609 3.90088 0 12.8773 0 23.9503C0 35.0233 17.4609 43.9998 39 43.9998Z" fill="#EEEEEE"/>
<path fill-rule="evenodd" clip-rule="evenodd" d="M67.7928 15.4186C67.7121 16.0555 67.3893 16.6791 66.7976 17.263L66.4345 17.6212L55.9314 27.9976C54.6 29.3112 52.1121 30.1206 49.409 30.1206L27.5017 30.0676C24.8255 30.0676 22.3376 29.2449 21.0062 27.9312L10.3283 17.5018L9.96519 17.1435C9.33312 16.5199 8.99692 15.8299 8.95657 15.1267C8.92968 14.3438 9.26588 13.5609 9.96519 12.8709L20.8314 2.14958C22.1762 0.822678 24.6373 0.013269 27.3404 0L49.2476 0.053076C51.9238 0.053076 54.4117 0.875754 55.7431 2.18938L66.7842 12.9771C67.5373 13.7334 67.8735 14.5826 67.7928 15.4186Z" fill="url(#paint0_linear_1376_21097-476074)"/>
<path d="M30.9175 16.4535V25.1713H56.254V5.99756L30.9175 16.4535Z" fill="url(#paint1_linear_1376_21097-078987)"/>
<path d="M33.7819 23.0348V17.6211V10.9468H24.0723V22.9021L33.7819 23.0348Z" fill="url(#paint2_linear_1376_21097-767859)"/>
<path fill-rule="evenodd" clip-rule="evenodd" d="M66.7842 12.9771L55.7431 2.18938C54.4117 0.875754 51.9238 0.053076 49.2476 0.053076L27.3404 0C24.6373 0.013269 22.1762 0.822678 20.8314 2.14958L9.96519 12.8709C9.26588 13.5609 8.92968 14.3438 8.95657 15.1267C8.99692 15.8299 9.33312 16.5199 9.96519 17.1435L10.3283 17.5018L21.0062 27.9312C22.3376 29.2449 24.8255 30.0676 27.5017 30.0676L49.409 30.1206C52.1121 30.1206 54.6 29.3112 55.9314 27.9976L66.4345 17.6212L66.7976 17.263C67.3893 16.6791 67.7121 16.0555 67.7928 15.4186C67.8735 14.5826 67.5373 13.7334 66.7842 12.9771ZM52.2197 10.655L52.018 10.7877L35.2076 20.0627C34.4948 20.4608 33.4055 20.5006 32.6255 20.1954L32.3835 20.0627L24.7314 15.8432C23.938 15.4053 23.9111 14.6622 24.6911 14.1978C25.3904 13.7865 26.5335 13.7467 27.3538 14.0651L27.569 14.1846L33.7821 17.6212L49.1804 9.1158C50.0007 8.66466 51.2917 8.67792 52.0717 9.14234C52.7845 9.55368 52.8383 10.2171 52.2197 10.655Z" fill="url(#paint3_linear_1376_21097-230216)"/>
<path d="M67.7927 15.4184V19.837C67.8734 20.6729 67.5507 21.5089 66.7976 22.2519L55.9314 32.9733C54.6 34.2869 52.1121 35.0963 49.409 35.0963L27.5017 35.0432C24.8255 35.0432 22.3376 34.2206 21.0062 32.9069L9.96516 22.1325C9.31965 21.4956 8.98344 20.7923 8.95654 20.1023V15.1265C8.99689 15.8297 9.3331 16.5197 9.96516 17.1434L10.3283 17.5016L21.0062 27.931C22.3376 29.2447 24.8255 30.0674 27.5017 30.0674L49.409 30.1204C52.1121 30.1204 54.6 29.311 55.9314 27.9974L66.4345 17.621L66.7976 17.2628C67.3893 16.6789 67.7121 16.0553 67.7927 15.4184Z" fill="url(#paint4_linear_1376_21097-964239)"/>
</g>
<defs>
<linearGradient id="paint0_linear_1376_21097-476074" x1="8.95657" y1="15.0603" x2="67.8062" y2="15.0603" gradientUnits="userSpaceOnUse">
<stop stop-color="white"/>
<stop offset="1" stop-color="#BABABA"/>
</linearGradient>
<linearGradient id="paint1_linear_1376_21097-078987" x1="38.5019" y1="15.2093" x2="70.1216" y2="20.7401" gradientUnits="userSpaceOnUse">
<stop stop-color="#808080"/>
<stop offset="1" stop-color="#E6E6E6"/>
</linearGradient>
<linearGradient id="paint2_linear_1376_21097-767859" x1="23.4536" y1="16.9842" x2="35.2343" y2="16.9842" gradientUnits="userSpaceOnUse">
<stop offset="0.03" stop-color="#808080"/>
<stop offset="0.3" stop-color="#838383"/>
<stop offset="0.53" stop-color="#8E8E8E"/>
<stop offset="0.75" stop-color="#A0A0A0"/>
<stop offset="0.97" stop-color="#B9B9B9"/>
<stop offset="1" stop-color="#BEBEBE"/>
</linearGradient>
<linearGradient id="paint3_linear_1376_21097-230216" x1="8.95657" y1="-20.6731" x2="67.8062" y2="-20.6731" gradientUnits="userSpaceOnUse">
<stop stop-color="white"/>
<stop offset="1" stop-color="#BABABA"/>
</linearGradient>
<linearGradient id="paint4_linear_1376_21097-964239" x1="66.109" y1="25.118" x2="8.41081" y2="25.118" gradientUnits="userSpaceOnUse">
<stop stop-color="#808080"/>
<stop offset="0.198102" stop-color="#888888"/>
<stop offset="0.641279" stop-color="#999999"/>
<stop offset="0.685469" stop-color="#9B9B9B"/>
<stop offset="0.762811" stop-color="#ADADAD"/>
<stop offset="1" stop-color="#E6E6E6"/>
</linearGradient>
<clipPath id="clip0_1376_21097-000011">
<rect width="78" height="44" fill="white"/>
</clipPath>
</defs>
</svg>