<svg width="78" height="44" viewBox="0 0 78 44" fill="none" xmlns="http://www.w3.org/2000/svg">
<path d="M39 44.0001C60.5391 44.0001 78 35.002 78 23.9024C78 12.8027 60.5391 3.80469 39 3.80469C17.4609 3.80469 0 12.8027 0 23.9024C0 35.002 17.4609 44.0001 39 44.0001Z" fill="#EEEEEE"/>
<path d="M67.1739 22.253V26.895C67.1739 28.7838 64.955 30.4863 61.6467 31.005L30.1374 35.8199C26.1567 36.4318 22.055 35.0884 20.9925 32.8139L12.5336 14.8178C12.3991 14.5385 12.3184 14.2724 12.2915 13.9931V9.07178C12.2915 9.4442 12.3722 9.81663 12.547 10.1891L13.2329 11.6389L20.9791 28.1719C22.055 30.4464 26.1432 31.7898 30.1374 31.1912L61.6332 26.363C63.6774 26.0571 65.2912 25.2856 66.2325 24.3146C66.8377 23.6895 67.1739 22.9845 67.1739 22.253Z" fill="url(#paint0_linear_1387_21145-324556)"/>
<path d="M33.9568 7.6883L27.7437 23.3302L31.7647 25.046L52.8785 15.8285L53.6988 10.4017L47.943 6.3316L40.8154 6.15869L33.9568 7.6883Z" fill="url(#paint1_linear_1387_21145-225229)"/>
<path d="M47.9836 19.4733V12.7563H34.7773V18.5157L47.9836 19.4733Z" fill="url(#paint2_linear_1387_21145-182176)"/>
<path fill-rule="evenodd" clip-rule="evenodd" d="M48.3869 8.31361C44.5676 6.50468 39.0135 6.53128 35.2345 8.36681C34.3738 8.77914 34.2797 9.52399 35.0193 10.0028C35.7455 10.495 37.0366 10.5482 37.8972 10.1225C40.1566 9.01856 43.4917 9.00526 45.7914 10.0826C48.0776 11.1733 48.6693 13.0487 47.1766 14.5118C46.3966 15.2833 44.6617 15.7089 42.2276 15.7887C41.2862 15.8286 40.3179 15.802 39.3766 15.7488L38.5562 15.6823L38.22 15.6424C37.1172 15.5094 36.0414 15.9217 35.8128 16.5469C35.5841 17.172 36.2969 17.7972 37.3997 17.9169C38.61 18.0632 40.439 18.1696 42.4831 18.0898C46.1545 17.9568 49.0997 17.2385 50.7 15.6557C53.1879 13.2083 52.2197 10.0826 48.4004 8.2604L48.3869 8.31361ZM33.93 20.9229L33.6207 20.8298C32.37 20.5239 30.8907 20.7899 30.1914 21.4815C29.4383 22.2264 29.8821 23.1707 31.1866 23.5964L31.4959 23.6895C32.7466 23.9954 34.2259 23.7294 34.9252 23.0377C35.6783 22.2929 35.2345 21.3485 33.93 20.9229ZM49.3417 0.146837C53.3224 -0.465006 57.4241 0.891689 58.5 3.16615L66.9321 21.149C67.9945 23.4235 65.6276 25.7644 61.6469 26.3763L30.151 31.1912C26.1704 31.803 22.0686 30.4464 20.9928 28.1719L12.5607 10.189C11.4983 7.91458 13.8652 5.57362 17.8459 4.96177L49.3417 0.146837Z" fill="url(#paint3_linear_1387_21145-213885)"/>
<defs>
<linearGradient id="paint0_linear_1387_21145-324556" x1="59.4507" y1="22.5196" x2="5.97942" y2="21.1385" gradientUnits="userSpaceOnUse">
<stop stop-color="#808080"/>
<stop offset="0.35" stop-color="#818181"/>
<stop offset="0.47" stop-color="#888888"/>
<stop offset="0.56" stop-color="#949494"/>
<stop offset="0.63" stop-color="#A5A5A5"/>
<stop offset="0.69" stop-color="#BBBBBB"/>
<stop offset="0.74" stop-color="#D5D5D5"/>
<stop offset="1" stop-color="#E6E6E6"/>
</linearGradient>
<linearGradient id="paint1_linear_1387_21145-225229" x1="31.0654" y1="13.2217" x2="73.2613" y2="36.411" gradientUnits="userSpaceOnUse">
<stop offset="0.01" stop-color="#808080"/>
<stop offset="0.45" stop-color="#AEAEAE"/>
<stop offset="1" stop-color="#E6E6E6"/>
</linearGradient>
<linearGradient id="paint2_linear_1387_21145-182176" x1="28.1204" y1="15.2185" x2="48.7244" y2="19.861" gradientUnits="userSpaceOnUse">
<stop offset="0.11" stop-color="#808080"/>
<stop offset="0.51" stop-color="#818181"/>
<stop offset="0.65" stop-color="#888888"/>
<stop offset="0.75" stop-color="#949494"/>
<stop offset="0.84" stop-color="#A5A5A5"/>
<stop offset="0.91" stop-color="#BBBBBB"/>
<stop offset="0.97" stop-color="#D5D5D5"/>
<stop offset="1" stop-color="#E6E6E6"/>
</linearGradient>
<linearGradient id="paint3_linear_1387_21145-213885" x1="12.2917" y1="15.669" x2="67.1876" y2="15.669" gradientUnits="userSpaceOnUse">
<stop stop-color="white"/>
<stop offset="1" stop-color="#BABABA"/>
</linearGradient>
</defs>
</svg>