<?xml version="1.0" encoding="UTF-8"?>
<svg width="96px" height="96px" viewBox="0 0 96 96" version="1.1" xmlns="http://www.w3.org/2000/svg" xmlns:xlink="http://www.w3.org/1999/xlink">
    <title>Empty-attachments</title>
    <defs>
        <linearGradient x1="24.8802721%" y1="27.793527%" x2="78.1288406%" y2="81.683834%" id="linearGradient-1">
            <stop stop-color="#808080" offset="1.196%"></stop>
            <stop stop-color="#F7F7F7" offset="99.972%"></stop>
        </linearGradient>
        <linearGradient x1="34.9401519%" y1="36.1273178%" x2="139.103552%" y2="132.080655%" id="linearGradient-2">
            <stop stop-color="#808080" offset="1.196%"></stop>
            <stop stop-color="#F0F0F0" offset="94.441%"></stop>
            <stop stop-color="#F7F7F7" offset="99.972%"></stop>
        </linearGradient>
        <linearGradient x1="71.7674017%" y1="43.3187699%" x2="-93.9895773%" y2="98.6095745%" id="linearGradient-3">
            <stop stop-color="#808080" offset="1.196%"></stop>
            <stop stop-color="#F7F7F7" offset="99.972%"></stop>
        </linearGradient>
        <linearGradient x1="95.9678082%" y1="51.5007246%" x2="-39.4671808%" y2="44.8064028%" id="linearGradient-4">
            <stop stop-color="#808080" offset="1.196%"></stop>
            <stop stop-color="#F7F7F7" offset="99.972%"></stop>
        </linearGradient>
        <linearGradient x1="-20.5314662%" y1="24.044186%" x2="146.995345%" y2="87.0370122%" id="linearGradient-5">
            <stop stop-color="#FFFFFF" offset="0%"></stop>
            <stop stop-color="#BABABA" offset="99.972%"></stop>
        </linearGradient>
    </defs>
    <g id="Mobile" stroke="none" stroke-width="1" fill="none" fill-rule="evenodd">
        <g id="Issue-attachments-/-Empty" transform="translate(-160.000000, -294.000000)">
            <g id="Group-2" transform="translate(121.000000, 294.000000)">
                <g id="Empty-attachments" transform="translate(39.000000, 0.000000)">
                    <g transform="translate(5.000000, 27.000000)">
                        <ellipse id="Oval" fill="#EEEEEE" cx="43.4500754" cy="29.4091585" rx="43.4500754" ry="22.6383146"></ellipse>
                        <path d="M61.0196138,5.78536808 C60.6872662,5.59386615 60.3434878,5.42292495 59.9902142,5.27350692 C59.9269942,5.24660385 59.8580188,5.22784308 59.7939065,5.20212231 C59.6741588,5.15399346 59.5509869,5.11351615 59.4284396,5.06939154 C59.2607192,5.00903808 59.0988323,4.93982846 58.9263938,4.88690346 C58.7380835,4.82910423 58.5432146,4.78416538 58.3502642,4.73521115 C58.2743512,4.71589269 58.2009031,4.69354038 58.1243542,4.67566077 C58.0792481,4.66512038 58.0361385,4.65059808 57.9908762,4.64053731 C57.6970244,4.57539885 57.3995253,4.52031744 57.0983788,4.47529308 C56.9901865,4.45908654 56.8801315,4.45086615 56.7712365,4.43729192 C56.6878169,4.42690769 56.6055127,4.417215 56.5218477,4.40829192 C56.4171131,4.39713808 56.3134158,4.380675 56.2082796,4.37188577 C55.9026642,4.34649962 55.5964391,4.33125603 55.2896042,4.326155 C55.2124122,4.32488346 55.1352722,4.32423654 55.0581842,4.32423654 C54.8056835,4.32423654 54.5539263,4.33112962 54.3029127,4.34491577 C54.1082112,4.35561231 53.9177369,4.38235923 53.7250319,4.40143231 C53.6040015,4.41341154 53.4834619,4.42150923 53.36348,4.43680115 C53.3008958,4.44470923 53.2363931,4.44646038 53.1741212,4.45531654 C53.0009688,4.47991077 52.8403535,4.53051577 52.6701569,4.56196962 C52.3647312,4.61840808 52.0614581,4.67428885 51.7681677,4.75300154 C51.7042227,4.77016731 51.6343773,4.77642462 51.5711462,4.79467231 C51.3291858,4.86437269 51.1045473,4.95751846 50.8737519,5.04262231 C50.7460292,5.089725 50.6124731,5.12780423 50.4886654,5.17961385 C50.0905083,5.34280856 49.7058841,5.5372428 49.3383915,5.76109731 L49.2996765,5.78535692 L25.0049377,21.0659365 C24.6980842,21.2593554 24.4128469,21.4606935 24.1449762,21.6676085 C24.0559685,21.7364165 23.97981,21.8089835 23.8951858,21.8791523 C23.7250673,22.0200588 23.5549935,22.1607981 23.4021858,22.3068019 C23.3859012,22.3224173 23.3657015,22.3367388 23.3495731,22.3523877 C23.3152527,22.3856708 23.2931346,22.422155 23.2596842,22.4556835 C23.0152858,22.7006589 22.787783,22.9619275 22.5787419,23.2376908 C22.5480912,23.2781681 22.5048254,23.3156115 22.4753681,23.3564012 C22.4550904,23.3844977 22.4430219,23.4141223 22.4233131,23.4422858 C22.2377564,23.7022153 22.0720683,23.9757696 21.9276585,24.2606212 L21.9245354,24.2658077 C21.9175196,24.2800958 21.9144077,24.2949415 21.9074588,24.3092296 C21.7890099,24.5554005 21.688896,24.8099799 21.6079335,25.0708923 C21.5994788,25.0980296 21.5843096,25.1244308 21.5762454,25.1515904 C21.5582877,25.2121892 21.5547742,25.2740485 21.5391254,25.3348815 C21.490456,25.520921 21.4522094,25.7095322 21.4245642,25.899835 C21.4176265,25.9490123 21.4003046,25.9974646 21.3947946,26.04672 C21.3814621,26.1660662 21.3724683,26.2856503 21.3678135,26.4054723 L21.1617685,31.6282385 C21.1722359,31.4589729 21.1911803,31.2903382 21.2185304,31.1229692 C21.2461325,30.9323307 21.2844321,30.7433949 21.3332477,30.5570565 C21.3557562,30.4693985 21.3745169,30.3814281 21.4018215,30.2942496 C21.4829553,30.0325909 21.583335,29.7772927 21.7021388,29.5304454 C21.7096342,29.5149638 21.7140288,29.4990696 21.7216135,29.4836662 C21.8660169,29.1987176 22.0317362,28.9250827 22.2173573,28.6650965 C22.2656535,28.5961212 22.3210881,28.5287408 22.3727862,28.4604904 C22.581824,28.1847245 22.809327,27.9234557 23.0537285,27.6784831 C23.1028054,27.6293058 23.1452904,27.5782992 23.1962188,27.5296015 C23.3490265,27.3836758 23.5191338,27.2427692 23.6892188,27.1019519 C23.7739212,27.0318612 23.8500796,26.9591827 23.939065,26.8904081 C24.2068912,26.6834931 24.4921173,26.4821773 24.7990265,26.2887362 L49.0937319,11.0081342 C49.4727881,10.773964 49.8704619,10.5713667 50.2827319,10.4023912 C50.4066288,10.3505035 50.5410662,10.3121788 50.6688669,10.2650873 C50.9589673,10.1581108 51.2542542,10.0584846 51.5615985,9.97594615 C51.8546546,9.89731154 52.1598462,9.84098462 52.46506,9.78466885 C52.6957662,9.74203885 52.9216762,9.68951538 53.1575019,9.65957846 C53.2770823,9.64440923 53.398425,9.63615538 53.5190427,9.62420962 C53.9597088,9.58070962 54.4037992,9.54701385 54.852195,9.54701385 C55.3412278,9.54919926 55.8298024,9.57726067 56.3158696,9.63108038 C56.3991331,9.63985846 56.4822404,9.64967385 56.5652585,9.66008038 C57.020144,9.71587415 57.4717973,9.79543927 57.918365,9.89844923 C57.9946015,9.91629538 58.0686073,9.93883731 58.1442862,9.95799962 C58.5134785,10.05148 58.8716173,10.1659519 59.2222273,10.2920908 C59.3445181,10.3361485 59.4686604,10.3771054 59.5881627,10.4250781 C60.0099323,10.5901957 60.4194488,10.7850449 60.8136246,11.0081565 C62.2379392,11.6650526 63.242017,12.9876116 63.4919865,14.5360623 C63.4997133,14.6470926 63.5013926,14.7584611 63.4970169,14.8696738 L63.7029615,9.64680731 C63.707341,9.53563176 63.7053361,9.42430019 63.6979312,9.31330731 C63.4480335,7.76483113 62.4439557,6.44223755 61.0196138,5.78536808 Z" id="Path" fill="url(#linearGradient-1)" fill-rule="nonzero"></path>
                        <path d="M56.2425442,10.8824862 C56.2379935,10.8966181 56.2311227,10.9105827 56.2259362,10.9247146 C56.1970475,11.0013315 56.1602333,11.0747206 56.1160931,11.1436869 C56.1067462,11.1584546 56.0993623,11.1735458 56.08919,11.1882354 C56.0300827,11.272786 55.9624315,11.3510296 55.8873054,11.42173 C55.7879514,11.5161567 55.6791581,11.6001251 55.5626392,11.6723123 L33.1141073,25.7769085 C32.9976618,25.8490424 32.8889227,25.9329308 32.7895973,26.0272565 L32.7747515,26.0386669 C32.7115682,26.0996511 32.6537941,26.1660012 32.6020788,26.2369712 L32.5875788,26.2609185 C32.57744,26.2756862 32.5698554,26.2907773 32.5604415,26.3056231 C32.5360808,26.3415593 32.5135907,26.3787287 32.4930612,26.4169831 C32.4771142,26.4519183 32.4630441,26.4876801 32.4509108,26.5241158 C32.4455681,26.5384038 32.4388646,26.5524577 32.43418,26.5668238 L32.4241415,26.5922881 C32.406953,26.6502646 32.3949306,26.709649 32.388215,26.7697458 C32.3855827,26.7933808 32.3837535,26.8171719 32.3828612,26.8408738 L32.1768273,32.06364 C32.1813238,31.9705054 32.1985876,31.8784292 32.228135,31.7899915 C32.23292,31.7753019 32.2399469,31.7608465 32.2453788,31.7461569 C32.2740054,31.6703536 32.3104128,31.597722 32.3540173,31.5294265 C32.3637658,31.5141012 32.3715065,31.4983742 32.3820469,31.483205 C32.4410602,31.3988889 32.5085467,31.320833 32.5834519,31.2502569 C32.6828382,31.1558349 32.7916569,31.0718671 32.9081962,30.9996746 L55.3567281,16.8950785 C55.4731707,16.8229446 55.5819095,16.7390602 55.6812381,16.6447415 L55.6960058,16.63332 C55.7591874,16.5723101 55.8169612,16.5059379 55.8686785,16.4349488 L55.8828885,16.4115258 C55.8933396,16.3963565 55.9010023,16.3809419 55.9106615,16.3656165 C55.9349025,16.3299127 55.9572845,16.2929815 55.9777185,16.2549704 C55.9935523,16.2201833 56.0075437,16.1845867 56.0196346,16.1483285 C56.0250665,16.1337169 56.0319038,16.1195069 56.0367112,16.1048285 L56.0466158,16.0796765 C56.0638539,16.0217082 56.0759029,15.9623217 56.0826204,15.9022188 C56.0852527,15.8785058 56.0870336,15.8547704 56.0879631,15.8310127 L56.29393,10.6082465 C56.2893971,10.7015765 56.272108,10.7938464 56.2425442,10.8824862 L56.2425442,10.8824862 Z" id="Path" fill="url(#linearGradient-2)" fill-rule="nonzero"></path>
                        <path d="M69.1601481,10.3926538 C69.1334087,10.5745714 69.0968186,10.7549041 69.0505392,10.9328569 C69.0260008,11.0290477 69.0038381,11.12564 68.9736669,11.2208046 C68.9042616,11.4352682 68.82175,11.6452666 68.7265981,11.8496138 C68.6998288,11.9079708 68.6805327,11.9677665 68.6516331,12.0255658 C68.5087319,12.307578 68.3448055,12.5784336 68.1612431,12.8358369 C68.1192488,12.8953092 68.0695138,12.9526177 68.0251662,13.0113762 C67.8214357,13.279909 67.6001029,13.5346206 67.3626277,13.7738308 C67.3017165,13.8355338 67.2457577,13.8988431 67.1819354,13.9595869 C67.0268969,14.1069515 66.8571131,14.2492969 66.6852435,14.3908281 C66.6004742,14.4606846 66.5225423,14.5329281 66.43378,14.6012565 C66.1653069,14.8077812 65.8812742,15.0083719 65.5763281,15.2002181 L41.2462538,30.4807865 C40.8672799,30.7158558 40.4694863,30.9191306 40.0569527,31.0885262 C39.9377627,31.1384173 39.8082219,31.1751358 39.6853512,31.2206435 C39.392005,31.3292931 39.0929369,31.4304362 38.7816777,31.5139896 C38.4905623,31.5921446 38.1871777,31.6478358 37.8839158,31.7039842 C37.6528081,31.7467815 37.4264073,31.7994612 37.190035,31.8294762 C37.0716481,31.8444892 36.9512646,31.8527096 36.8318404,31.8645215 C36.3911073,31.9081108 35.9467715,31.9417954 35.4980523,31.9417954 C35.0089111,31.939575 34.5202295,31.9114913 34.0340542,31.8576619 C33.9516719,31.8488876 33.8693937,31.8393324 33.7872196,31.8289965 C33.3320288,31.7732267 32.8800782,31.6936089 32.4332319,31.5904715 C32.3569954,31.5726254 32.2830008,31.5501615 32.2074,31.5309992 C31.8378731,31.4373069 31.479355,31.3228015 31.1284215,31.1965065 C31.0066885,31.1526831 30.8830369,31.1118154 30.7640031,31.0639988 C30.342047,30.898894 29.9323665,30.7039909 29.5380615,30.4807642 C27.709645,29.4268485 26.8090946,28.0115592 26.8637708,26.6261958 L26.657815,31.8489619 C26.6031612,33.2342696 27.5036112,34.6496146 29.3321058,35.7035304 C29.6644992,35.8950114 30.0083097,36.0659518 30.3616058,36.2153915 C30.4247477,36.2421608 30.493645,36.2609773 30.5576681,36.2866758 C30.6775719,36.3348158 30.8008219,36.3754492 30.9235142,36.4195962 C31.0913127,36.4799496 31.2531327,36.5492373 31.4254373,36.6020842 C31.6135915,36.6598835 31.8082931,36.7048223 32.0012435,36.7536873 C32.0772458,36.7730058 32.150705,36.7953581 32.2272427,36.8132377 C32.2724269,36.8237669 32.3156146,36.8383785 32.360955,36.8484392 C32.654725,36.9135777 32.9521609,36.9686591 33.2532627,37.0136835 C33.361455,37.02989 33.4711977,37.0380323 33.5799254,37.0516065 C33.663345,37.0619796 33.7457273,37.0716835 33.8293923,37.0806065 C33.9341269,37.0917604 34.0379023,37.1083015 34.1429604,37.1170127 C34.4483081,37.1423988 34.7542953,37.1576424 35.0609219,37.1627435 C35.1379504,37.164015 35.2149826,37.1646508 35.2920185,37.1646508 C35.5440954,37.1646508 35.7954547,37.1577614 36.0460965,37.1439827 C36.2407981,37.1332862 36.4311942,37.1065392 36.6238658,37.087455 C36.7447288,37.075565 36.8651123,37.0673781 36.9849269,37.0521754 C37.0468754,37.0442673 37.1107423,37.0425942 37.1723673,37.0338162 C37.345765,37.0092219 37.5063804,36.9585388 37.6767331,36.9270069 C37.9812331,36.8706465 38.2835023,36.8152454 38.5757331,36.7366888 C38.6386296,36.7198465 38.7073485,36.7135335 38.7696315,36.6956538 C39.0151946,36.6250054 39.2433465,36.5308112 39.4773208,36.4441123 C39.6012958,36.3982142 39.7311823,36.3615738 39.8514096,36.3111138 C40.2456406,36.1492118 40.6264874,35.9564668 40.9904069,35.7346719 L41.04022,35.7035415 L65.3702496,20.4229842 C65.6751958,20.2311381 65.9591727,20.0305473 66.2276904,19.8240227 C66.31662,19.7556942 66.3943735,19.6834842 66.4792319,19.6135162 C66.6511127,19.4719738 66.8208296,19.329885 66.9757788,19.1824312 C67.0003173,19.1590081 67.0304327,19.1375704 67.0545696,19.1140246 C67.0932846,19.0763469 67.118905,19.0346762 67.1565046,18.996675 C67.3940928,18.7574813 67.6154988,18.5027409 67.819255,18.2341423 C67.8484669,18.1954273 67.8892677,18.1600585 67.9174088,18.1210981 C67.9320985,18.1007423 67.9408319,18.0789477 67.9552538,18.0586365 C68.1389202,17.8012319 68.3028762,17.5303184 68.4457219,17.2482092 C68.4503508,17.2389515 68.4576119,17.2303631 68.4621627,17.2210719 C68.4859538,17.1727758 68.497855,17.1220815 68.5201627,17.0734619 C68.6154746,16.8687128 68.6981458,16.6583136 68.7677112,16.4434481 C68.7781623,16.4106446 68.7961312,16.3792688 68.8058685,16.3464096 C68.8243838,16.2839481 68.8283769,16.2192558 68.8444273,16.1563369 C68.8907127,15.9778647 68.9273541,15.7970296 68.9541923,15.6146169 C68.961855,15.5613685 68.9802923,15.5097708 68.9862819,15.4563104 L68.9937104,15.2687919 C68.9980158,15.2103569 69.0112665,15.1531154 69.0135865,15.0944462 L69.2196538,9.87152385 C69.2088309,10.0461449 69.1889691,10.220088 69.1601481,10.3926538 L69.1601481,10.3926538 Z" id="Path" fill="url(#linearGradient-3)" fill-rule="nonzero"></path>
                        <path d="M74.4394308,18.8370188 C74.4349562,18.9302616 74.4176922,19.0224475 74.3881231,19.1109908 C74.3834942,19.1252788 74.3766346,19.1393327 74.3713923,19.1535427 C74.3426942,19.2296031 74.3062054,19.3024909 74.2625085,19.3710427 C74.2526931,19.3866581 74.2448631,19.4024965 74.2341665,19.4178888 C74.1747478,19.503116 74.1067806,19.5820523 74.0313227,19.6534692 C73.9323932,19.7476529 73.8242061,19.8316062 73.7084077,19.9040515 L49.4136912,35.1846535 C48.9881942,35.4522454 48.542665,35.7040212 48.0815762,35.9419996 C47.9731608,35.9979585 47.8569377,36.0466562 47.7466931,36.1009419 C47.4025412,36.2704135 47.0536935,36.4355573 46.6922977,36.5884542 C46.5186658,36.6619804 46.33794,36.7280781 46.1604712,36.7976892 C45.8492788,36.919835 45.5354877,37.0394935 45.2130635,37.14966 C45.0126846,37.2181558 44.8080004,37.2815319 44.6035615,37.3453208 C44.3110631,37.4366485 44.0146013,37.5230238 43.7141762,37.6044469 C43.4008535,37.6894615 43.0820877,37.7671369 42.7607788,37.8415442 C42.4888035,37.9044519 42.2161812,37.9664673 41.9388519,38.0216342 C41.6101146,38.0870181 41.275555,38.1433785 40.9397908,38.1976642 C40.67859,38.2399708 40.4176235,38.2821992 40.1525077,38.3176462 C39.3900531,38.4196704 38.6155077,38.5002904 37.8252354,38.5452404 C37.2203735,38.5795608 36.6091204,38.5992027 35.9912419,38.5992027 C35.6165954,38.5992027 35.246745,38.5791258 34.8750654,38.5665554 C34.4605104,38.5525015 34.0469927,38.5345438 33.6369885,38.5050085 C33.3526323,38.4844854 33.0705181,38.4579058 32.7887162,38.4300435 C32.4080912,38.3923658 32.029775,38.3492562 31.65437,38.2984281 C31.3761708,38.2607504 31.0996149,38.2195035 30.8247023,38.1746873 C30.4312281,38.11043 30.0424608,38.0371492 29.6564038,37.9583585 C29.4029438,37.9066269 29.1493277,37.855375 28.8993812,37.7974977 C28.38607,37.6785531 27.8827527,37.5436362 27.3859715,37.3990712 C27.2322158,37.3543665 27.0739204,37.3163654 26.9219715,37.2691846 C26.1710054,37.0361585 25.4467192,36.7678527 24.7426215,36.4768823 C24.5797754,36.40958 24.4209892,36.3379723 24.2609315,36.2676473 C23.5156032,35.946862 22.7884826,35.5853254 22.0828642,35.1846758 C20.6332856,34.3729618 19.3233892,33.333841 18.203155,32.1069615 C16.6727136,30.5164349 15.8271476,28.389094 15.8480985,26.1819269 L15.6421538,31.4048046 C15.5145873,34.6393419 17.61402,37.9453196 21.8768304,40.4074196 C22.5820651,40.8078781 23.3087868,41.1692543 24.0537042,41.4899115 C24.1426338,41.52895 24.2204654,41.5793208 24.3102427,41.6174781 C24.3829658,41.6483742 24.4638312,41.6696892 24.5371231,41.6999385 C25.2412988,41.9908419 25.9649492,42.2589023 26.7159042,42.4919285 C26.742495,42.5001488 26.7663531,42.5118046 26.7930219,42.5199469 C26.9191496,42.5586619 27.0535088,42.5850073 27.1807519,42.6220492 C27.6770981,42.7664581 28.1791773,42.9011296 28.6920088,43.0199962 C28.7821319,43.0409096 28.8670685,43.0698092 28.9576823,43.0899308 C29.1197365,43.1258573 29.2890519,43.1482096 29.452545,43.1815708 C29.837955,43.2602054 30.2254508,43.3332631 30.6182892,43.3973531 C30.7519235,43.4192258 30.8807727,43.4507577 31.0151988,43.4708792 C31.1577004,43.4921942 31.305065,43.5017754 31.4483585,43.5211719 C31.8239531,43.5721004 32.2018677,43.61521 32.5827046,43.6527873 C32.7485846,43.66915 32.9103265,43.6962873 33.0770877,43.710185 C33.1938796,43.7199223 33.3137835,43.7192865 33.4309658,43.7277412 C33.8412935,43.7573658 34.2542535,43.7751673 34.6690427,43.7892992 C34.8584015,43.7956792 35.0444031,43.8142058 35.2346319,43.8173958 C35.417845,43.8204296 35.6013741,43.8219465 35.7852192,43.8219465 C36.384099,43.8219465 36.9771118,43.805766 37.5642577,43.773405 C37.5832192,43.7723677 37.6012996,43.7690215 37.6202946,43.767895 C38.4104442,43.7230342 39.1841531,43.6424923 39.9464515,43.5404681 C40.0246846,43.5300058 40.1073012,43.5281988 40.1852219,43.517045 C40.3714912,43.4905435 40.549395,43.4502223 40.7338015,43.4203635 C41.0697219,43.3659996 41.4038131,43.3098065 41.7327958,43.2443446 C42.0105265,43.1890996 42.2828142,43.1272292 42.5551912,43.0641654 C42.8764219,42.9898473 43.1945519,42.9123392 43.5077965,42.8272354 C43.6274662,42.7947442 43.7535158,42.7707188 43.8719808,42.7367108 C44.0512008,42.6852246 44.2214754,42.6229415 44.3978177,42.5679531 C44.6023458,42.5040862 44.8067065,42.4407992 45.0072415,42.3722923 C45.3297438,42.2620477 45.6432338,42.1426235 45.9545712,42.0203996 C46.1319173,41.9507885 46.3122081,41.8848469 46.48584,41.81141 C46.8503365,41.6570965 47.2019838,41.490815 47.5489242,41.3198154 C47.6560012,41.2670465 47.7689338,41.2197877 47.8743154,41.1654238 C48.3029131,40.9442208 48.7182712,40.7113508 49.1162181,40.4645273 L49.2076796,40.4073638 L73.5023962,25.1268846 C73.6180739,25.0544642 73.7261745,24.9705928 73.8250658,24.8765365 L73.8381604,24.8663977 C73.9021999,24.8046198 73.9607475,24.7373916 74.0131419,24.6654723 L74.0279877,24.6409338 C74.0387735,24.6253742 74.0467485,24.60948 74.0566531,24.593675 C74.0805925,24.5583078 74.1027313,24.5217548 74.122985,24.4841554 C74.1389526,24.4490449 74.1530777,24.4131253 74.1653027,24.3765431 C74.1706454,24.3621769 74.1774381,24.3481231 74.182145,24.3336677 L74.1921835,24.3082035 C74.209361,24.2502627 74.2213796,24.190916 74.2280988,24.1308573 C74.2307312,24.1073115 74.2324935,24.0835985 74.2334527,24.0599746 L74.2334527,24.0598965 L74.4394308,18.8370188 Z" id="Path" fill="url(#linearGradient-4)" fill-rule="nonzero"></path>
                        <path d="M54.8272996,1 C58.2915844,0.947637867 61.7113032,1.78553573 64.7589854,3.43345692 C67.4778915,5.00614923 69.0571535,7.09593385 69.2111546,9.313285 C69.3656465,11.5377077 68.0766635,13.6275927 65.5762165,15.200285 L41.2462427,30.4808088 C39.5004724,31.4858779 37.5118625,31.991343 35.4980523,31.9418846 C33.4190811,31.9730434 31.3669207,31.4699647 29.5380727,30.48082 C26.1705704,28.5397496 25.9506388,25.3731169 29.0480285,23.4248969 L51.4965715,9.32035654 C52.078779,8.98604217 52.7415571,8.81788721 53.4127242,8.834205 C54.1055718,8.82368824 54.7895352,8.991073 55.3992242,9.32035654 C56.5259746,9.97209808 56.5992777,11.0276423 55.5625723,11.6723235 L33.1141073,25.7769085 C32.0774019,26.4216008 32.150705,27.4770892 33.2774554,28.1288308 C33.8879024,28.4594497 34.5730229,28.6277716 35.2671788,28.6176704 C35.9377592,28.6344209 36.5998897,28.4652276 37.1802308,28.1288308 L61.5101712,12.8483069 C62.8496564,12.1789487 63.6964475,10.8107024 63.6979535,9.313285 C63.4480608,7.76480129 62.4439826,6.4421988 61.0196362,5.78532346 C59.1903266,4.79597826 57.1376436,4.29286591 55.0581731,4.32416962 C53.0411565,4.27534542 51.0493903,4.78073277 49.2996654,5.78532346 L25.0049712,21.0659477 C19.8469085,24.3175615 20.2134573,29.5952938 25.8226931,32.8397915 C28.8714519,34.4910412 32.2937259,35.3302526 35.7605246,35.2767508 C39.1193429,35.3585907 42.4360284,34.5155509 45.3480919,32.8397692 L69.6422842,17.5521404 C70.2261028,17.2164537 70.8908351,17.0473887 71.5640919,17.0633565 C72.255528,17.0525008 72.9379907,17.2208954 73.545015,17.5521404 C74.6717654,18.2038819 74.7445777,19.2523658 73.7083631,19.9041073 L49.41368,35.1846535 C45.3395973,37.5378066 40.6945297,38.7194812 35.9912308,38.5992362 C31.1382511,38.6789502 26.347084,37.5027 22.0827638,35.1846535 C14.2328542,30.6507823 13.7192308,23.2549123 20.9388812,18.7139696 L45.2335865,3.43345692 C48.1487453,1.76014637 51.4670213,0.918461664 54.8272996,1 Z" id="Path" fill="url(#linearGradient-5)" fill-rule="nonzero"></path>
                    </g>
                    <rect id="Rectangle" x="0" y="0" width="96" height="96"></rect>
                </g>
            </g>
        </g>
    </g>
</svg>