<svg width="15" height="18" viewBox="0 0 15 18" fill="none" xmlns="http://www.w3.org/2000/svg">
<g clip-path="url(#clip0_1506_22434-034661)">
<path fill-rule="evenodd" clip-rule="evenodd" d="M8.875 0C9.0719 0 9.2609 0.0774301 9.4012 0.215575L14.2762 5.01557C14.4194 5.15655 14.5 5.34907 14.5 5.55V15.15C14.5 16.4505 13.4341 17.5 12.125 17.5H2.375C1.0659 17.5 0 16.4505 0 15.15V2.35C0 1.04951 1.0659 0 2.375 0H8.875ZM8 1.5H2.375C1.88917 1.5 1.5 1.88318 1.5 2.35V15.15C1.5 15.6168 1.88917 16 2.375 16H12.125C12.6108 16 13 15.6168 13 15.15V6.5H8.75C8.3703 6.5 8.05651 6.21785 8.00685 5.85177L8 5.75V1.5ZM10.75 11.5C11.1642 11.5 11.5 11.8358 11.5 12.25C11.5 12.6297 11.2178 12.9435 10.8518 12.9932L10.75 13H3.75C3.33579 13 3 12.6642 3 12.25C3 11.8703 3.28215 11.5565 3.64823 11.5068L3.75 11.5H10.75ZM10.75 8.5C11.1642 8.5 11.5 8.83579 11.5 9.25C11.5 9.6297 11.2178 9.94349 10.8518 9.99315L10.75 10H3.75C3.33579 10 3 9.66421 3 9.25C3 8.8703 3.28215 8.55651 3.64823 8.50685L3.75 8.5H10.75ZM5.75 5.5C6.16421 5.5 6.5 5.83579 6.5 6.25C6.5 6.6297 6.21785 6.94349 5.85177 6.99315L5.75 7H3.75C3.33579 7 3 6.66421 3 6.25C3 5.8703 3.28215 5.55651 3.64823 5.50685L3.75 5.5H5.75ZM9.5 2.418V5H12.122L9.5 2.418Z" fill="#2A2A2A"/>
</g>
<defs>
<clipPath id="clip0_1506_22434-034661">
<rect width="15" height="18" fill="white"/>
</clipPath>
</defs>
</svg>