<?xml version="1.0" encoding="UTF-8"?>
<svg width="16px" height="16px" viewBox="0 0 16 16" version="1.1" xmlns="http://www.w3.org/2000/svg" xmlns:xlink="http://www.w3.org/1999/xlink">
    <title>27A59E9E-BCAC-487B-A0D4-0801AA0C1970</title>
    <g id="Symbols" stroke="none" stroke-width="1" fill="currentColor" fill-rule="evenodd">
        <g id="raw-copy" fill="#2A2A2A" transform="translate(2.000000, 1.000000)">
            <path d="M2.15384615,0.5 L6.19230769,0.5 C6.22089596,0.5 6.24923181,0.502448316 6.2770349,0.507228834 L6.19230769,0.5 L6.24849152,0.503121452 L6.24849152,0.503121452 L6.33194507,0.519880794 L6.33194507,0.519880794 L6.38334426,0.537792237 L6.38334426,0.537792237 L6.46446966,0.580492442 L6.46446966,0.580492442 L6.51584754,0.618775479 L6.51584754,0.618775479 L10.5940168,4.69487539 L10.5940168,4.69487539 L10.6386238,4.74923141 L10.6386238,4.74923141 L10.6680352,4.79578985 L10.6680352,4.79578985 L10.702623,4.87265961 L10.702623,4.87265961 L10.7227136,4.94858591 L10.7227136,4.94858591 L10.7288198,4.99473927 L10.7288198,4.99473927 L10.7307692,5.03846154 L10.7307692,11.3846154 C10.7307692,12.249936 10.0662083,12.9600401 9.21962325,13.0323909 L9.07692308,13.0384615 L2.15384615,13.0384615 C1.28852551,13.0384615 0.578421394,12.3739006 0.506070602,11.5273156 L0.5,11.3846154 L0.5,2.15384615 C0.5,1.28852551 1.16456093,0.578421394 2.01114598,0.506070602 L2.15384615,0.5 Z M5.692,1.5 L2.15384615,1.5 C1.82556501,1.5 1.55378995,1.74193132 1.50708937,2.05722556 L1.5,2.15384615 L1.5,11.3846154 C1.5,11.7128965 1.74193132,11.9846716 2.05722556,12.0313722 L2.15384615,12.0384615 L9.07692308,12.0384615 C9.40520422,12.0384615 9.67697928,11.7965302 9.72367986,11.481236 L9.73076923,11.3846154 L9.73,5.538 L6.19230769,5.53846154 C5.9468478,5.53846154 5.74269932,5.36158638 5.70036336,5.12833717 L5.69230769,5.03846154 L5.692,1.5 Z M9.023,4.538 L6.692,2.207 L6.692,4.538 L9.023,4.538 Z" id="Shape"></path>
        </g>
    </g>
</svg>