<?xml version="1.0" encoding="UTF-8"?>
<svg width="24px" height="24px" viewBox="0 0 24 24" version="1.1" xmlns="http://www.w3.org/2000/svg" xmlns:xlink="http://www.w3.org/1999/xlink">
    <title>E956971C-C0E7-4354-9871-AB36D1253BCF</title>
    <g id="Symbols" stroke="none" stroke-width="1" fill="none" fill-rule="evenodd">
        <g id="Icons/general/filter-24px" fill="currentColor">
            <path d="M19.9427568,4.43512397 C20.0563871,4.70289256 19.999572,5.01528926 19.7836744,5.2161157 L14.1817014,10.7165289 L14.1817014,19.2859504 C14.1817014,19.5760331 13.999893,19.8326446 13.7385433,19.9442149 C13.6476391,19.977686 13.5453719,20 13.4544676,20 C13.2612961,20 13.0794877,19.9330579 12.9431314,19.7880165 L10.0341961,16.9318182 C9.89783975,16.7979339 9.81829855,16.6194215 9.81829855,16.4297521 L9.81829855,10.7165289 L4.21632557,5.2161157 C4.00042803,5.01528926 3.94361289,4.70289256 4.05724317,4.43512397 C4.17087345,4.1785124 4.43222311,4 4.72766184,4 L19.2723382,4 C19.5677769,4 19.8291265,4.1785124 19.9427568,4.43512397 Z" id="filter"></path>
        </g>
    </g>
</svg>