<?xml version="1.0" encoding="UTF-8"?>
<svg width="20px" height="20px" viewBox="0 0 20 20" version="1.1" xmlns="http://www.w3.org/2000/svg" xmlns:xlink="http://www.w3.org/1999/xlink">
    <title>image</title>
    <g id="Mobile" stroke="none" stroke-width="1" fill="currentColor" fill-rule="evenodd">
        <g id="Issue-attachments" transform="translate(-38.000000, -109.000000)" fill="currentColor" fill-rule="nonzero">
            <g id="Group" transform="translate(24.000000, 88.000000)">
                <g id="Rectangle-2" transform="translate(0.000000, 7.000000)">
                    <path d="M31,14.25 C32.5187831,14.25 33.75,15.4812169 33.75,17 L33.75,17 L33.75,31 C33.75,32.5187831 32.5187831,33.75 31,33.75 L31,33.75 L17,33.75 C15.4812169,33.75 14.25,32.5187831 14.25,31 L14.25,31 L14.25,17 C14.25,15.4812169 15.4812169,14.25 17,14.25 L17,14.25 Z M28,23.061 L18.81,32.25 L31,32.25 C31.6472087,32.25 32.1795339,31.7581253 32.2435464,31.1278052 L32.25,31 L32.25,27.311 L28,23.061 Z M31,15.75 L17,15.75 C16.3096441,15.75 15.75,16.3096441 15.75,17 L15.75,17 L15.75,31 C15.75,31.5943533 16.1648157,32.0918212 16.7207289,32.2186857 L27.4696699,21.4696699 C27.7359365,21.2034034 28.1526002,21.1791973 28.4462117,21.3970518 L28.5303301,21.4696699 L32.25,25.189 L32.25,17 C32.25,16.3527913 31.7581253,15.8204661 31.1278052,15.7564536 L31,15.75 Z M20.5,18.25 C21.7426407,18.25 22.75,19.2573593 22.75,20.5 C22.75,21.7426407 21.7426407,22.75 20.5,22.75 C19.2573593,22.75 18.25,21.7426407 18.25,20.5 C18.25,19.2573593 19.2573593,18.25 20.5,18.25 Z M20.5,19.75 C20.0857864,19.75 19.75,20.0857864 19.75,20.5 C19.75,20.9142136 20.0857864,21.25 20.5,21.25 C20.9142136,21.25 21.25,20.9142136 21.25,20.5 C21.25,20.0857864 20.9142136,19.75 20.5,19.75 Z" id="image"></path>
                </g>
            </g>
        </g>
    </g>
</svg>