<svg width="24" height="24" viewBox="0 0 24 24"  xmlns="http://www.w3.org/2000/svg">
<rect width="24" height="24"/>
<path fill-rule="evenodd" clip-rule="evenodd" d="M12 2C17.5228 2 22 6.47715 22 12C22 17.5228 17.5228 22 12 22C6.47715 22 2 17.5228 2 12C2 6.47715 6.47715 2 12 2ZM12 4C7.58172 4 4 7.58172 4 12C4 16.4183 7.58172 20 12 20C16.4183 20 20 16.4183 20 12C20 7.58172 16.4183 4 12 4ZM12 11C12.5128 11 12.9355 11.386 12.9933 11.8834L13 12V16C13 16.5523 12.5523 17 12 17C11.4872 17 11.0645 16.614 11.0067 16.1166L11 16V12C11 11.4477 11.4477 11 12 11ZM12 7C12.8284 7 13.5 7.67157 13.5 8.5C13.5 9.32843 12.8284 10 12 10C11.1716 10 10.5 9.32843 10.5 8.5C10.5 7.67157 11.1716 7 12 7Z" fill="currentColor"/>
</svg>
