<?xml version="1.0" encoding="UTF-8"?>
<svg width="24px" height="24px" viewBox="0 0 24 24" version="1.1" xmlns="http://www.w3.org/2000/svg" xmlns:xlink="http://www.w3.org/1999/xlink">
    <title>068EE52D-47E0-4BA7-9DD5-416A1DC4F0A5</title>
    <g id="Symbols" stroke="none" stroke-width="1" fill="none" fill-rule="evenodd">
        <g id="Icons/menu/issues-default" fill="currentColor">
            <path d="M12.5554167,3.49572023 C12.9039461,3.68211821 13.1894326,3.96760474 13.3758306,4.31613408 L19.8939337,16.5037668 C20.4148528,17.4777879 20.047541,18.6896763 19.0735199,19.2105954 C18.7833506,19.3657817 18.4593733,19.4469742 18.1303125,19.4469742 L5.09410624,19.4469742 C3.98953674,19.4469742 3.09410624,18.5515437 3.09410624,17.4469742 C3.09410624,17.1179134 3.17529873,16.7939361 3.33048501,16.5037668 L9.84858814,4.31613408 C10.3695072,3.34211297 11.5813956,2.97480118 12.5554167,3.49572023 Z M11.1713041,5.02353961 L4.65320094,17.2111723 C4.61440437,17.2837146 4.59410624,17.364709 4.59410624,17.4469742 C4.59410624,17.7231165 4.81796387,17.9469742 5.09410624,17.9469742 L18.1303125,17.9469742 C18.2125777,17.9469742 18.293572,17.926676 18.3661143,17.8878795 C18.6096196,17.7576497 18.7014476,17.4546776 18.5712178,17.2111723 L12.0531147,5.02353961 L11.9985916,4.9419946 C11.9571829,4.89157865 11.9060994,4.84950248 11.8480112,4.81843615 C11.6045059,4.68820639 11.3015338,4.78003433 11.1713041,5.02353961 Z M11.75,14 C12.3022847,14 12.75,14.4477153 12.75,15 C12.75,15.5522847 12.3022847,16 11.75,16 C11.1977153,16 10.75,15.5522847 10.75,15 C10.75,14.4477153 11.1977153,14 11.75,14 Z M11.75,8.2578371 C12.1296958,8.2578371 12.443491,8.53999098 12.4931534,8.90606654 L12.5,9.0078371 L12.5,11.8330498 C12.5,12.2472633 12.1642136,12.5830498 11.75,12.5830498 C11.3703042,12.5830498 11.056509,12.3008959 11.0068466,11.9348203 L11,11.8330498 L11,9.0078371 C11,8.59362354 11.3357864,8.2578371 11.75,8.2578371 Z" id="Mask"></path>
        </g>
    </g>
</svg>