<?xml version="1.0" encoding="UTF-8"?>
<svg width="24px" height="24px" viewBox="0 0 24 24" version="1.1" xmlns="http://www.w3.org/2000/svg" xmlns:xlink="http://www.w3.org/1999/xlink">
    <title>414B389C-9D37-4E43-B0ED-A1BEF8F03214</title>
    <g id="Mobile" stroke="none" stroke-width="1" fill="none" fill-rule="evenodd">
        <g id="DockMenu/Compact" transform="translate(-74.000000, -147.000000)">
            <g id="Group-8" transform="translate(48.000000, 126.000000)">
                <g id="Group" transform="translate(18.500000, 21.000000)">
                    <g id="Icons/menu/issues-default" fill="#2A2A2A">
                        <path d="M18.1479862,4.07834026 C18.5546038,4.29580458 18.8876714,4.62887219 19.1051357,5.03548976 L26.7095893,19.2543946 C27.3173282,20.3907525 26.8887978,21.8046224 25.7524398,22.4123613 C25.413909,22.5934119 25.0359355,22.6881365 24.6520312,22.6881365 L9.44312395,22.6881365 C8.15445953,22.6881365 7.10979062,21.6434676 7.10979062,20.3548032 C7.10979062,19.9708989 7.20451518,19.5929254 7.38556585,19.2543946 L14.9900195,5.03548976 C15.5977584,3.8991318 17.0116282,3.47060137 18.1479862,4.07834026 Z M16.5331881,5.86079621 L8.92873443,20.079701 C8.88347176,20.1643337 8.85979062,20.2588271 8.85979062,20.3548032 C8.85979062,20.6769693 9.12095785,20.9381365 9.44312395,20.9381365 L24.6520312,20.9381365 C24.7480073,20.9381365 24.8425007,20.9144554 24.9271334,20.8691927 C25.2112229,20.717258 25.3183555,20.3637905 25.1664208,20.079701 L17.5619671,5.86079621 L17.4983568,5.76566037 C17.4500467,5.70684176 17.3904493,5.65775289 17.3226797,5.62150884 C17.0385903,5.46957412 16.6851228,5.57670672 16.5331881,5.86079621 Z M17.2083333,16.3333333 C17.8526655,16.3333333 18.375,16.8556678 18.375,17.5 C18.375,18.1443322 17.8526655,18.6666667 17.2083333,18.6666667 C16.5640011,18.6666667 16.0416667,18.1443322 16.0416667,17.5 C16.0416667,16.8556678 16.5640011,16.3333333 17.2083333,16.3333333 Z M17.2083333,9.63414328 C17.6544095,9.63414328 18.0225226,9.96794282 18.0765158,10.3993851 L18.0833333,10.5091433 L18.0833333,13.8052247 C18.0833333,14.2884739 17.6915825,14.6802247 17.2083333,14.6802247 C16.7622572,14.6802247 16.3941441,14.3464252 16.3401508,13.9149829 L16.3333333,13.8052247 L16.3333333,10.5091433 C16.3333333,10.0258941 16.7250842,9.63414328 17.2083333,9.63414328 Z" id="Mask"></path>
                    </g>
                    <g id="+" transform="translate(24.500000, 4.863636)" stroke="#2A2A2A" stroke-linecap="round" stroke-width="1.5">
                        <line x1="0.363636364" y1="3.63636364" x2="7.63636364" y2="3.63636364" id="Line-3"></line>
                        <line x1="4" y1="7.27272727" x2="4" y2="-1.27897692e-13" id="Line-3-Copy"></line>
                    </g>
                </g>
            </g>
        </g>
    </g>
</svg>
