<?xml version="1.0" encoding="UTF-8"?>
<svg width="16px" height="16px" viewBox="0 0 16 16" version="1.1" xmlns="http://www.w3.org/2000/svg" xmlns:xlink="http://www.w3.org/1999/xlink">
    <title>C2E583B4-3837-46B1-889E-D33FB515ECEE</title>
    <g id="Symbols" stroke="none" stroke-width="1" fill="none" fill-rule="evenodd">
        <g id="Icons/general/left-arrow-16px" fill="#2A2A2A">
            <path d="M6.86366342,9.13633658 C7.12992998,9.40260314 7.15413603,9.81926683 6.93628157,10.1128783 L6.86366342,10.1969968 C6.59739686,10.4632633 6.18073317,10.4874694 5.88712168,10.2696149 L5.80300325,10.1969968 L2.46966991,6.86366342 L2.40627192,6.79163598 C2.40382253,6.78846746 2.40139794,6.78527881 2.39899844,6.78207029 L2.46966991,6.86366342 C2.43261664,6.82661014 2.40025089,6.78664441 2.37257267,6.74450312 C2.35892459,6.72361275 2.34613194,6.70183936 2.33444074,6.67940063 C2.33065527,6.67222125 2.3271251,6.66515855 2.32371336,6.65805322 C2.30986248,6.62920792 2.29770335,6.59914272 2.28750536,6.56818659 C2.28571861,6.56260713 2.28411878,6.55754694 2.28257391,6.5524736 C2.26144114,6.48357866 2.25,6.40979211 2.25,6.33333333 C2.25,6.29494109 2.25288471,6.25722261 2.25844919,6.22038281 C2.26021414,6.20907769 2.26221775,6.19762897 2.2644882,6.18622284 C2.2695632,6.16038207 2.27601648,6.13506908 2.28371852,6.11030628 C2.28681304,6.10051745 2.2899434,6.09111294 2.29326502,6.08176117 C2.30256478,6.05552514 2.31340934,6.02976873 2.32560077,6.00479017 C2.32998278,5.99571784 2.3345949,5.98671985 2.33940078,5.97779866 C2.35381787,5.9511562 2.36989859,5.92525803 2.38744589,5.90047157 C2.39046326,5.89610577 2.39372936,5.89159942 2.39705176,5.88712168 C2.42212452,5.85395747 2.44504501,5.82762815 2.46966991,5.80300325 L5.80300325,2.46966991 C6.09589647,2.1767767 6.5707702,2.1767767 6.86366342,2.46966991 C7.12992998,2.73593648 7.15413603,3.15260016 6.93628157,3.44621165 L6.86366342,3.53033009 L4.81,5.583 L11,5.58333333 C12.8240738,5.58333333 14.3142901,7.01274718 14.4116111,8.81253706 L14.4166667,9 L14.4166667,13.6666667 C14.4166667,14.0808802 14.0808802,14.4166667 13.6666667,14.4166667 C13.2869709,14.4166667 12.9731757,14.1345128 12.9235133,13.7684372 L12.9166667,13.6666667 L12.9166667,9 C12.9166667,7.99186117 12.1383257,7.16551361 11.1497864,7.08909987 L11,7.08333333 L4.81,7.083 L6.86366342,9.13633658 Z" id="Combined-Shape"></path>
        </g>
    </g>
</svg>