<?xml version="1.0" encoding="UTF-8"?>
<svg width="16px" height="16px" viewBox="0 0 16 16" version="1.1" xmlns="http://www.w3.org/2000/svg" xmlns:xlink="http://www.w3.org/1999/xlink">
    <title>4EBA73B3-1BA7-43F6-A3B9-2E0D8C988F36</title>
    <g id="Symbols" stroke="none" stroke-width="1" fill="none" fill-rule="evenodd">
        <g id="Icons/general/lock" fill="#2A2A2A">
            <path d="M8,3.25 C9.66566178,3.25 11.0479937,4.47485555 11.1446071,6.04624227 L11.15,6.22222222 L11.1501192,7.07406033 C11.6454636,7.2507483 12,7.72397095 12,8.28 L12,11.32 C12,12.0269245 11.4269245,12.6 10.72,12.6 L5.28,12.6 C4.57307552,12.6 4,12.0269245 4,11.32 L4,8.28 C4,7.72434538 4.35405903,7.25138567 4.84888031,7.07441768 L4.85,6.22222222 C4.85,4.56726578 6.27264704,3.25 8,3.25 Z M10.5,8.5 L5.5,8.5 L5.5,11.1 L10.5,11.1 L10.5,8.5 Z M8,4.75 C7.12769804,4.75 6.4313183,5.34992455 6.35663506,6.09021853 L6.35,6.22222222 L6.349,7 L9.649,7 L9.65,6.22222222 C9.65,5.42257978 8.92361384,4.75 8,4.75 Z" id="Shape"></path>
        </g>
    </g>
</svg>