<?xml version="1.0" encoding="UTF-8"?>
<svg width="16px" height="16px" viewBox="0 0 16 16" version="1.1" xmlns="http://www.w3.org/2000/svg">
    <title>6C2B40DB-E0B1-4FF4-9A1E-A7E165AFA8F1</title>
    <g id="Symbols" stroke="none" stroke-width="1" fill="none" fill-rule="evenodd">
        <g id="Icons/general/logout-16px" fill="currentColor">
            <path d="M6.33333333,2.375 C6.6785113,2.375 6.95833333,2.65482203 6.95833333,3 C6.95833333,3.31641314 6.7232051,3.57790913 6.41814213,3.61929449 L6.33333333,3.625 L4.11111111,3.625 C3.86948653,3.625 3.6690362,3.80128788 3.63136237,4.03226136 L3.625,4.11111111 L3.625,11.8888889 C3.625,12.1305135 3.80128788,12.3309638 4.03226136,12.3686376 L4.11111111,12.375 L6.33333333,12.375 C6.6785113,12.375 6.95833333,12.654822 6.95833333,13 C6.95833333,13.3164131 6.7232051,13.5779091 6.41814213,13.6192945 L6.33333333,13.625 L4.11111111,13.625 C3.19397158,13.625 2.44293305,12.9138371 2.37935907,12.0128749 L2.375,11.8888889 L2.375,4.11111111 C2.375,3.19397158 3.0861629,2.44293305 3.98712514,2.37935907 L4.11111111,2.375 L6.33333333,2.375 Z M10.5940653,4.71976536 L10.664164,4.78028048 L13.4419417,7.55805826 C13.4659876,7.58272708 13.4824287,7.60182781 13.4976858,7.62187836 L13.4419417,7.55805826 C13.4691762,7.58529268 13.4933717,7.61441518 13.5145285,7.64500443 C13.5284259,7.66520903 13.5411513,7.68613326 13.5526382,7.70781445 C13.5559857,7.7140495 13.5592434,7.72047194 13.562383,7.72693729 C13.5880764,7.77987963 13.6064907,7.83669537 13.6164489,7.89637336 C13.6387177,8.02939618 13.6177159,8.16860076 13.5533398,8.29094399 C13.5211964,8.35183582 13.4794141,8.40671494 13.429973,8.45359667 L10.664164,11.2197195 C10.4200863,11.4637972 10.0243582,11.4637972 9.78028048,11.2197195 C9.55839168,10.9978307 9.53821997,10.650611 9.71976536,10.4059347 L9.78028048,10.335836 L11.49,8.624 L6.33333333,8.625 C5.98815536,8.625 5.70833333,8.34517797 5.70833333,8 C5.70833333,7.68358686 5.94346157,7.42209087 6.24852454,7.38070551 L6.33333333,7.375 L11.49,7.374 L9.78028048,5.66416396 C9.55839168,5.44227516 9.53821997,5.09505542 9.71976536,4.85037918 L9.78028048,4.78028048 C10.0021693,4.55839168 10.349389,4.53821997 10.5940653,4.71976536 Z" id="Combined-Shape"></path>
        </g>
    </g>
</svg>
