<?xml version="1.0" encoding="UTF-8"?>
<svg width="16px" height="16px" viewBox="0 0 16 16" version="1.1" xmlns="http://www.w3.org/2000/svg" xmlns:xlink="http://www.w3.org/1999/xlink">
    <title>B80B459B-F4E2-4AA8-8189-A13D4F548001</title>
    <g id="Symbols" stroke="none" stroke-width="1" fill="none" fill-rule="evenodd">
        <g id="Icons/general/mail-16px" fill="currentColor">
            <path d="M1.25037137,4.17375475 L1.25039147,4.16069116 C1.27144387,3.10450313 2.13891946,2.25 3.2,2.25 L12.8,2.25 C13.8742136,2.25 14.75,3.12578644 14.75,4.2 L14.75,11.4 C14.75,12.4742136 13.8742136,13.35 12.8,13.35 L3.2,13.35 C2.12578644,13.35 1.25,12.4742136 1.25,11.4 L1.25037137,4.17375475 Z M13.25,5.64 L8.43009676,9.01442394 C8.20413666,9.17259601 7.91273616,9.19236752 7.67041596,9.07373847 L7.56990324,9.01442394 L2.75,5.641 L2.75,11.4 C2.75,11.6184768 2.91135393,11.804106 3.11983402,11.8426596 L3.2,11.85 L12.8,11.85 C13.0457864,11.85 13.25,11.6457864 13.25,11.4 L13.25,5.64 Z M12.8,3.75 L3.2,3.75 C3.07139659,3.75 2.95417467,3.80590797 2.87163194,3.89442621 L8,7.484 L13.1283681,3.89442621 C13.0458253,3.80590797 12.9286034,3.75 12.8,3.75 Z" id="Combined-Shape"></path>
        </g>
    </g>
</svg>