<?xml version="1.0" encoding="UTF-8"?>
<svg width="16px" height="16px" viewBox="0 0 16 16" version="1.1" xmlns="http://www.w3.org/2000/svg" xmlns:xlink="http://www.w3.org/1999/xlink">
    <title>B3C37CCB-AB61-45ED-A0C3-7E28C9680343</title>
    <g id="Symbols" stroke="none" stroke-width="1" fill="none" fill-rule="evenodd">
        <g id="Icons/general/more-16px" fill="#2A2A2A">
            <path d="M8,6 C8.82842712,6 9.5,6.67157288 9.5,7.5 C9.5,8.32842712 8.82842712,9 8,9 C7.17157288,9 6.5,8.32842712 6.5,7.5 C6.5,6.67157288 7.17157288,6 8,6 Z M2,6 C2.82842712,6 3.5,6.67157288 3.5,7.5 C3.5,8.32842712 2.82842712,9 2,9 C1.17157288,9 0.5,8.32842712 0.5,7.5 C0.5,6.67157288 1.17157288,6 2,6 Z M14,6 C14.8284271,6 15.5,6.67157288 15.5,7.5 C15.5,8.32842712 14.8284271,9 14,9 C13.1715729,9 12.5,8.32842712 12.5,7.5 C12.5,6.67157288 13.1715729,6 14,6 Z" id="More"></path>
        </g>
    </g>
</svg>