<svg width="78" height="43" viewBox="0 0 78 43" fill="none" xmlns="http://www.w3.org/2000/svg">
<g clip-path="url(#clip0_1819_21119-260935)">
<path d="M39 43C60.5391 43 78 33.8471 78 22.5564C78 11.2657 60.5391 2.11279 39 2.11279C17.4609 2.11279 0 11.2657 0 22.5564C0 33.8471 17.4609 43 39 43Z" fill="#EEEEEE"/>
<path d="M65.1779 18.957V22.1314C65.1779 22.8148 64.7602 23.5084 63.9097 24.0502L63.7336 24.1565L42.4824 36.4945C40.5601 37.6134 37.4401 37.6134 35.5177 36.4996L14.2615 24.1565C13.3607 23.635 12.8776 22.9515 12.8223 22.2681V19.0937C12.8776 19.7822 13.3607 20.4606 14.2615 20.9821L35.5177 33.3303C37.4401 34.4441 40.5601 34.4441 42.4824 33.3252L63.7336 20.9821L63.9097 20.8758C64.7602 20.3341 65.1779 19.6455 65.1779 18.957Z" fill="url(#paint0_linear_1819_21119-662177)"/>
<path d="M65.1779 18.9569C65.1779 19.6454 64.7602 20.3339 63.9097 20.8757L63.7336 20.982L42.4824 33.3251C40.5601 34.444 37.4401 34.444 35.5177 33.3301L14.2615 20.982C13.3607 20.4605 12.8776 19.7821 12.8223 19.0936V18.8202C12.8776 18.1316 13.3607 17.4532 14.2615 16.9317L35.5127 4.58861C37.435 3.46981 40.5601 3.46981 42.4824 4.58861L63.7336 16.9317C64.6998 17.4887 65.1779 18.2228 65.1779 18.9569Z" fill="url(#paint1_radial_1819_21119-435913)"/>
<path d="M36.499 20.8755L35.7694 22.5462H32.8154V19.8325C34.0131 19.8325 35.2058 20.0958 36.1166 20.6274C36.2525 20.7084 36.3833 20.7894 36.499 20.8755Z" fill="url(#paint2_linear_1819_21119-280658)"/>
<path d="M32.8154 16.1064C34.6824 16.1064 36.5494 16.3798 38.2201 16.9216L37.3797 18.8454C36.021 18.2784 34.4207 17.9949 32.8154 17.9949V16.1064Z" fill="url(#paint3_linear_1819_21119-145508)"/>
<path d="M43.8966 22.5464H40.6457C40.6457 21.8882 40.4041 21.2351 39.916 20.6276L40.9829 18.1924C42.9303 19.4226 43.9016 20.982 43.8966 22.5464Z" fill="url(#paint4_linear_1819_21119-661833)"/>
<path d="M32.8154 12.3955C35.2058 12.3955 37.5961 12.679 39.8254 13.2511L39.0403 15.0383C37.0778 14.4915 34.9491 14.2181 32.8154 14.2181V12.3955Z" fill="url(#paint5_linear_1819_21119-509003)"/>
<path d="M50.2924 22.5462H47.1573C47.1573 21.4779 46.805 20.4148 46.1056 19.4123C45.4061 18.4099 44.3543 17.4682 42.9554 16.6531C42.8799 16.6075 42.8044 16.567 42.7289 16.5265H42.7239C42.4521 16.3747 42.1804 16.2278 41.8936 16.0962L42.7289 14.1875C43.5894 14.5318 44.4097 14.9267 45.1746 15.3672C48.5865 17.3518 50.2924 19.949 50.2924 22.5462Z" fill="url(#paint6_linear_1819_21119-835705)"/>
<path d="M36.499 20.8755L35.7694 22.5462H32.8154V19.8325C34.0131 19.8325 35.2058 20.0958 36.1166 20.6274C36.2525 20.7084 36.3833 20.7894 36.499 20.8755Z" fill="url(#paint7_linear_1819_21119-815855)"/>
<path d="M32.8154 16.1064C34.6824 16.1064 36.5494 16.3798 38.2201 16.9216L37.3797 18.8454C36.021 18.2784 34.4207 17.9949 32.8154 17.9949V16.1064Z" fill="url(#paint8_linear_1819_21119-650443)"/>
<path d="M43.8966 22.5464H40.6457C40.6457 21.8882 40.4041 21.2351 39.916 20.6276L40.9829 18.1924C42.9303 19.4226 43.9016 20.982 43.8966 22.5464Z" fill="url(#paint9_linear_1819_21119-257770)"/>
<path d="M32.8154 12.3955C35.2058 12.3955 37.5961 12.679 39.8254 13.2511L39.0403 15.0383C37.0778 14.4915 34.9491 14.2181 32.8154 14.2181V12.3955Z" fill="url(#paint10_linear_1819_21119-244967)"/>
<path d="M50.2924 22.5462H47.1573C47.1573 21.4779 46.805 20.4148 46.1056 19.4123C45.4061 18.4099 44.3543 17.4682 42.9554 16.6531C42.8799 16.6075 42.8044 16.567 42.7289 16.5265H42.7239C42.4521 16.3747 42.1804 16.2278 41.8936 16.0962L42.7289 14.1875C43.5894 14.5318 44.4097 14.9267 45.1746 15.3672C48.5865 17.3518 50.2924 19.949 50.2924 22.5462Z" fill="url(#paint11_linear_1819_21119-086367)"/>
<path d="M42.7289 14.1875V16.5265H42.7239C42.4521 16.3747 42.1804 16.2278 41.8936 16.0962L42.7289 14.1875Z" fill="#454545" fill-opacity="0.7"/>
<path d="M40.9829 18.1924V22.5464H40.6457C40.6457 21.8882 40.4041 21.2351 39.916 20.6276L40.9829 18.1924Z" fill="#454545" fill-opacity="0.7"/>
<path style="mix-blend-mode:multiply" d="M38.2294 21.5387C32.4523 24.8953 20.0378 20.2831 14.2607 16.9315L35.1798 4.78076C40.9569 8.13736 44.0064 18.1871 38.2294 21.5437V21.5387Z" fill="url(#paint12_radial_1819_21119-762331)"/>
<path d="M33.1178 1.38867V3.43407C33.1178 3.45937 33.1178 3.48467 33.1128 3.50997C33.0826 3.88467 32.7958 4.27447 32.2624 4.58327L26.9936 7.64627C25.9519 8.24877 24.3818 8.31457 23.4861 7.79317L23.2446 7.65137C22.8621 7.42857 22.6608 7.14007 22.6407 6.83117C22.6357 6.81097 22.6357 6.78567 22.6357 6.76537V4.70987C22.6357 5.04407 22.8369 5.35787 23.2446 5.59587L23.3905 5.68197L23.4861 5.73767C23.7277 5.87937 24.0145 5.97557 24.3265 6.03127C25.182 6.18317 26.2287 6.03127 26.9936 5.59077L30.798 3.38347L32.2624 2.53287C32.3026 2.51267 32.3378 2.48727 32.3731 2.46197C32.8662 2.14807 33.1128 1.76337 33.1178 1.38867Z" fill="url(#paint13_linear_1819_21119-623448)"/>
<path d="M33.1123 3.50998C33.1173 3.48468 33.1173 3.45938 33.1173 3.43408V3.50998H33.1123Z" fill="url(#paint14_linear_1819_21119-989424)"/>
<path d="M22.6407 6.83142H22.6357V6.76562C22.6357 6.76562 22.6357 6.81122 22.6407 6.83142Z" fill="url(#paint15_linear_1819_21119-317927)"/>
<path d="M17.8643 9.36768C17.8643 9.39298 17.8643 9.41328 17.8694 9.43858H17.8643V9.36768Z" fill="url(#paint16_linear_1819_21119-634852)"/>
<path d="M23.1885 7.31738V9.36778C23.1885 9.39308 23.1885 9.41338 23.1834 9.43868C23.1583 9.80828 22.8966 10.1779 22.4085 10.4614C21.3668 11.0689 19.681 11.0689 18.6443 10.4614C18.1562 10.1779 17.8945 9.80828 17.8694 9.43868C17.8643 9.41338 17.8643 9.39308 17.8643 9.36778V7.31738C17.8643 7.68698 18.0908 8.05148 18.5387 8.34508C18.5739 8.36538 18.6091 8.39068 18.6443 8.41088C19.0218 8.62858 19.4847 8.76528 19.9729 8.82608C20.3352 8.87168 20.7126 8.87168 21.08 8.82608C21.5681 8.76528 22.0311 8.62858 22.4085 8.41088C22.4437 8.39068 22.4789 8.36538 22.5142 8.34508C22.962 8.05148 23.1885 7.68698 23.1885 7.31738Z" fill="url(#paint17_linear_1819_21119-064169)"/>
<path d="M23.1896 9.36768V9.43858H23.1846C23.1896 9.41328 23.1896 9.39298 23.1896 9.36768Z" fill="url(#paint18_linear_1819_21119-917774)"/>
<path d="M33.1179 1.3889C33.1128 1.7635 32.8662 2.1483 32.3731 2.4622C32.3378 2.4875 32.3026 2.5128 32.2624 2.5331L30.798 3.3836L26.9936 5.591C26.2287 6.0315 25.182 6.1833 24.3265 6.0315C24.0145 5.9758 23.7277 5.8796 23.4861 5.7378L23.3905 5.6821L23.2446 5.5961C22.8369 5.3581 22.6357 5.0442 22.6357 4.7101C22.6357 4.3101 22.9275 3.8899 23.4962 3.5608L28.7649 0.497798C29.8016 -0.104602 31.3717 -0.170502 32.2724 0.356098L32.514 0.492798C32.9216 0.735798 33.1229 1.0547 33.1179 1.3889Z" fill="#F9A4A5"/>
<path d="M23.1885 7.31729C23.1885 7.68689 22.962 8.05139 22.5142 8.34509C22.4789 8.36529 22.4437 8.39059 22.4085 8.41089C22.0311 8.62859 21.5681 8.76529 21.08 8.82599C20.7126 8.87159 20.3352 8.87159 19.9729 8.82599C19.4847 8.76529 19.0218 8.62859 18.6443 8.41089C18.6091 8.39059 18.5739 8.36529 18.5387 8.34509C18.0908 8.05139 17.8643 7.68689 17.8643 7.31729C17.8643 6.91729 18.126 6.52239 18.6443 6.22369C19.681 5.61619 21.3668 5.61619 22.4085 6.22369C22.9268 6.52239 23.1885 6.91729 23.1885 7.31729Z" fill="#F9A4A5"/>
</g>
<defs>
<linearGradient id="paint0_linear_1819_21119-662177" x1="31" y1="20.5002" x2="43" y2="20.5002" gradientUnits="userSpaceOnUse">
<stop stop-color="#CBCBCB"/>
<stop offset="1" stop-color="#666666"/>
</linearGradient>
<radialGradient id="paint1_radial_1819_21119-435913" cx="0" cy="0" r="1" gradientUnits="userSpaceOnUse" gradientTransform="translate(29.5 9.50011) rotate(39.5077) scale(36.9391 63.5853)">
<stop stop-color="#F8F8F8"/>
<stop offset="1" stop-color="#A4A4A4"/>
</radialGradient>
<linearGradient id="paint2_linear_1819_21119-280658" x1="34.6572" y1="19.8325" x2="34.6572" y2="22.5462" gradientUnits="userSpaceOnUse">
<stop stop-color="#D6D6D6"/>
<stop offset="1" stop-color="#D6D6D6"/>
</linearGradient>
<linearGradient id="paint3_linear_1819_21119-145508" x1="35.5178" y1="16.1064" x2="35.5178" y2="18.8454" gradientUnits="userSpaceOnUse">
<stop stop-color="#D6D6D6"/>
<stop offset="1" stop-color="#D6D6D6"/>
</linearGradient>
<linearGradient id="paint4_linear_1819_21119-661833" x1="41.9063" y1="18.1924" x2="41.9063" y2="22.5464" gradientUnits="userSpaceOnUse">
<stop stop-color="#D6D6D6"/>
<stop offset="1" stop-color="#D6D6D6"/>
</linearGradient>
<linearGradient id="paint5_linear_1819_21119-509003" x1="36.3204" y1="12.3955" x2="36.3204" y2="15.0383" gradientUnits="userSpaceOnUse">
<stop stop-color="#D6D6D6"/>
<stop offset="1" stop-color="#D6D6D6"/>
</linearGradient>
<linearGradient id="paint6_linear_1819_21119-835705" x1="46.093" y1="14.1875" x2="46.093" y2="22.5462" gradientUnits="userSpaceOnUse">
<stop stop-color="#D6D6D6"/>
<stop offset="1" stop-color="#D6D6D6"/>
</linearGradient>
<linearGradient id="paint7_linear_1819_21119-815855" x1="34.6572" y1="19.8325" x2="34.6572" y2="22.5462" gradientUnits="userSpaceOnUse">
<stop stop-color="#474747" stop-opacity="0"/>
<stop offset="0.838542" stop-color="#474747"/>
</linearGradient>
<linearGradient id="paint8_linear_1819_21119-650443" x1="35.5178" y1="16.1064" x2="35.5178" y2="18.8454" gradientUnits="userSpaceOnUse">
<stop stop-color="#474747" stop-opacity="0"/>
<stop offset="0.838542" stop-color="#474747"/>
</linearGradient>
<linearGradient id="paint9_linear_1819_21119-257770" x1="41.9063" y1="18.1924" x2="41.9063" y2="22.5464" gradientUnits="userSpaceOnUse">
<stop stop-color="#474747" stop-opacity="0"/>
<stop offset="0.838542" stop-color="#474747"/>
</linearGradient>
<linearGradient id="paint10_linear_1819_21119-244967" x1="36.3204" y1="12.3955" x2="36.3204" y2="15.0383" gradientUnits="userSpaceOnUse">
<stop stop-color="#474747" stop-opacity="0"/>
<stop offset="0.838542" stop-color="#474747"/>
</linearGradient>
<linearGradient id="paint11_linear_1819_21119-086367" x1="46.093" y1="14.1875" x2="46.093" y2="22.5462" gradientUnits="userSpaceOnUse">
<stop stop-color="#474747" stop-opacity="0"/>
<stop offset="0.838542" stop-color="#474747"/>
</linearGradient>
<radialGradient id="paint12_radial_1819_21119-762331" cx="0" cy="0" r="1" gradientUnits="userSpaceOnUse" gradientTransform="translate(25.9995 9.99976) rotate(-10.7843) scale(10.6888 7.03998)">
<stop offset="0.0208333" stop-color="#DF1316" stop-opacity="0.3"/>
<stop offset="0.916667" stop-color="#DF1316" stop-opacity="0"/>
</radialGradient>
<linearGradient id="paint13_linear_1819_21119-623448" x1="34.0004" y1="2.99977" x2="22.5004" y2="5.99977" gradientUnits="userSpaceOnUse">
<stop offset="0.65625" stop-color="#DF1316"/>
<stop offset="1" stop-color="#FF9FA1"/>
</linearGradient>
<linearGradient id="paint14_linear_1819_21119-989424" x1="33.3514" y1="7.11724" x2="33.3946" y2="7.11914" gradientUnits="userSpaceOnUse">
<stop stop-color="#98B8EF"/>
<stop offset="1" stop-color="#4081F5"/>
</linearGradient>
<linearGradient id="paint15_linear_1819_21119-317927" x1="22.87" y1="9.95771" x2="22.9163" y2="9.95981" gradientUnits="userSpaceOnUse">
<stop stop-color="#98B8EF"/>
<stop offset="1" stop-color="#4081F5"/>
</linearGradient>
<linearGradient id="paint16_linear_1819_21119-634852" x1="18.0986" y1="12.7699" x2="18.1449" y2="12.7718" gradientUnits="userSpaceOnUse">
<stop stop-color="#98B8EF"/>
<stop offset="1" stop-color="#4081F5"/>
</linearGradient>
<linearGradient id="paint17_linear_1819_21119-064169" x1="22.4996" y1="7.49998" x2="17.9996" y2="7.49998" gradientUnits="userSpaceOnUse">
<stop stop-color="#DF1316"/>
<stop offset="1" stop-color="#FAA9AA"/>
</linearGradient>
<linearGradient id="paint18_linear_1819_21119-917774" x1="0.261369" y1="12.9116" x2="25.9132" y2="12.9116" gradientUnits="userSpaceOnUse">
<stop stop-color="#98B8EF"/>
<stop offset="1" stop-color="#4081F5"/>
</linearGradient>
<clipPath id="clip0_1819_21119-260935">
<rect width="78" height="43" fill="white"/>
</clipPath>
</defs>
</svg>