<?xml version="1.0" encoding="UTF-8"?>
<svg width="24px" height="24px" viewBox="0 0 24 24" version="1.1" xmlns="http://www.w3.org/2000/svg" xmlns:xlink="http://www.w3.org/1999/xlink">
    <title>Notifications-active</title>
    <g id="Notifications-active" stroke="none" stroke-width="1" fill="none" fill-rule="evenodd">
        <rect fill="#FFFFFF" opacity="0" x="0" y="0" width="24" height="24"></rect>
        <g id="button-03-copy-2" transform="translate(3.748618, 4.750000)" fill="#4485F1">
            <path d="M10.0693777,15.9345833 C10.4276724,16.142424 10.5496395,16.6013675 10.3417988,16.9596622 C9.90945986,17.7049675 9.11300672,18.1637136 8.25138215,18.1637136 C7.38975759,18.1637136 6.59330445,17.7049675 6.16096549,16.9596622 C5.95312478,16.6013675 6.07509186,16.142424 6.43338659,15.9345833 C6.76182343,15.7440627 9.71108298,15.7267426 10.0693777,15.9345833 Z M8.25138215,0 C11.4270195,0 14.0013822,2.57436269 14.0013822,5.75 C14.0013822,8.18002375 14.440481,10.0096025 15.1598038,11.3283609 C15.5681221,12.0769445 15.9525362,12.4827149 16.1674073,12.6259623 C16.7554339,13.01798 16.5191294,13.90959 15.854275,13.9936163 L15.7513822,14 L0.751382152,14 C0.00932618269,14 -0.282070883,13.0375809 0.335357005,12.6259623 C0.550228079,12.4827149 0.934642156,12.0769445 1.34296047,11.3283609 C2.01997016,10.0871765 2.44875383,8.39350076 2.49685637,6.17261297 L2.50138215,5.75 C2.50138215,2.57436269 5.07574484,0 8.25138215,0 Z" id="Shape"></path>
        </g>
    </g>
</svg>