<svg width="16" height="16" viewBox="0 0 16 16" fill="none" xmlns="http://www.w3.org/2000/svg">
    <g clip-path="url(#clip0_105_31)">
        <path d="M8 16C12.4183 16 16 12.4183 16 8C16 3.58172 12.4183 0 8 0C3.58172 0 0 3.58172 0 8C0 12.4183 3.58172 16 8 16Z" fill="#B8B8B8"/>
        <path fill-rule="evenodd" clip-rule="evenodd" d="M8 13.75L8.05706 13.7479L8.14789 13.7354L8.18489 13.727L8.29076 13.6915L8.35965 13.6584L8.4583 13.5937L8.53033 13.5303L12.5303 9.53033C12.8232 9.23744 12.8232 8.76256 12.5303 8.46967C12.2641 8.2034 11.8474 8.1792 11.5538 8.39705L11.4697 8.46967L8.749 11.19L8.75 3C8.75 2.58579 8.41421 2.25 8 2.25C7.6203 2.25 7.30651 2.53215 7.25685 2.89823L7.25 3L7.249 11.188L4.53033 8.46967C4.26406 8.2034 3.8474 8.1792 3.55379 8.39705L3.46967 8.46967C3.2034 8.73594 3.1792 9.1526 3.39705 9.44621L3.46967 9.53033L7.46967 13.5303C7.50672 13.5674 7.54669 13.5997 7.58883 13.6274L7.67823 13.6777L7.78184 13.7177C7.85032 13.7386 7.92384 13.75 8 13.75Z" fill="white"/>
    </g>
    <defs>
        <clipPath id="clip0_105_31">
            <rect width="16" height="16" fill="white"/>
        </clipPath>
    </defs>
</svg>
