<?xml version="1.0" encoding="UTF-8"?>
<svg width="16px" height="16px" viewBox="0 0 16 16" version="1.1" xmlns="http://www.w3.org/2000/svg" xmlns:xlink="http://www.w3.org/1999/xlink">
    <title>0DC9222E-8269-42BB-80E5-16E99B5952B1</title>
    <g id="Symbols" stroke="none" stroke-width="1" fill="none" fill-rule="evenodd">
        <g id="Icons/general/open-external-16px" fill="currentColor">
            <path d="M7.88888889,3.08333333 C8.30310245,3.08333333 8.63888889,3.41911977 8.63888889,3.83333333 C8.63888889,4.2130291 8.35673501,4.52682429 7.99065945,4.57648672 L7.88888889,4.58333333 L4.22222222,4.58333333 C3.99039899,4.58333333 3.79759209,4.7503821 3.75760813,4.97067301 L3.75,5.05555556 L3.75,11.7777778 C3.75,12.009601 3.91704876,12.2024079 4.13733968,12.2423919 L4.22222222,12.25 L10.9444444,12.25 C11.1762677,12.25 11.3690746,12.0829512 11.4090585,11.8626603 L11.4166667,11.7777778 L11.4166667,8.11111111 C11.4166667,7.69689755 11.7524531,7.36111111 12.1666667,7.36111111 C12.5463624,7.36111111 12.8601576,7.64326499 12.9098201,8.00934055 L12.9166667,8.11111111 L12.9166667,11.7777778 C12.9166667,12.8174957 12.1121205,13.6693017 11.0916337,13.7445905 L10.9444444,13.75 L4.22222222,13.75 C3.18250434,13.75 2.33069828,12.9454538 2.25540955,11.924967 L2.25,11.7777778 L2.25,5.05555556 C2.25,4.01583767 3.05454615,3.16403162 4.07503297,3.08874288 L4.22222222,3.08333333 L7.88888889,3.08333333 Z M10.3333333,1.25 L14,1.25 L14.0694695,1.25317463 L14.0694695,1.25317463 L14.171367,1.26973472 L14.171367,1.26973472 L14.2392836,1.28898031 L14.2392836,1.28898031 L14.2981386,1.31160159 L14.2981386,1.31160159 L14.3690453,1.34686081 L14.3690453,1.34686081 L14.4514416,1.40096775 L14.4514416,1.40096775 L14.5315788,1.47091921 L14.5315788,1.47091921 C14.5673834,1.50672319 14.5997491,1.54668892 14.6274273,1.58883021 L14.6776949,1.67822959 L14.6776949,1.67822959 L14.7177252,1.78184446 L14.7177252,1.78184446 C14.7290814,1.81893395 14.7377062,1.85807689 14.7431534,1.89822944 L14.75,2 L14.75,5.66666667 C14.75,6.08088023 14.4142136,6.41666667 14,6.41666667 C13.6203042,6.41666667 13.306509,6.13451279 13.2568466,5.76843722 L13.25,5.66666667 L13.25,3.81 L7.80810786,9.25255231 C7.51521464,9.54544553 7.04034091,9.54544553 6.74744769,9.25255231 C6.48118113,8.98628575 6.45697508,8.56962206 6.67482954,8.27601057 L6.74744769,8.19189214 L12.189,2.749 L10.3333333,2.75 C9.95363757,2.75 9.63984237,2.46784612 9.59017995,2.10177056 L9.58333333,2 C9.58333333,1.62030423 9.86548721,1.30650904 10.2315628,1.25684662 L10.3333333,1.25 Z" id="Shape"></path>
        </g>
    </g>
</svg>