<svg width="10" height="10" viewBox="0 0 10 10" fill="none" xmlns="http://www.w3.org/2000/svg">
<g clip-path="url(#clip0_312_14)">
<path fill-rule="evenodd" clip-rule="evenodd" d="M3.43919 6.56067C3.63445 6.75593 3.63445 7.07251 3.43919 7.26778L1.31787 9.3891C1.12261 9.58436 0.806024 9.58436 0.610762 9.3891C0.4155 9.19383 0.4155 8.87725 0.610762 8.68199L2.73208 6.56067C2.92734 6.36541 3.24393 6.36541 3.43919 6.56067ZM9.80315 3.02513C9.99841 3.2204 9.99841 3.53698 9.80315 3.73224C9.60789 3.9275 9.29131 3.9275 9.09604 3.73224L8.8429 3.4791L5.81224 7.51951L6.26762 7.97488C6.46288 8.17014 6.46288 8.48673 6.26762 8.68199C6.07235 8.87725 5.75577 8.87725 5.56051 8.68199L1.31787 4.43935C1.12261 4.24409 1.12261 3.9275 1.31787 3.73224C1.51313 3.53698 1.82971 3.53698 2.02498 3.73224L2.47894 4.1862L6.51935 1.15554L6.26762 0.903814C6.07235 0.708552 6.07235 0.39197 6.26762 0.196707C6.46288 0.00144534 6.77946 0.00144555 6.97472 0.196708L9.80315 3.02513Z" fill="currentColor"/>
</g>
<defs>
<clipPath id="clip0_312_14">
<rect width="10" height="10" fill="white"/>
</clipPath>
</defs>
</svg>
