<?xml version="1.0" encoding="UTF-8"?>
<svg width="16px" height="20px" viewBox="0 0 16 20" version="1.1" xmlns="http://www.w3.org/2000/svg" xmlns:xlink="http://www.w3.org/1999/xlink">
    <title>C4AE468A-7205-488C-90E1-3316B7D12F07</title>
    <g id="Mobile" stroke="none" stroke-width="1" fill="none" fill-rule="evenodd">
        <g id="Issues-/-Unsynced-Swipe" transform="translate(-316.000000, -151.000000)" fill="currentColor">
            <g id="Group" transform="translate(-72.000000, 122.000000)">
                <g id="Swip-actions" transform="translate(358.000000, 0.000000)">
                    <g id="Icons/general/trash" transform="translate(29.999745, 29.500000)">
                        <path d="M15.3967226,11.6736831 C15.9037469,11.892646 16.1372669,12.4811749 15.918304,12.9881993 C14.5560539,16.1425878 11.4683246,18.2272727 8.00058662,18.2272727 C5.77960377,18.2272727 3.69978577,17.3732334 2.12947503,15.9006339 L2.12876997,18 C2.12876997,18.5128358 1.74272978,18.9355072 1.2453911,18.9932723 L1.12876997,19 C0.615934135,19 0.193262813,18.6139598 0.135497706,18.1166211 L0.128769974,18 L0.128769974,12.3636364 L5.70998107,12.3636364 C6.26226582,12.3636364 6.70998107,12.8113516 6.70998107,13.3636364 C6.70998107,13.8764722 6.32394088,14.2991435 5.8266022,14.3569086 L5.70998107,14.3636364 L3.41643204,14.3643933 C4.63216114,15.5433536 6.25970042,16.2272727 8.00058662,16.2272727 C10.660441,16.2272727 13.0325987,14.625707 14.0822064,12.1952645 C14.3011693,11.6882402 14.8896982,11.4547202 15.3967226,11.6736831 Z M14.8724033,0 C15.3852391,0 15.8079104,0.38604019 15.8656755,0.883378875 L15.8724033,1 L15.8724033,6.63636364 L10.2911922,6.63636364 C9.73890742,6.63636364 9.29119217,6.18864839 9.29119217,5.63636364 C9.29119217,5.1235278 9.67723236,4.70085648 10.174571,4.64309137 L10.2911922,4.63636364 L12.5853125,4.6359682 C11.3713223,3.45866372 9.74344121,2.77272727 8.00058662,2.77272727 C5.34021475,2.77272727 2.96768056,4.37491886 1.91838975,6.80607223 C1.69953655,7.31314394 1.11105814,7.54679122 0.603986424,7.32793802 C0.09691471,7.10908482 -0.136732562,6.52060641 0.082120636,6.01353469 C1.44395942,2.85822358 4.53217392,0.772727273 8.00058662,0.772727273 C10.2245306,0.772727273 12.304704,1.62934404 13.8730381,3.1004503 L13.8724033,1 C13.8724033,0.487164161 14.2584435,0.0644928393 14.7557821,0.00672773133 L14.8724033,0 Z" id="Combined-Shape" transform="translate(8.000255, 9.500000) scale(-1, 1) translate(-8.000255, -9.500000) "></path>
                    </g>
                </g>
            </g>
        </g>
    </g>
</svg>
