<?xml version="1.0" encoding="UTF-8"?>
<svg width="16px" height="16px" viewBox="0 0 16 16" version="1.1" xmlns="http://www.w3.org/2000/svg" xmlns:xlink="http://www.w3.org/1999/xlink">
    <title>FF70293B-96FA-4A4E-B720-0829CFA15DFC</title>
    <g id="Symbols" stroke="none" stroke-width="1" fill="none" fill-rule="evenodd">
        <g id="Icons/general/reply-16px" fill="currentColor">
            <path d="M8.70798566,1.25113904 L8.33333333,1.24997885 C7.33723088,1.24742188 6.35269753,1.48060633 5.46185998,1.93057047 C3.29109575,3.01547532 1.917607,5.23643586 1.91666672,7.66639545 L1.92450672,7.99796931 C1.95754772,8.65979136 2.09444213,9.31231194 2.32956322,9.93127718 L2.46,10.247 L1.28848753,13.7628482 L1.26276449,13.8601796 C1.15511428,14.4088201 1.68342555,14.8961132 2.23717082,14.7115315 L5.752,13.539 L6.06876009,13.6704557 C6.79095016,13.9447636 7.55903664,14.0853737 8.33528878,14.0833498 C10.7635831,14.082412 12.9845437,12.7089232 14.0708784,10.5353131 C14.5194127,9.64732146 14.7525971,8.66278811 14.7500377,7.6647464 L14.7500377,7.33335233 C14.5690672,4.03312611 11.9668929,1.43095181 8.70798566,1.25113904 Z M8.33139408,2.74999749 L8.649,2.75 L8.62534767,2.74886096 C11.120853,2.88655243 13.1134666,4.87916597 13.251158,7.37467132 L13.250019,7.66668566 C13.2519913,8.4304272 13.0740034,9.18191403 12.7305515,9.86187897 C11.8967352,11.5302185 10.1949602,12.5826319 8.33304312,12.5833524 C7.56959261,12.5853411 6.81811037,12.4073584 6.13814002,12.0639038 L6.02797812,12.0188379 C5.87749899,11.9708242 5.71459669,11.9712507 5.56282918,12.0218399 L3.186,12.813 L3.97817914,10.4371898 C4.04141561,10.2474804 4.02627291,10.0403729 3.93611519,9.86187897 C3.59266057,9.18190862 3.41467794,8.43042639 3.41666412,7.6686411 C3.41738708,5.80505878 4.46980054,4.10328383 6.13529406,3.27089744 C6.81810496,2.92601563 7.56959179,2.74802771 8.33139408,2.74999749 Z" id="raw-copy"></path>
        </g>
    </g>
</svg>