<?xml version="1.0" encoding="UTF-8"?>
<svg width="16px" height="16px" viewBox="0 0 16 16" version="1.1" xmlns="http://www.w3.org/2000/svg" xmlns:xlink="http://www.w3.org/1999/xlink">
    <title>1759B2A4-0AE9-401E-A944-83C423D34FA4</title>
    <g id="Symbols" stroke="none" stroke-width="1" fill="none" fill-rule="evenodd">
        <g id="Icons/general/replace2" fill="#2A2A2A">
            <path d="M3.25,8.25 C3.62969577,8.25 3.94349096,8.53215388 3.99315338,8.89822944 L4,9 L4,11 C4,11.1183467 4.08223341,11.2174868 4.19267729,11.2433973 L4.25,11.25 L10.56,11.25 L9.59834957,10.2876894 C9.32986412,10.0192039 9.30749033,9.59780431 9.53122821,9.30383317 L9.59834957,9.22702923 C9.86683502,8.95854378 10.2882347,8.93616999 10.5822058,9.15990786 L10.6590097,9.22702923 L12.7803301,11.3483496 C13.0488155,11.616835 13.0711893,12.0382347 12.8474514,12.3322058 L12.7803301,12.4090097 L10.6590097,14.5303301 C10.3661165,14.8232233 9.89124279,14.8232233 9.59834957,14.5303301 C9.32986412,14.2618446 9.30749033,13.840445 9.53122821,13.5464739 L9.59834957,13.4696699 L10.318,12.75 L4.25,12.75 C3.3318266,12.75 2.57880766,12.0428897 2.5058012,11.1435272 L2.5,11 L2.5,9 C2.5,8.58578644 2.83578644,8.25 3.25,8.25 Z M6.15165043,1.46966991 C6.42013588,1.73815536 6.44250967,2.159555 6.21877179,2.45352615 L6.15165043,2.53033009 L5.432,3.249 L11.5,3.25 C12.4181734,3.25 13.1711923,3.95711027 13.2441988,4.85647279 L13.25,5 L13.25,7 C13.25,7.41421356 12.9142136,7.75 12.5,7.75 C12.1203042,7.75 11.806509,7.46784612 11.7568466,7.10177056 L11.75,7 L11.75,5 C11.75,4.88165327 11.6677666,4.78251318 11.5573227,4.75660268 L11.5,4.75 L5.189,4.749 L6.15165043,5.7123106 C6.42013588,5.98079605 6.44250967,6.40219569 6.21877179,6.69616683 L6.15165043,6.77297077 C5.88316498,7.04145622 5.46176535,7.06383001 5.1677942,6.84009214 L5.09099026,6.77297077 L2.96966991,4.65165043 C2.70118446,4.38316498 2.67881068,3.96176535 2.90254855,3.6677942 L2.96966991,3.59099026 L5.09099026,1.46966991 C5.38388348,1.1767767 5.85875721,1.1767767 6.15165043,1.46966991 Z" id="Combined-Shape"></path>
        </g>
    </g>
</svg>