<?xml version="1.0" encoding="UTF-8"?>
<svg width="16px" height="16px" viewBox="0 0 16 16" version="1.1" xmlns="http://www.w3.org/2000/svg" xmlns:xlink="http://www.w3.org/1999/xlink">
    <title>174F0467-4E3F-48C1-9BCE-48B00EC6F9D0</title>
    <g id="Symbols" stroke="none" stroke-width="1" fill="none" fill-rule="evenodd">
        <g id="Icons/general/review-16px" fill="currentColor">
            <path d="M7.625,2.296875 C7.64525641,2.296875 7.66531276,2.29773158 7.68513479,2.2994105 L7.62399337,2.35744742 C7.22260645,2.75883435 6.91023483,3.21552829 6.68687851,3.70299846 L3.125,3.703125 C2.88851224,3.703125 2.703125,3.88439252 2.703125,4.1 L2.703125,12.9 C2.703125,13.1156075 2.88851224,13.296875 3.125,13.296875 L9.875,13.296875 C10.1114878,13.296875 10.296875,13.1156075 10.296875,12.9 L10.2973598,10.2298755 C10.7634531,10.2911006 11.2379963,10.2816156 11.7037154,10.2001418 L11.703125,12.9 C11.703125,13.899419 10.8811529,14.703125 9.875,14.703125 L3.125,14.703125 C2.11884707,14.703125 1.296875,13.899419 1.296875,12.9 L1.296875,4.1 C1.296875,3.10058103 2.11884707,2.296875 3.125,2.296875 L7.625,2.296875 Z M8.75,10.546875 C9.13832521,10.546875 9.453125,10.8616748 9.453125,11.25 C9.453125,11.6059648 9.18860574,11.9001478 8.8454099,11.9467063 L8.75,11.953125 L4.25,11.953125 C3.86167479,11.953125 3.546875,11.6383252 3.546875,11.25 C3.546875,10.8940352 3.81139426,10.5998522 4.1545901,10.5532937 L4.25,10.546875 L8.75,10.546875 Z M13.4712225,3.0645542 C14.7089721,4.30230375 14.8673797,6.21067039 13.9464454,7.62007158 L15.3484319,9.03990828 C15.6394668,9.33464809 15.6364634,9.80951233 15.3417452,10.1005688 C15.0715455,10.3673292 14.6500128,10.3870374 14.3574626,10.1614447 L14.2810847,10.0938389 L12.8849172,8.68100986 C11.4756818,9.6007062 9.56835202,9.44192843 8.33110015,8.20467657 C6.91169456,6.78527097 6.91169456,4.4839598 8.33110015,3.0645542 C9.75050575,1.6451486 12.0518169,1.6451486 13.4712225,3.0645542 Z M7.1418631,8.34639814 C7.28501466,8.54433665 7.44572476,8.73351473 7.62399337,8.91178335 L7.79412659,9.07360305 L7.97051488,9.22529966 C8.22196586,9.4308339 8.49066495,9.6064431 8.7716153,9.75175742 L8.75,9.753125 L4.25,9.753125 C3.86167479,9.753125 3.546875,9.43832521 3.546875,9.05 C3.546875,8.69403522 3.81139426,8.39985222 4.1545901,8.3532937 L4.25,8.346875 L7.1418631,8.34639814 Z M9.39176033,4.12521437 C8.55814117,4.95883353 8.55814117,6.31039724 9.39176033,7.1440164 C10.2253795,7.97763556 11.5769432,7.97763556 12.4105624,7.1440164 C13.2441815,6.31039724 13.2441815,4.95883353 12.4105624,4.12521437 C11.5769432,3.29159521 10.2253795,3.29159521 9.39176033,4.12521437 Z M5.375,6.146875 C5.76332521,6.146875 6.078125,6.46167479 6.078125,6.85 C6.078125,7.20596478 5.81360574,7.50014778 5.4704099,7.5467063 L5.375,7.553125 L4.25,7.553125 C3.86167479,7.553125 3.546875,7.23832521 3.546875,6.85 C3.546875,6.49403522 3.81139426,6.19985222 4.1545901,6.1532937 L4.25,6.146875 L5.375,6.146875 Z" id="Combined-Shape"></path>
        </g>
    </g>
</svg>