<svg width="24" height="24" viewBox="0 0 24 24" fill="none" xmlns="http://www.w3.org/2000/svg">
<path fill-rule="evenodd" clip-rule="evenodd" d="M10.2692 2.7169C11.2252 1.76103 12.7749 1.76103 13.7307 2.7169L21.2831 10.2692C22.239 11.2252 22.239 12.7749 21.2831 13.7307L13.7307 21.2831C12.7749 22.239 11.2252 22.239 10.2692 21.2831L2.7169 13.7307C1.76103 12.7749 1.76103 11.2252 2.7169 10.2692L10.2692 2.7169ZM11.8562 15.5603L11.7435 15.5662C11.3008 15.6177 10.9572 15.9938 10.9572 16.4503C10.9572 16.9419 11.3557 17.3404 11.8473 17.3404L11.96 17.3344C12.4027 17.283 12.7463 16.9067 12.7463 16.4503C12.7463 15.9587 12.3478 15.5603 11.8562 15.5603ZM12.3404 6.92627C10.7362 6.65112 9.16761 7.57303 8.62753 9.10833C8.50519 9.45611 8.68794 9.83723 9.03573 9.95956C9.38351 10.0819 9.76461 9.89916 9.88696 9.55137C10.211 8.6302 11.1522 8.07704 12.1147 8.24213C13.0771 8.40722 13.7801 9.2424 13.7787 10.2189C13.7787 10.7285 13.4087 11.2219 12.7409 11.6671C12.4831 11.839 12.2028 11.9885 11.9222 12.1132L11.6704 12.2184L11.565 12.2568C11.2153 12.3734 11.0262 12.7514 11.1428 13.1012C11.2594 13.4509 11.6374 13.64 11.9872 13.5234C12.3724 13.3949 12.9231 13.1502 13.4814 12.7779C14.4825 12.1106 15.1138 11.2689 15.1138 10.2199C15.1162 8.59338 13.9444 7.20141 12.3404 6.92627Z" fill="currentColor"/>
</svg>