<?xml version="1.0" encoding="UTF-8"?>
<svg width="24px" height="24px" viewBox="0 0 24 24" version="1.1" xmlns="http://www.w3.org/2000/svg" xmlns:xlink="http://www.w3.org/1999/xlink">
    <title>12267079-68F4-4222-8E7F-F85FD2494DEB</title>
    <g id="Symbols" stroke="none" stroke-width="1" fill="none" fill-rule="evenodd">
        <g id="Icons/general/reply-24px" fill="#2A2A2A">
            <path d="M13.3884121,4.00151872 L12.9166541,3.99997336 C11.6618461,3.99675212 10.4214709,4.29053213 9.29913912,4.85742452 C6.56475327,6.22401571 4.83451659,9.02184523 4.83333209,12.0829589 L4.83978581,12.4248338 C4.87653953,13.3351089 5.06926033,14.2325988 5.40874493,15.0775856 L5.508,15.311 L4.0513167,19.6837722 L4.02191665,19.7900492 C3.85842188,20.5310679 4.57000419,21.1974245 5.31622777,20.9486833 L9.688,19.491 L9.9224277,19.591255 C10.873098,19.9731751 11.8904876,20.1693469 12.9192614,20.1666646 C15.9781548,20.1654834 18.7759843,18.4352467 20.144482,15.6970663 C20.7094679,14.5785291 21.0032479,13.3381539 21.0000234,12.0807602 L21.0000234,11.6666799 C20.7719606,7.50615112 17.4938489,4.22803942 13.3884121,4.00151872 Z M12.9140685,5.99999666 L13.303,6 L13.2782282,5.99848128 C16.3657957,6.16884025 18.8311597,8.63420427 19.0015187,11.7217718 L19,12.0833459 C19.0024401,13.0283393 18.7822555,13.9579859 18.3573794,14.7991542 C17.3255729,16.8636403 15.2199909,18.1657766 12.9162672,18.1666681 C11.9716609,18.1691284 11.0420206,17.9489505 10.2008458,17.5240711 L10.0789546,17.4723218 C9.8714505,17.4000337 9.64455293,17.3977231 9.43376472,17.4679859 L6.581,18.418 L7.53201413,15.5662353 C7.61632941,15.3132894 7.59613915,15.0371461 7.47592886,14.7991542 C7.05104953,13.9579794 6.83087156,13.0283391 6.83332862,12.0859531 C6.83422337,9.78000914 8.13635966,7.67442705 10.1970512,6.64452715 C11.0420141,6.21774452 11.9716607,5.99755989 12.9140685,5.99999666 Z" id="raw-copy"></path>
        </g>
    </g>
</svg>