<?xml version="1.0" encoding="UTF-8"?>
<svg data-testid="icon-base" height="100" viewBox="0 0 96 96" width="100" xmlns="http://www.w3.org/2000/svg" class="IconBase__StyledSvg-sc-e58ryq-0 etFHlO" style="min-width: 100px; min-height: 100px;"><g fill="none" fill-rule="evenodd" stroke="none" stroke-width="1"><defs><linearGradient id="searchLinearGradient-1" x1="34.068118%" x2="87.1564065%" y1="4.25124376%" y2="156.696405%"><stop offset="1.196%" stop-color="#808080"></stop><stop offset="99.972%" stop-color="#F7F7F7"></stop></linearGradient><linearGradient id="searchLinearGradient-2" x1="45.363365%" x2="54.4835048%" y1="23.3423913%" y2="110.522261%"><stop offset="1.196%" stop-color="#808080"></stop><stop offset="99.972%" stop-color="#F7F7F7"></stop></linearGradient><linearGradient id="searchLinearGradient-3" x1="8.90249127%" x2="70.0473984%" y1="-96.5193664%" y2="113.597929%"><stop offset="1.052%" stop-color="#575757"></stop><stop offset="99.972%" stop-color="#F7F7F7"></stop></linearGradient><linearGradient id="searchLinearGradient-4" x1="1.54569207%" x2="62.9491123%" y1="8.66676874%" y2="66.0578641%"><stop offset="0%" stop-color="#FFFFFF"></stop><stop offset="99.972%" stop-color="#BABABA"></stop></linearGradient><linearGradient id="searchLinearGradient-5" x1="-16.86904%" x2="116.8732%" y1="17.2364932%" y2="84.7494441%"><stop offset="0%" stop-color="#FFFFFF"></stop><stop offset="99.972%" stop-color="#BABABA"></stop></linearGradient></defs><rect height="96" width="96" x="0" y="0"></rect><g fill-rule="nonzero" transform="translate(4.000000, 25.500000)"><ellipse cx="44" cy="30.87837" fill="#000000" opacity="0.04" rx="43.820745" ry="22.83144"></ellipse><path d="M75.20849,18.18276 L75.147575,27.30855 C75.1398711,28.2724009 75.0026167,29.2308408 74.7395,30.158115 C74.4598584,31.1371418 74.0601146,32.0777926 73.549385,32.958615 C72.9886234,33.9244586 72.3255564,34.8271551 71.571635,35.651115 C70.7267396,36.574946 69.7994872,37.4199338 68.80136,38.175615 L68.83916,29.01078 C69.8403614,28.2583469 70.7710231,27.4163759 71.619635,26.49528 C72.3758078,25.6749765 73.0413105,24.7755162 73.6046,23.8125 C74.1169149,22.9354674 74.5181262,21.9981035 74.79899,21.022005 C75.0630063,20.0984143 75.2007575,19.1433293 75.20849,18.18276" fill="url(#searchLinearGradient-1)"></path><path d="M60.530165,42.576465 C61.388045,42.262005 62.228165,41.924835 63.041345,41.557635 L63.057755,32.38083 C62.241755,32.746635 61.398755,33.08265 60.537755,33.39594 C60.253505,33.49944 59.957255,33.58653 59.66861,33.6843 C59.082545,33.88266 58.495235,34.079565 57.89261,34.2543 C57.54032,34.356465 57.179045,34.44381 56.821685,34.5378 C56.2661,34.68405 55.70948,34.8285 55.142975,34.955115 C54.755675,35.041695 54.362885,35.11659 53.971055,35.19405 C53.42006,35.302935 52.867295,35.40744 52.30862,35.498205 C51.901265,35.564385 51.49124,35.622465 51.080465,35.678985 C50.524325,35.755475 49.965825,35.823535 49.404965,35.883165 C48.989035,35.926765 48.572165,35.965765 48.154355,36.000165 C47.587985,36.046035 47.02004,36.08064 46.451075,36.108645 C46.03658,36.129105 45.62222,36.149295 45.206975,36.160215 C44.624615,36.175515 44.04212,36.175665 43.459475,36.172365 C43.05701,36.170025 42.654455,36.17175 42.25247,36.16056 C41.639555,36.14346 41.02904,36.10707 40.41866,36.06924 C39.988655,36.0426 39.556865,36.027075 39.128915,35.99022 L39.00203,35.979225 C38.11229,35.900415 37.22861,35.79958 36.35099,35.67672 L36.29456,35.6691 C34.5136642,35.4188544 32.7482365,35.0687375 31.006625,34.620405 L30.9839,34.61457 C30.1313,34.39335 29.2941,34.148925 28.4723,33.881295 L28.4408,33.87093 C27.61855,33.60226 26.814515,33.310415 26.028695,32.995395 L26.02484,32.99382 C25.23554,32.67661 24.467665,32.335905 23.721215,31.971705 L23.71778,31.96998 C22.97187,31.6054 22.25037,31.21737 21.55328,30.80589 C20.83388,30.38055 20.159085,29.94038 19.528895,29.48538 L19.508645,29.47095 C19.205645,29.25221 18.913205,29.03031 18.631325,28.80525 L18.57419,28.75986 C18.29613,28.53707 18.02809,28.311525 17.77007,28.083225 L17.7194,28.037925 C17.47154,27.817055 17.233205,27.593845 17.004395,27.368295 L16.941095,27.30615 C16.703465,27.07015 16.47579,26.831815 16.25807,26.591145 L16.25039,26.582835 C16.03535,26.344185 15.83189,26.10291 15.63689,25.860075 L15.593015,25.80645 C15.40709,25.572675 15.23174,25.33695 15.064355,25.09968 L15.005645,25.01736 C14.833525,24.76992 14.67115,24.52087 14.51852,24.27021 C14.500385,24.240285 14.48501,24.209865 14.467085,24.179865 C14.338005,23.963305 14.216185,23.745725 14.101625,23.527125 C14.057675,23.44302 14.01854,23.358225 13.976795,23.27385 C13.894745,23.10783 13.814975,22.94154 13.74143,22.77435 C13.69907,22.67802 13.659665,22.581345 13.62011,22.484685 C13.562105,22.342755 13.507865,22.200495 13.45589,22.05804 C13.393685,21.887415 13.33718,21.71646 13.283765,21.54504 C13.24661,21.425925 13.20899,21.306795 13.176035,21.187335 C13.127015,21.009435 13.085675,20.83107 13.04606,20.652555 C13.020935,20.53941 12.993065,20.42646 12.971645,20.313105 C12.934565,20.117085 12.907655,19.92066 12.88184,19.724085 C12.86927,19.628235 12.85184,19.532385 12.842015,19.4364 C12.812015,19.14426 12.79223,18.851775 12.786815,18.559155 L12.95516,27.685035 C12.96059,27.978825 12.99239,28.271535 13.01036,28.56585 C13.2475096,30.1589713 13.7304829,31.7056344 14.442035,33.150615 C19.864205,44.17395 41.902745,48.629625 60.530165,42.576465 Z" fill="url(#searchLinearGradient-2)"></path><path d="M82.81676,38.604705 C82.7639393,38.7597798 82.6894137,38.9065887 82.595405,39.040755 C82.48983,39.1913635 82.3667319,39.3288927 82.2287,39.45045 C82.0702062,39.590228 81.8985101,39.7142805 81.71603,39.82086 C81.4886076,39.9522134 81.2500312,40.0632294 81.00308,40.152615 C80.921375,40.183035 80.83358,40.20438 80.749115,40.231095 C80.57273,40.28685 80.39387,40.338825 80.207885,40.37829 C80.10413,40.400265 79.99799,40.416195 79.892045,40.43316 C79.715525,40.461435 79.537355,40.48416 79.356725,40.498305 C79.245635,40.507035 79.134295,40.513215 79.022705,40.516845 C78.839795,40.52241 78.656885,40.518975 78.47411,40.51047 C78.32081,40.503255 78.16673,40.50168 78.01511,40.484505 L78.009815,40.48389 C77.7527864,40.4548808 77.4977073,40.4106329 77.245925,40.35138 L77.24414,40.350975 C76.7638868,40.2418463 76.3020928,40.0633369 75.873305,39.82107 L75.873095,39.82092 L75.87296,39.82092 L75.872825,39.820845 L75.87269,39.820845 L75.87248,39.82077 L63.057725,32.38095 L63.041315,41.557695 L75.808085,49.024155 L75.80891,49.024575 L75.85559,49.051485 L75.90311,49.07799 L75.95111,49.104015 L75.99965,49.12941 L76.04846,49.154265 L76.097765,49.17858 L76.147535,49.202325 L76.1978,49.225605 L76.2488,49.248465 L76.300295,49.270845 L76.35227,49.292685 L76.404665,49.31397 L76.4585,49.335 L76.51274,49.355595 L76.567385,49.375725 L76.62245,49.395225 L76.680395,49.415055 L76.738685,49.434285 L76.79747,49.45296 L76.856585,49.47096 L76.920425,49.489635 L76.9847,49.507635 L77.049365,49.52493 L77.114465,49.54155 L77.17454,49.556175 L77.1755,49.556445 L77.176385,49.556595 L77.18621,49.558995 L77.258435,49.5756 L77.33108,49.59147 L77.404055,49.60647 L77.488055,49.622595 L77.572565,49.637595 L77.657495,49.65159 L77.742845,49.664505 L77.853185,49.679505 L77.93735,49.68954 L77.942705,49.690155 L77.96399,49.69269 L78.07529,49.70409 L78.18692,49.713705 C78.257645,49.719195 78.328985,49.712805 78.39992,49.71618 C78.509285,49.721325 78.617765,49.734855 78.72734,49.734855 C78.800675,49.734855 78.87284,49.724895 78.946025,49.72263 C79.00115,49.720905 79.056365,49.727565 79.111355,49.72455 C79.168355,49.72146 79.22285,49.70841 79.27964,49.703955 C79.45973,49.689675 79.63577,49.667085 79.81181,49.638735 C79.879985,49.62774 79.95131,49.62651 80.0186,49.6134 C80.056295,49.60605 80.090015,49.59156 80.127365,49.583595 C80.175905,49.57323 80.22719,49.56924 80.275115,49.55778 C80.410295,49.52538 80.535605,49.477455 80.66537,49.43619 C80.73224,49.414905 80.805425,49.40364 80.87066,49.379955 C80.888165,49.37364 80.90237,49.363455 80.919755,49.35696 C81.1657938,49.2672641 81.4033901,49.1559176 81.62975,49.02423 C81.811647,48.9171745 81.9827021,48.7926836 82.1405,48.652515 C82.2780931,48.5303928 82.4007239,48.3923899 82.505825,48.241395 C82.5995459,48.1066407 82.6737781,47.9593329 82.726325,47.80383 C82.7751517,47.6583481 82.8009133,47.5061219 82.802675,47.352675 L82.89323,38.15499 C82.8915098,38.3079802 82.8657036,38.4597447 82.81676,38.604705 L82.81676,38.604705 Z" fill="url(#searchLinearGradient-3)"></path><path d="M44.3015,14.204595 C56.15684,14.204595 65.85521,19.76907 66.765065,26.834475 C69.460925,19.9866 70.05089,14.34768 62.426735,8.40069 C54.577925,2.27865 35.897735,2.17401 25.492235,8.688165 C16.657385,14.219145 20.521655,23.68185 21.89018,26.413785 C23.121635,19.548705 32.681585,14.204595 44.3015,14.204595 Z" fill="url(#searchLinearGradient-4)"></path><path d="M22.304,5.421165 C25.538402,3.65673548 29.0066899,2.35992345 32.605265,1.569465 C40.2372809,-0.13552164 48.1514432,-0.135941619 55.78364,1.568235 C59.3548986,2.35487697 62.7942183,3.65186119 65.99564,5.41923 C68.4772391,6.76167811 70.6743327,8.57355243 72.464765,10.754115 C73.9042653,12.5099794 74.8287244,14.6305917 75.13541,16.880295 C75.379469,19.0517021 74.9658753,21.2463661 73.948205,23.179995 C72.7072398,25.4843866 70.9605624,27.4778501 68.839205,29.01084 L81.65387,36.41064 C82.0132309,36.6072269 82.3265382,36.8781875 82.57289,37.205445 C82.7693777,37.4679702 82.8811052,37.7841885 82.8932004,38.11188 C82.8956369,38.4369159 82.7963996,38.7545895 82.60934,39.020415 C82.3745288,39.3500724 82.0694332,39.6234648 81.71609,39.820845 C81.291901,40.064846 80.8336227,40.2440712 80.356445,40.35258 C79.8471941,40.4714756 79.3258386,40.5307139 78.802895,40.5291321 C78.2785102,40.5299155 77.7557812,40.4702462 77.24507,40.351275 C76.7641956,40.242093 76.3018252,40.0633299 75.87257,39.820635 L63.057815,32.38086 C59.8169632,33.8029234 56.4129951,34.8195826 52.923095,35.407785 C49.265207,36.0402786 45.5515232,36.2911894 41.8418,36.15648 C38.1806531,36.037441 34.5432372,35.5214198 30.99344,34.61748 C27.6848448,33.7920315 24.5075398,32.5091745 21.55334,30.80598 C18.8919639,29.3234312 16.5974015,27.2622737 14.838935,24.77457 C13.4518619,22.7863522 12.734891,20.4076412 12.7922,17.98407 C12.9256633,15.5398991 13.8054777,13.1954481 15.31298,11.26692 C17.2084114,8.85043346 19.5901385,6.8588796 22.304,5.421165 Z M59.70926,27.078885 C61.6299088,26.0280728 63.2978797,24.5704585 64.596575,22.807935 C66.7473043,19.9578376 66.727697,16.0217641 64.54868,13.193235 C63.2509124,11.4674968 61.5946888,10.0433864 59.69396,9.018885 C57.4144245,7.75371904 54.9635754,6.82557382 52.41782,6.263385 C46.966024,5.04250573 41.311657,5.04274648 35.859965,6.26409 C33.2945602,6.82896164 30.8228633,7.75694084 28.51958,9.01998 C26.5927517,10.0464325 24.9049649,11.4690396 23.56715,13.1943 C22.5033894,14.5720805 21.8889042,16.2435789 21.80696,17.9823 C21.7785673,19.7076415 22.2987048,21.3974449 23.29241,22.808175 C24.5493761,24.5706374 26.1845021,26.0297601 28.07813,27.078765 C30.3703939,28.3869161 32.844603,29.3465909 35.41943,29.926245 C38.183184,30.5661379 41.0114349,30.8856275 43.84829,30.8785199 C46.6926178,30.8848419 49.5283221,30.5654399 52.29995,29.92644 C54.8955176,29.3441632 57.3917888,28.3848034 59.70926,27.078915" fill="url(#searchLinearGradient-5)"></path></g></g></svg>