<svg width="24" height="24" viewBox="0 0 24 24" fill="none" xmlns="http://www.w3.org/2000/svg">
<path fill-rule="evenodd" clip-rule="evenodd" d="M10.7881 2.34437C11.583 1.88547 12.5622 1.88547 13.3543 2.3428L19.8607 6.06075C20.6547 6.51918 21.1443 7.36603 21.1452 8.28361V15.7171C21.1443 16.634 20.6547 17.4808 19.858 17.9408L13.3571 21.6556C12.5622 22.1145 11.583 22.1145 10.7909 21.6572L4.28447 17.9393C3.49045 17.4808 3.00094 16.634 3 15.7164V8.28289C3.00094 7.36603 3.49045 6.51918 4.28447 6.06075L10.7881 2.34437ZM12.6463 3.57544C12.2913 3.37047 11.8539 3.37047 11.4961 3.57702L4.99249 7.29339L4.88216 7.3663C4.59469 7.58101 4.42189 7.92025 4.42151 8.28361V15.7157C4.42193 16.1251 4.64058 16.5034 4.99249 16.7066L11.4989 20.4246C11.8539 20.6296 12.2913 20.6296 12.6491 20.423L19.15 16.7082C19.5046 16.5034 19.7232 16.1251 19.7237 15.7164V8.28435C19.7232 7.87483 19.5046 7.49658 19.1528 7.29339L12.6463 3.57544ZM17.2183 8.72952C17.4619 8.98069 17.4785 9.36811 17.2718 9.63776L17.2032 9.71487L11.4544 15.2894C11.2112 15.5253 10.8389 15.5489 10.5698 15.3602L10.4842 15.2894L7.87114 12.7556C7.59486 12.4876 7.58807 12.0465 7.85598 11.7702C8.09953 11.519 8.48626 11.4906 8.76213 11.6888L8.84132 11.755L10.9688 13.8183L16.233 8.71437C16.5093 8.44646 16.9504 8.45325 17.2183 8.72952Z" fill="currentColor"/>
</svg>