<svg width="24" height="24" viewBox="0 0 24 24" fill="none" xmlns="http://www.w3.org/2000/svg">
<path fill-rule="evenodd" clip-rule="evenodd" d="M10.7285 2.3657C11.5725 1.87844 12.6123 1.87844 13.4527 2.36368L19.8209 6.00264C20.664 6.4894 21.1837 7.38858 21.1847 8.36304V15.6379C21.1837 16.6113 20.664 17.5106 19.8173 17.9994L13.4562 21.6343C12.6123 22.1216 11.5725 22.1216 10.732 21.6363L4.36385 17.9974C3.52076 17.5106 3.001 16.6114 3 15.6369V8.3621C3.001 7.38859 3.52076 6.4894 4.36385 6.00264L10.7285 2.3657ZM17.1281 8.79942C16.8659 8.52904 16.4342 8.5224 16.1638 8.78458L11.0122 13.7794L8.93013 11.7603L8.85264 11.6955C8.58267 11.5015 8.2042 11.5293 7.96585 11.7751C7.70368 12.0455 7.71032 12.4772 7.98069 12.7393L10.5379 15.2191L10.6217 15.2884C10.885 15.4731 11.2493 15.45 11.4873 15.2191L17.1132 9.76369L17.1804 9.68823C17.3827 9.42435 17.3665 9.04521 17.1281 8.79942Z" fill="currentColor"/>
</svg>