<svg width="16" height="16" viewBox="0 0 16 16" fill="none" xmlns="http://www.w3.org/2000/svg">
<path d="M2.70194 6.48757C2.32188 6.32285 2.14731 5.88123 2.31202 5.50118C3.29096 3.24237 5.50921 1.75 7.99994 1.75C9.61069 1.75 11.1183 2.37334 12.2502 3.44664C12.2502 3.06623 12.5323 2.75243 12.8984 2.70277L13.0002 2.69592C13.4144 2.69592 13.7502 3.03171 13.7502 3.44592V6.25H11.3581C10.9439 6.25 10.6081 5.91421 10.6081 5.5C10.6081 5.08579 10.9439 4.75 11.3581 4.75L11.43 4.74927C10.5525 3.8045 9.32247 3.25 7.99994 3.25C6.11381 3.25 4.43214 4.38138 3.68833 6.09765C3.52362 6.47771 3.08199 6.65228 2.70194 6.48757ZM7.99994 14.25C6.38483 14.25 4.87509 13.6231 3.74413 12.5482L3.75018 12.4796C3.75018 12.8593 3.46802 13.1731 3.10195 13.2228L3.00018 13.2296C2.58596 13.2296 2.25018 12.8938 2.25018 12.4796V9.75L4.58289 9.75C4.9971 9.75 5.33289 10.0858 5.33289 10.5C5.33289 10.9142 4.9971 11.25 4.58289 11.25L4.57074 11.2519C5.44663 12.1943 6.67642 12.75 7.99994 12.75C9.88643 12.75 11.5684 11.6182 12.312 9.9014C12.4766 9.52131 12.9182 9.34665 13.2983 9.51128C13.6784 9.6759 13.853 10.1175 13.6884 10.4976C12.7097 12.7571 10.4912 14.25 7.99994 14.25Z" fill="#4485F1"/>
</svg>
