<svg width="16" height="16" viewBox="0 0 16 16" fill="none" xmlns="http://www.w3.org/2000/svg">
  <g clip-path="url(#clip0_117_11)">
    <rect width="16" height="16" fill="none"/>
    <path d="M4.68002 9.96996C5.10002 9.96996 5.43002 10.31 5.43002 10.72C5.43002 11.13 5.10002 11.47 4.68002 11.47H3.21002C4.31002 12.99 6.08002 13.92 8.00002 13.92C10.33 13.92 12.45 12.54 13.41 10.42C13.58 10.04 14.02 9.86996 14.4 10.04C14.68 10.17 14.84 10.44 14.84 10.73C14.84 10.83 14.82 10.93 14.78 11.03C13.58 13.7 10.92 15.42 8.00002 15.42C5.94857 15.42 4.02545 14.571 2.65024 13.1401L2.65002 14.25C2.65002 14.6642 2.31424 15 1.90002 15C1.48581 15 1.15002 14.6642 1.15002 14.25L1.15002 10.75C1.15002 10.5764 1.20897 10.4166 1.30793 10.2895C1.38322 10.1843 1.48594 10.097 1.61002 10.04C1.70002 9.99996 1.79002 9.97996 1.89002 9.96996H4.68002ZM8.00002 0.579956C10.0515 0.579956 11.9746 1.42891 13.3498 2.85982L13.35 1.74996C13.35 1.33574 13.6858 0.999956 14.1 0.999956C14.5142 0.999956 14.85 1.33574 14.85 1.74996L14.85 5.24996C14.85 5.4235 14.7911 5.58328 14.6921 5.71037C14.6168 5.81556 14.5141 5.90294 14.39 5.95996C14.3 5.99996 14.21 6.01996 14.11 6.02996L11.32 6.02996C10.9 6.02996 10.57 5.68996 10.57 5.27996C10.57 4.86996 10.9 4.52996 11.32 4.52996H12.79C11.69 3.00996 9.92002 2.07996 8.00002 2.07996C5.67002 2.07996 3.55002 3.45996 2.59002 5.57996C2.42002 5.95996 1.98002 6.12996 1.60002 5.95996C1.32002 5.82996 1.16002 5.55996 1.16002 5.26996C1.16002 5.16996 1.18002 5.06996 1.22002 4.96996C2.42002 2.29996 5.08002 0.579956 8.00002 0.579956Z" fill="currentColor"/>
  </g>
  <defs>
    <clipPath id="clip0_117_11">
      <rect width="16" height="16" fill="none"/>
    </clipPath>
  </defs>
</svg>
