<svg width="16" height="16" viewBox="0 0 16 16" fill="none" xmlns="http://www.w3.org/2000/svg">
  <g clip-path="url(#clip0_117_3)">
    <rect width="16" height="16" fill="none"/>
      <path d="M7.2 7.75L7.05 5.35C7.02 4.89 7.39 4.5 7.85 4.5H8.16C8.62 4.5 8.99 4.89 8.96 5.35L8.81 7.75C8.78 8.17 8.43 8.5 8.01 8.5C7.59 8.5 7.24 8.17 7.21 7.75H7.2ZM8 11.5C8.55228 11.5 9 11.0523 9 10.5C9 9.94772 8.55228 9.5 8 9.5C7.44772 9.5 7 9.94772 7 10.5C7 11.0523 7.44772 11.5 8 11.5Z" fill="currentColor"/>
      <path d="M6.03004 4.68002C6.03004 5.10002 5.69004 5.43002 5.28004 5.43002C4.87004 5.43002 4.53004 5.10002 4.53004 4.68002V3.21002C3.01004 4.31002 2.08004 6.08002 2.08004 8.00002C2.08004 10.33 3.46004 12.45 5.58004 13.41C5.96004 13.58 6.13004 14.02 5.96004 14.4C5.83004 14.68 5.56004 14.84 5.27004 14.84C5.17004 14.84 5.07004 14.82 4.97004 14.78C2.30004 13.58 0.580044 10.92 0.580044 8.00002C0.580044 5.94857 1.429 4.02545 2.85991 2.65024L1.75004 2.65002C1.33583 2.65002 1.00004 2.31424 1.00004 1.90002C1.00004 1.48581 1.33583 1.15002 1.75004 1.15002L5.25004 1.15002C5.42359 1.15002 5.58337 1.20897 5.71046 1.30793C5.81565 1.38322 5.90303 1.48594 5.96004 1.61002C6.00004 1.70002 6.02004 1.79002 6.03004 1.89002V4.68002ZM15.42 8.00002C15.42 10.0515 14.5711 11.9746 13.1402 13.3498L14.25 13.35C14.6643 13.35 15 13.6858 15 14.1C15 14.5142 14.6643 14.85 14.25 14.85H10.75C10.5765 14.85 10.4167 14.7911 10.2896 14.6921C10.1844 14.6168 10.0971 14.5141 10.04 14.39C10 14.3 9.98004 14.21 9.97004 14.11L9.97004 11.32C9.97004 10.9 10.31 10.57 10.72 10.57C11.13 10.57 11.47 10.9 11.47 11.32V12.79C12.99 11.69 13.92 9.92002 13.92 8.00002C13.92 5.67002 12.54 3.55002 10.42 2.59002C10.04 2.42002 9.87004 1.98002 10.04 1.60002C10.17 1.32002 10.44 1.16002 10.73 1.16002C10.83 1.16002 10.93 1.18002 11.03 1.22002C13.7 2.42002 15.42 5.08002 15.42 8.00002Z" fill="currentColor"/>
  </g>
  <defs>
    <clipPath id="clip0_117_3">
      <rect width="16" height="16" fill="none"/>
    </clipPath>
  </defs>
</svg>
