<?xml version="1.0" encoding="UTF-8"?>
<svg width="14px" height="12px" viewBox="0 0 14 12" version="1.1" xmlns="http://www.w3.org/2000/svg" xmlns:xlink="http://www.w3.org/1999/xlink">
    <title>A27C2F03-EC8B-428D-A0E8-2AB73E5A2E4C</title>
    <g id="Mobile" stroke="none" stroke-width="1" fill="none" fill-rule="evenodd">
        <g id="Issue-comments-/-Thread" transform="translate(-33.000000, -595.000000)" fill="#2A2A2A">
            <g id="Group-6-Copy-7" transform="translate(24.000000, 585.000000)">
                <g id="Icons/general/users-teams-16px" transform="translate(9.250000, 10.250000)">
                    <path d="M7.29545455,6.66666667 C8.85982495,6.66666667 10.1333375,7.90685772 10.2223073,9.46455202 L10.2272727,9.63888889 L10.2272727,10.75 C10.2272727,11.1642136 9.89148629,11.5 9.47727273,11.5 C9.09757696,11.5 8.78378177,11.2178461 8.73411934,10.8517706 L8.72727273,10.75 L8.72727273,9.63888889 C8.72727273,8.87076188 8.15666874,8.2444072 7.43286179,8.1733763 L7.29545455,8.16666667 L2.93181818,8.16666667 C2.19049134,8.16666667 1.57627989,8.7478374 1.50658486,9.49662743 L1.5,9.63888889 L1.5,10.75 C1.5,11.1642136 1.16421356,11.5 0.75,11.5 C0.370304234,11.5 0.0565090391,11.2178461 0.006846616,10.8517706 L0,10.75 L0,9.63888889 C0,8.05894152 1.21764213,6.76232377 2.7592416,6.67172346 L2.93181818,6.66666667 L7.29545455,6.66666667 Z M5.11363636,0 C3.49132632,0 2.18181818,1.33375828 2.18181818,2.97222222 C2.18181818,4.61068616 3.49132632,5.94444444 5.11363636,5.94444444 C6.73594641,5.94444444 8.04545455,4.61068616 8.04545455,2.97222222 C8.04545455,1.33375828 6.73594641,0 5.11363636,0 Z M5.11363636,1.5 C5.90129613,1.5 6.54545455,2.15608727 6.54545455,2.97222222 C6.54545455,3.78835717 5.90129613,4.44444444 5.11363636,4.44444444 C4.32597659,4.44444444 3.68181818,3.78835717 3.68181818,2.97222222 C3.68181818,2.15608727 4.32597659,1.5 5.11363636,1.5 Z M10.3882987,7.29813957 C10.4936467,6.89754665 10.9037928,6.6582033 11.3043857,6.76355125 C12.5396269,7.08839502 13.4163279,8.18127706 13.4943367,9.45566245 L13.5,9.63888889 L13.5,10.75 C13.5,11.1642136 13.1642136,11.5 12.75,11.5 C12.3703042,11.5 12.056509,11.2178461 12.0068466,10.8517706 L12,10.75 L12.0000002,9.63943815 C11.9995065,8.9652504 11.5542781,8.38026977 10.922887,8.21422653 C10.5222941,8.10887859 10.2829508,7.69873249 10.3882987,7.29813957 Z M8.2060897,0.632965341 C8.31061339,0.232156566 8.72026629,-0.00802995145 9.12107506,0.096493738 C10.4187601,0.434906553 11.32246,1.62070168 11.32246,2.975 C11.32246,4.32929832 10.4187601,5.51509345 9.12107506,5.85350626 C8.72026629,5.95802995 8.31061339,5.71784343 8.2060897,5.31703466 C8.11027632,4.94962662 8.30411526,4.57478705 8.64581194,4.43435538 L8.7425613,4.40204929 C9.37569246,4.23694012 9.82245996,3.65071151 9.82245996,2.975 C9.82245996,2.34433592 9.43327583,1.79162139 8.86662553,1.5864892 L8.7425613,1.54795071 C8.34175253,1.44342702 8.10156601,1.03377412 8.2060897,0.632965341 Z" id="Combined-Shape"></path>
                </g>
            </g>
        </g>
    </g>
</svg>