<?xml version="1.0" encoding="UTF-8"?>
<svg width="16px" height="16px" viewBox="0 0 16 16" version="1.1" xmlns="http://www.w3.org/2000/svg" xmlns:xlink="http://www.w3.org/1999/xlink">
    <title>C2621F7B-1479-411E-99D2-0E1E01CC572F</title>
    <g id="Symbols" stroke="none" stroke-width="1" fill="none" fill-rule="evenodd">
        <g id="Icons/general/trash" fill="currentColor">
            <path d="M8.85000026,1.25 C9.72246941,1.25 10.4676009,1.87344608 10.543619,2.70636965 L10.5500003,2.84705887 L10.55,3.65 L12.8000004,3.6500001 C13.214214,3.6500001 13.5500004,3.98578653 13.5500004,4.4000001 C13.5500004,4.77969586 13.2678465,5.09349106 12.901771,5.14315348 L12.8000004,5.1500001 L12.35,5.15 L12.3500004,11.9250004 C12.3500004,12.8798774 11.6223622,13.6675507 10.6914555,13.7439308 L10.5428575,13.75 L5.25714295,13.75 C4.30629215,13.75 3.5311114,13.0100711 3.45597045,12.0743017 L3.45000005,11.9250004 L3.45,5.15 L3,5.1500001 C2.58578644,5.1500001 2.25,4.81421366 2.25,4.4000001 C2.25,4.02030433 2.53215388,3.70650913 2.89822944,3.65684671 L3,3.6500001 L5.25,3.65 L5.25,2.84705887 C5.25,1.9921377 5.94921222,1.32369577 6.80586059,1.25570167 L6.95000017,1.25 L8.85000026,1.25 Z M4.95,5.15 L4.95,11.9250004 C4.95,12.0812392 5.05311483,12.2084156 5.18761153,12.2415632 L5.25714295,12.2500005 L10.5428575,12.2500005 C10.6858222,12.2500005 10.8093606,12.1451439 10.8417396,12.0003972 L10.8500004,11.9250004 L10.8500004,5.15 L4.95,5.15 Z M8.85000026,2.75 L6.95000017,2.75 C6.84727903,2.75 6.78091168,2.79085777 6.75847359,2.8242088 L6.75,2.84705887 L6.75,3.65 L9.05000031,3.65 L9.05000031,2.84705887 C9.05000031,2.82048398 9.00417719,2.77431124 8.92010641,2.75690514 L8.85000026,2.75 Z" id="Shape"></path>
        </g>
    </g>
</svg>