<?xml version="1.0" encoding="UTF-8"?>
<svg width="24px" height="24px" viewBox="0 0 24 24" version="1.1" xmlns="http://www.w3.org/2000/svg" xmlns:xlink="http://www.w3.org/1999/xlink">
    <title>7D26DB84-E1FE-435B-A19A-6985B31F9BD6</title>
    <g id="Symbols" stroke="none" stroke-width="1" fill="none" fill-rule="evenodd">
        <g id="Icons/general/viewpointsAdd-24px" fill="#2A2A2A">
            <path d="M16.7669717,11.8297616 C17.2798075,11.8297616 17.7024789,12.2158018 17.760244,12.7131405 L17.7669717,12.8297616 L17.7665,15.0625 L20,15.0627899 C20.5522847,15.0627899 21,15.5105052 21,16.0627899 C21,16.5756258 20.6139598,16.9982971 20.1166211,17.0560622 L20,17.0627899 L17.7665,17.0625 L17.7669717,19.2958182 C17.7669717,19.848103 17.3192565,20.2958182 16.7669717,20.2958182 C16.2541359,20.2958182 15.8314645,19.909778 15.7736994,19.4124393 L15.7669717,19.2958182 L15.7665,17.0625 L13.5339434,17.0627899 C12.9816587,17.0627899 12.5339434,16.6150747 12.5339434,16.0627899 C12.5339434,15.5499541 12.9199836,15.1272828 13.4173223,15.0695176 L13.5339434,15.0627899 L15.7665,15.0625 L15.7669717,12.8297616 C15.7669717,12.2774769 16.214687,11.8297616 16.7669717,11.8297616 Z M13.3309909,4.0625 C13.6100428,4.0625 13.8723483,4.18662657 14.0491405,4.39734718 L14.1194726,4.49284826 L15.175,6.134 L17.329987,6.13494692 C17.8107706,6.13494692 18.207025,6.4968596 18.2611798,6.96311462 L18.267487,7.07244692 C18.267487,7.55323052 17.9055743,7.94948489 17.4393193,8.00363968 L17.329987,8.00994692 L14.6639896,8.00994692 C14.3849377,8.00994692 14.1226322,7.88582035 13.94584,7.67509974 L13.8755079,7.57959866 L12.819,5.937 L9.843,5.937 L8.78747779,7.57959866 C8.63652136,7.81429445 8.39022779,7.967758 8.11736399,8.00245676 L7.9989961,8.00994692 L5.3329987,8.00994692 C5.14565465,8.00994692 4.97887389,8.16123699 4.94412439,8.37230454 L4.9375,8.45407821 L4.9375,17.2965184 C4.9375,17.5211004 5.08346475,17.6973441 5.2639263,17.7337367 L5.3329987,17.7406497 L9.16337688,17.7406497 C9.68114384,17.7406497 10.1008769,18.1603827 10.1008769,18.6781497 C10.1008769,19.1589333 9.7389642,19.5551877 9.27270919,19.6093424 L9.16337688,19.6156497 L5.3329987,19.6156497 C4.12393887,19.6156497 3.1470114,18.6552958 3.06769984,17.4544545 L3.0625,17.2965184 L3.0625,8.45407821 C3.0625,7.23368576 3.98904998,6.22248222 5.17666638,6.140334 L5.3329987,6.13494692 L7.487,6.134 L8.54351312,4.49284826 C8.69446955,4.25815247 8.94076312,4.10468893 9.21362692,4.06999016 L9.33199481,4.0625 L13.3309909,4.0625 Z M11.3314929,8.41463854 C12.4351372,8.41463854 13.468232,8.87190107 14.2154316,9.66284026 C14.5709932,10.0392158 14.5541202,10.6325681 14.1777447,10.9881297 C13.8013692,11.3436914 13.2080169,11.3268184 12.8524552,10.9504429 C12.4550026,10.5297242 11.9125764,10.2896385 11.3314929,10.2896385 C10.1658511,10.2896385 9.21420417,11.2580711 9.21420417,12.4608089 C9.21420417,12.9760965 9.38903105,13.4606037 9.70058338,13.8455089 L9.82375009,13.9850451 C10.1826264,14.3582614 10.1710016,14.9517397 9.79778526,15.310616 C9.42456896,15.6694923 8.83109063,15.6578675 8.47221431,15.2846512 C7.75059221,14.5341945 7.33920417,13.5288185 7.33920417,12.4608089 C7.33920417,10.2298043 9.12290818,8.41463854 11.3314929,8.41463854 Z" id="Combined-Shape"></path>
        </g>
    </g>
</svg>