<?xml version="1.0" encoding="UTF-8"?>
<svg width="24px" height="24px" viewBox="0 0 24 24" version="1.1" xmlns="http://www.w3.org/2000/svg" xmlns:xlink="http://www.w3.org/1999/xlink">
    <title>A34D75F8-70DA-4443-A46B-64168B905FAC</title>
    <g id="Symbols" stroke="none" stroke-width="1" fill="none" fill-rule="evenodd">
        <g id="Icons/general/wifi-off-24px" fill="currentColor">
            <path d="M2.99926308,3.09606825 L3.09347042,3.17925686 L20.8207431,20.9065296 C21.2112674,21.2970539 21.2112674,21.9302189 20.8207431,22.3207431 C20.4602592,22.6812271 19.8930281,22.7089566 19.5007369,22.4039318 L19.4065296,22.3207431 L12.64077,15.5541392 C12.4800505,15.6568501 12.2882345,15.7147846 12.0832269,15.7107321 C11.2127847,15.6935253 10.3570779,15.9601979 9.63651465,16.484433 C9.1899178,16.8093479 8.56448394,16.7107052 8.23956903,16.2641084 C7.91465412,15.8175115 8.01329682,15.1920777 8.45989367,14.8671627 C9.19544421,14.3320239 10.0285434,13.9758353 10.8994299,13.8125591 L9.01836364,11.9323636 L8.77460167,12.0334393 C8.02847982,12.3579445 7.32855576,12.7944777 6.69432145,13.3354512 C6.27412739,13.693858 5.64294673,13.6437695 5.28453998,13.2235754 C4.92613323,12.8033813 4.97622173,12.1722007 5.39641579,11.8137939 C6.04662753,11.2591924 6.75417631,10.7923325 7.50473605,10.4192629 L5.77136364,8.68636364 L5.71282605,8.72062128 C4.98972319,9.14789525 4.30595766,9.65046095 3.67005817,10.224467 C3.26009245,10.5945299 2.62775431,10.5621823 2.2576914,10.1522166 C1.8876285,9.74225088 1.91997612,9.10991274 2.32994183,8.73984983 C2.95347222,8.17700895 3.61764022,7.67295602 4.31622236,7.2307221 L1.67925686,4.59347042 C1.28873256,4.20294613 1.28873256,3.56978115 1.67925686,3.17925686 C2.03974082,2.81877289 2.60697187,2.79104336 2.99926308,3.09606825 Z M12.0085066,18.0644417 C12.5607914,18.0644417 13.0085066,18.5121569 13.0085066,19.0644417 C13.0085066,19.5772775 12.6224664,19.9999488 12.1251277,20.0577139 L12.0085066,20.0644417 C11.4477153,20.0644417 11,19.6167264 11,19.0644417 C11,18.5516058 11.3860402,18.1289345 11.8833789,18.0711694 L12.0085066,18.0644417 Z M15.5235636,9.97253738 C16.6640463,10.3891608 17.728115,11.0090117 18.6716371,11.8137939 C19.0918312,12.1722007 19.1419197,12.8033813 18.783513,13.2235754 C18.4251062,13.6437695 17.7939255,13.693858 17.3737315,13.3354512 C16.6116279,12.6854109 15.7547769,12.1862703 14.8373105,11.8511158 C14.3185554,11.6616122 14.0516443,11.0874551 14.2411479,10.5687 C14.4306514,10.0499449 15.0048085,9.78303382 15.5235636,9.97253738 Z M21.6700582,8.73984983 C22.0800239,9.10991274 22.1123715,9.74225088 21.7423086,10.1522166 C21.3722457,10.5621823 20.7399076,10.5945299 20.3299418,10.224467 C17.5288458,7.69600744 13.831768,6.59630647 10.1985764,7.13210105 C9.65220104,7.21267621 9.14395718,6.83507049 9.06338203,6.28869508 C8.98280687,5.74231967 9.36041258,5.23407582 9.90678799,5.15350066 C14.1269454,4.53114496 18.4232939,5.80909987 21.6700582,8.73984983 Z" id="Shape"></path>
        </g>
    </g>
</svg>