<?xml version="1.0" encoding="UTF-8"?>
<svg width="24px" height="24px" viewBox="0 0 24 24" version="1.1" xmlns="http://www.w3.org/2000/svg" xmlns:xlink="http://www.w3.org/1999/xlink">
    <title>4F208C77-E448-4777-A32A-B2C5C2B98C30</title>
    <g id="Symbols" stroke="none" stroke-width="1" fill="currentColor" fill-rule="evenodd">
        <g id="Icons/general/zoom-24px" fill="currentColor">
            <path d="M5.3500699,5.3500699 C8.47351066,2.22662913 13.5282738,2.21456526 16.6402082,5.32649967 C19.5133815,8.19967297 19.7235401,12.7289872 17.2806175,15.865349 L20.5838476,19.1696341 C20.9743719,19.5601584 20.9743719,20.1933234 20.5838476,20.5838476 C20.221218,20.9464773 19.6493726,20.9723795 19.2568549,20.661554 L19.1696341,20.5838476 L15.8661468,17.279996 C12.7297553,19.7235757 8.1999166,19.5136251 5.32649967,16.6402082 C2.21456526,13.5282738 2.22662913,8.47351066 5.3500699,5.3500699 Z M6.76428346,6.76428346 C4.42038414,9.10818278 4.41134252,12.8966239 6.74071323,15.2259946 C9.07008395,17.5553653 12.8585251,17.5463237 15.2024244,15.2024244 C17.5463237,12.8585251 17.5553653,9.07008395 15.2259946,6.74071323 C12.8966239,4.41134252 9.10818278,4.42038414 6.76428346,6.76428346 Z" id="Shape"></path>
        </g>
    </g>
</svg>