<?xml version="1.0" encoding="UTF-8"?>
<svg width="16px" height="16px" viewBox="0 0 16 16" version="1.1" xmlns="http://www.w3.org/2000/svg" xmlns:xlink="http://www.w3.org/1999/xlink">
    <title>12766D82-FE19-49B6-AE25-E8E7AE7EF2DB</title>
    <g id="Symbols" stroke="none" stroke-width="1" fill="currentColor" fill-rule="evenodd">
        <g id="Icons/general/zoom-16px" fill="currentColor">
            <path d="M2.76256313,2.66636906 C5.20333996,0.225592232 9.16062107,0.225592232 11.6013979,2.66636906 C13.862598,4.92756921 14.0289626,8.49033331 12.1004916,10.9430549 L14.2171406,13.0602863 C14.5100338,13.3531795 14.5100338,13.8280533 14.2171406,14.1209465 C13.9486551,14.3894319 13.5272555,14.4118057 13.2332843,14.1880678 L13.1564804,14.1209465 L11.040044,12.0036724 C8.58729732,13.9328045 5.02400761,13.7666483 2.76256313,11.5052038 C0.32178631,9.064427 0.32178631,5.10714588 2.76256313,2.66636906 Z M3.8232233,3.72702923 C1.96823292,5.58201961 1.96823292,8.58955326 3.8232233,10.4445436 C5.67821369,12.299534 8.68574734,12.299534 10.5407377,10.4445436 C12.3957281,8.58955326 12.3957281,5.58201961 10.5407377,3.72702923 C8.68574734,1.87203884 5.67821369,1.87203884 3.8232233,3.72702923 Z" id="Shape"></path>
        </g>
    </g>
</svg>